<svg id="svg" version="1.1" xmlns="http://www.w3.org/2000/svg" xmlns:xlink="http://www.w3.org/1999/xlink" width="400" height="418.6046511627907" viewBox="0, 0, 400,418.6046511627907"><g id="svgg"><path id="path0" d="M189.400 19.202 C 180.274 19.762,179.185 19.948,180.390 20.745 C 187.753 25.616,197.589 33.730,212.539 47.266 L 214.600 49.131 205.377 58.466 C 197.398 66.540,186.948 77.938,187.288 78.194 C 187.350 78.240,190.190 78.098,193.600 77.877 C 256.546 73.808,315.213 120.952,325.165 183.600 C 341.980 289.459,229.788 367.523,136.847 314.632 L 133.493 312.724 129.847 313.148 C 122.556 313.998,109.650 314.504,100.900 314.284 L 92.000 314.060 92.000 317.130 C 92.002 325.475,95.215 357.879,96.116 358.636 C 104.394 365.591,129.891 377.530,148.000 382.932 C 194.789 396.888,251.707 390.134,292.200 365.821 C 293.740 364.896,295.270 364.017,295.600 363.866 C 296.165 363.608,300.714 360.629,307.189 356.274 C 320.393 347.395,337.322 330.965,348.500 316.182 C 396.580 252.595,398.229 163.303,352.521 98.441 C 350.290 95.275,343.173 86.079,341.363 84.025 C 316.096 55.336,287.536 36.876,252.000 26.263 C 233.254 20.664,209.404 17.974,189.400 19.202 M136.000 30.250 C 125.498 34.089,114.718 39.219,105.138 44.939 C 99.760 48.150,99.071 48.800,101.047 48.800 C 102.882 48.800,118.091 52.308,126.200 54.602 C 126.888 54.796,127.192 54.364,128.369 51.514 C 129.122 49.691,131.778 43.986,134.271 38.835 C 136.764 33.685,138.758 29.432,138.702 29.385 C 138.646 29.339,137.430 29.728,136.000 30.250 M157.900 32.289 C 155.351 36.586,154.487 38.192,151.276 44.604 C 147.851 51.445,146.455 54.439,144.981 58.106 L 144.055 60.412 145.527 61.030 C 146.337 61.369,148.990 62.435,151.423 63.398 C 153.855 64.362,157.275 65.809,159.023 66.615 C 160.770 67.422,163.562 68.672,165.228 69.394 L 168.255 70.708 170.218 68.254 C 171.990 66.038,180.641 56.131,184.752 51.610 C 185.647 50.625,186.249 49.702,186.090 49.558 C 181.809 45.693,166.593 34.484,160.735 30.880 L 159.271 29.979 157.900 32.289 M85.409 65.100 C 84.996 66.146,84.639 92.452,84.983 96.553 L 85.281 100.106 87.740 99.830 C 94.930 99.026,98.111 98.795,105.448 98.548 L 113.495 98.276 114.395 94.238 C 115.488 89.337,116.765 84.630,118.803 78.000 C 119.648 75.250,120.398 72.660,120.470 72.244 C 120.666 71.103,104.693 67.140,92.005 65.181 C 85.871 64.234,85.752 64.233,85.409 65.100 M64.296 77.700 C 58.252 84.218,57.570 85.013,53.172 90.672 C 49.571 95.305,43.948 103.404,41.628 107.300 C 40.592 109.039,40.878 109.168,43.686 108.224 C 46.808 107.175,58.124 104.455,62.996 103.584 C 69.678 102.388,69.056 103.378,68.675 94.540 C 68.497 90.393,68.452 83.895,68.577 80.100 C 68.701 76.305,68.727 73.200,68.636 73.200 C 68.544 73.200,66.591 75.225,64.296 77.700 M136.605 80.700 C 136.031 82.625,135.391 84.650,135.181 85.200 C 134.613 86.694,132.006 96.939,132.156 97.089 C 132.228 97.161,133.437 96.525,134.843 95.675 C 140.318 92.369,150.017 87.673,154.900 85.964 C 155.725 85.676,156.400 85.320,156.400 85.175 C 156.400 84.684,139.016 77.200,137.875 77.200 C 137.750 77.200,137.179 78.775,136.605 80.700 M105.200 114.663 C 100.682 114.819,87.444 116.080,87.091 116.388 C 86.557 116.855,90.168 138.301,90.905 139.039 C 91.003 139.136,92.038 137.728,93.206 135.908 C 96.444 130.863,101.499 124.289,105.969 119.308 C 110.385 114.387,110.400 114.365,109.100 114.479 C 108.605 114.523,106.850 114.606,105.200 114.663 M64.600 119.798 C 54.203 121.986,32.119 128.265,30.895 129.381 C 30.778 129.487,33.088 134.879,35.871 141.000 C 40.104 150.306,49.531 167.493,50.310 167.323 C 50.505 167.280,53.440 165.381,56.832 163.102 C 60.225 160.824,65.790 157.315,69.200 155.305 C 77.891 150.181,77.024 151.209,76.008 147.232 C 74.514 141.380,73.206 134.848,71.896 126.700 C 70.724 119.405,70.564 118.803,69.813 118.836 C 69.366 118.856,67.020 119.289,64.600 119.798 M22.686 148.673 C 20.414 152.490,15.464 178.536,14.604 191.200 C 14.477 193.070,14.273 195.590,14.150 196.800 L 13.928 199.000 20.464 192.591 C 26.580 186.594,33.034 180.812,36.500 178.225 C 38.260 176.911,38.349 176.226,37.015 174.260 C 35.228 171.627,29.397 161.106,26.231 154.800 C 22.766 147.901,22.953 148.225,22.686 148.673 M74.000 169.480 C 66.055 174.355,58.356 179.708,58.552 180.220 C 59.150 181.779,72.187 198.400,72.811 198.400 C 72.987 198.400,73.250 197.005,73.394 195.300 C 74.154 186.321,75.381 179.030,77.403 171.479 C 78.761 166.410,78.885 166.483,74.000 169.480 M40.800 193.647 C 33.325 200.247,19.147 214.430,19.289 215.166 C 19.543 216.487,33.228 227.227,43.465 234.140 L 49.129 237.965 50.838 235.083 C 54.726 228.525,60.979 218.858,64.074 214.621 L 65.520 212.642 62.038 208.621 C 58.129 204.106,53.952 198.886,49.622 193.100 C 46.076 188.363,46.838 188.315,40.800 193.647 M69.948 229.326 C 64.163 238.134,60.706 243.977,60.931 244.565 C 61.271 245.451,83.019 256.314,83.496 255.837 C 83.619 255.714,83.071 254.036,82.279 252.107 C 80.455 247.665,78.082 240.742,77.581 238.400 C 77.370 237.410,76.837 235.250,76.397 233.600 C 75.958 231.950,75.284 228.857,74.899 226.726 L 74.200 222.851 69.948 229.326 M16.007 230.693 C 16.081 237.881,22.514 261.709,27.962 274.978 C 30.057 280.079,30.108 280.113,31.186 277.119 C 32.515 273.432,35.442 265.941,36.338 263.937 C 36.765 262.982,38.422 259.364,40.020 255.897 C 41.619 252.430,42.853 249.520,42.763 249.430 C 42.674 249.340,40.058 247.566,36.952 245.488 C 30.808 241.377,25.468 237.485,19.700 232.916 C 17.015 230.789,16.002 230.179,16.007 230.693 M52.623 259.700 C 47.678 270.368,44.316 278.779,41.040 288.685 L 39.292 293.970 41.346 294.564 C 50.723 297.275,79.507 302.417,80.204 301.505 C 80.248 301.447,80.491 297.440,80.745 292.600 C 80.999 287.760,81.565 280.931,82.003 277.424 C 82.441 273.917,82.800 270.802,82.800 270.502 C 82.800 270.201,81.945 269.586,80.900 269.135 C 74.844 266.520,71.900 265.148,65.600 262.009 C 61.750 260.090,57.718 258.043,56.640 257.460 C 54.089 256.080,54.376 255.919,52.623 259.700 M93.851 275.600 C 93.437 277.357,92.392 289.865,92.132 296.175 L 91.880 302.276 93.440 302.534 C 95.457 302.867,114.405 302.811,116.937 302.465 L 118.874 302.200 114.586 298.422 C 108.423 292.992,97.915 280.897,94.543 275.352 C 94.114 274.647,94.071 274.662,93.851 275.600 M45.600 307.828 C 45.600 308.349,51.740 316.772,55.931 322.000 C 62.719 330.467,81.746 349.188,82.647 348.286 C 82.771 348.162,82.489 344.582,82.020 340.330 C 81.551 336.079,80.959 328.242,80.705 322.914 L 80.242 313.229 79.221 313.025 C 78.659 312.914,76.310 312.627,74.000 312.388 C 67.640 311.731,62.761 310.953,53.985 309.197 C 45.229 307.445,45.600 307.505,45.600 307.828 " stroke="none" fill="#44b42c" fill-rule="evenodd"></path><path id="path1" d="M0.000 209.200 L 0.000 418.400 200.000 418.400 L 400.000 418.400 400.000 209.200 L 400.000 0.000 200.000 0.000 L 0.000 0.000 0.000 209.200 M222.000 19.572 C 241.213 22.282,252.695 25.214,269.746 31.765 C 276.182 34.238,284.354 38.256,294.200 43.789 C 297.158 45.451,307.360 52.223,310.754 54.777 C 312.379 56.000,314.179 57.354,314.754 57.786 C 325.797 66.086,340.489 81.163,350.043 94.000 C 352.050 96.697,356.000 102.432,356.000 102.650 C 356.000 102.770,356.521 103.619,357.159 104.535 C 358.613 106.625,361.200 110.758,361.200 110.990 C 361.200 111.086,361.760 112.115,362.445 113.277 C 364.463 116.699,367.323 122.299,369.352 126.800 C 370.394 129.110,371.505 131.540,371.821 132.200 C 374.745 138.299,380.301 155.910,381.979 164.400 C 382.436 166.710,383.082 169.770,383.416 171.200 C 387.123 187.088,387.126 221.270,383.422 237.889 C 383.089 239.380,382.351 242.891,381.781 245.691 C 381.212 248.492,380.398 251.772,379.973 252.981 C 379.548 254.191,379.200 255.439,379.200 255.756 C 379.200 257.215,373.434 273.417,371.167 278.328 C 370.525 279.718,370.000 280.948,370.000 281.062 C 370.000 283.070,355.486 308.208,351.616 312.903 C 351.391 313.176,350.132 314.840,348.818 316.600 C 343.625 323.555,339.287 328.570,332.540 335.414 C 327.824 340.198,320.013 347.262,316.190 350.200 C 315.331 350.860,314.082 351.860,313.414 352.423 C 312.170 353.471,307.867 356.504,302.208 360.324 C 296.170 364.399,278.776 374.000,277.432 374.000 C 277.302 374.000,276.252 374.462,275.098 375.027 C 267.771 378.612,251.554 383.965,240.800 386.348 C 201.497 395.055,160.725 390.991,123.800 374.684 C 113.212 370.008,95.758 359.898,95.406 358.237 C 95.065 356.627,93.628 346.152,93.013 340.800 C 92.303 334.611,91.614 323.218,91.606 317.500 L 91.600 313.600 103.900 313.601 C 111.333 313.602,119.710 313.346,125.071 312.954 L 133.941 312.306 137.548 314.370 C 144.429 318.308,154.650 322.822,160.800 324.640 C 162.670 325.193,164.961 325.902,165.890 326.215 C 180.977 331.295,206.103 332.130,225.615 328.198 C 249.262 323.433,274.022 310.028,289.779 293.460 C 304.158 278.340,313.448 263.397,319.283 246.000 C 322.741 235.693,323.063 234.389,325.257 221.800 C 327.320 209.965,326.498 191.805,323.213 176.600 C 319.361 158.775,309.991 139.359,298.632 125.669 C 297.294 124.057,295.750 122.172,295.200 121.481 C 291.595 116.947,278.243 104.878,273.556 101.915 C 272.982 101.552,272.262 101.018,271.956 100.728 C 270.928 99.753,258.316 92.254,256.606 91.601 C 256.163 91.432,254.630 90.726,253.200 90.032 C 248.050 87.533,238.689 84.111,233.000 82.649 C 219.579 79.198,214.546 78.600,198.900 78.600 C 192.025 78.600,186.400 78.491,186.400 78.357 C 186.400 78.136,195.229 67.887,196.751 66.341 C 197.108 65.978,201.090 61.961,205.600 57.413 L 213.800 49.143 211.400 46.947 C 208.014 43.847,196.831 34.074,194.755 32.400 C 191.000 29.373,185.634 25.254,182.300 22.841 C 179.323 20.685,178.398 19.791,178.900 19.553 C 181.766 18.193,212.319 18.207,222.000 19.572 M137.076 34.465 C 134.487 39.438,131.223 46.376,128.779 52.100 C 127.268 55.639,127.280 55.634,123.228 54.399 C 119.942 53.397,108.013 50.551,105.600 50.194 C 102.694 49.763,98.800 48.729,98.800 48.388 C 98.800 47.066,121.543 35.166,131.233 31.417 C 140.817 27.710,140.641 27.618,137.076 34.465 M165.800 33.550 C 173.578 38.807,186.351 48.628,186.734 49.647 C 186.888 50.058,185.720 51.513,182.253 55.229 C 178.735 59.000,170.762 68.282,169.686 69.859 C 168.523 71.563,168.341 71.551,163.898 69.457 C 156.984 66.199,152.053 64.115,146.500 62.103 C 143.011 60.839,143.034 60.979,145.420 55.598 C 148.714 48.168,152.996 39.668,157.206 32.200 C 159.223 28.622,158.292 28.476,165.800 33.550 M91.800 64.576 C 101.744 66.301,105.661 67.107,113.182 68.973 C 122.223 71.216,121.655 70.641,120.023 75.899 C 117.432 84.246,116.859 86.251,115.589 91.400 C 114.884 94.260,114.221 97.071,114.116 97.647 C 113.895 98.856,112.008 99.200,105.605 99.200 C 103.692 99.200,98.204 99.476,93.410 99.813 C 88.615 100.150,84.622 100.355,84.535 100.268 C 83.714 99.447,84.201 65.292,85.054 63.912 C 85.327 63.470,85.565 63.494,91.800 64.576 M69.276 87.913 C 69.431 102.666,69.423 102.829,68.616 102.995 C 68.167 103.087,66.090 103.522,64.000 103.962 C 61.910 104.401,58.940 105.019,57.400 105.335 C 55.860 105.651,51.720 106.668,48.200 107.595 C 40.154 109.715,40.000 109.749,40.000 109.427 C 40.000 105.926,67.332 71.090,68.826 72.686 C 68.988 72.859,69.190 79.711,69.276 87.913 M142.200 78.197 C 146.050 79.657,151.658 81.993,152.772 82.600 C 153.338 82.907,154.655 83.518,155.700 83.957 C 158.335 85.064,158.158 85.320,153.500 87.149 C 151.245 88.034,148.272 89.308,146.894 89.979 C 145.515 90.651,144.288 91.200,144.167 91.200 C 143.949 91.200,139.333 93.740,134.462 96.541 C 133.065 97.343,131.830 98.000,131.716 98.000 C 131.101 98.000,132.468 92.301,135.415 82.577 C 137.290 76.392,137.334 76.315,138.707 76.856 C 139.308 77.092,140.880 77.696,142.200 78.197 M110.790 114.500 C 110.784 114.775,109.594 116.260,108.144 117.800 C 102.645 123.641,97.464 130.338,92.673 137.800 C 90.816 140.692,90.363 140.461,89.546 136.200 C 89.166 134.220,88.650 131.610,88.398 130.400 C 87.673 126.914,86.095 116.228,86.262 115.928 C 86.484 115.527,89.593 115.215,99.200 114.629 C 110.878 113.917,110.802 113.918,110.790 114.500 M70.934 118.300 C 71.033 118.465,71.407 120.400,71.764 122.600 C 72.120 124.800,72.694 128.310,73.039 130.400 C 73.384 132.490,74.461 137.734,75.433 142.054 C 77.709 152.172,77.959 151.134,72.576 153.959 C 69.187 155.737,61.856 160.314,55.776 164.448 C 52.903 166.402,50.362 168.000,50.130 168.000 C 49.496 168.000,38.800 149.652,38.800 148.564 C 38.800 148.451,38.109 146.973,37.265 145.279 C 36.421 143.586,34.958 140.400,34.013 138.200 C 33.068 136.000,31.869 133.233,31.348 132.052 C 30.827 130.870,30.400 129.670,30.400 129.385 C 30.400 127.743,70.083 116.890,70.934 118.300 M27.023 155.100 C 29.183 159.445,31.164 163.270,31.426 163.600 C 31.688 163.930,32.549 165.409,33.339 166.887 C 34.129 168.364,35.688 171.047,36.805 172.847 C 39.266 176.814,39.331 176.494,35.400 179.794 C 29.477 184.767,26.628 187.365,20.352 193.518 C 15.520 198.256,14.063 199.480,13.920 198.922 C 13.360 196.728,15.396 175.302,16.573 171.000 C 16.874 169.900,17.242 168.100,17.390 167.000 C 18.033 162.239,22.239 147.200,22.928 147.200 C 23.021 147.200,24.864 150.755,27.023 155.100 M78.986 167.685 C 78.829 168.611,78.374 170.366,77.975 171.585 C 76.490 176.116,74.205 189.257,73.781 195.700 C 73.613 198.259,73.366 199.592,73.063 199.578 C 72.385 199.545,60.400 184.443,60.400 183.621 C 60.400 183.412,60.166 183.096,59.880 182.920 C 59.046 182.407,57.528 180.040,57.776 179.639 C 58.336 178.733,78.009 166.069,78.935 166.018 C 79.119 166.008,79.142 166.758,78.986 167.685 M49.178 191.510 C 50.376 193.209,51.856 195.230,52.468 196.000 C 58.321 203.372,61.230 206.934,62.905 208.778 C 66.552 212.793,66.582 212.066,62.526 217.892 C 57.959 224.453,56.700 226.397,53.394 232.000 C 49.565 238.488,49.623 238.400,49.186 238.400 C 48.591 238.400,37.060 230.531,32.403 226.947 C 30.154 225.216,27.838 223.442,27.257 223.004 C 24.108 220.632,18.583 215.819,18.472 215.350 C 18.115 213.849,44.702 188.388,46.600 188.414 C 46.820 188.417,47.980 189.810,49.178 191.510 M75.370 225.307 C 76.377 233.077,78.955 241.928,83.924 254.678 C 85.140 257.799,84.806 257.670,61.804 246.092 C 60.812 245.593,60.000 244.973,60.000 244.715 C 60.000 244.118,66.341 233.491,68.900 229.800 C 69.968 228.260,71.583 225.852,72.489 224.449 C 74.391 221.503,74.897 221.654,75.370 225.307 M19.869 232.315 C 26.171 237.310,31.035 240.854,36.600 244.510 C 39.460 246.388,42.221 248.259,42.735 248.668 L 43.669 249.411 40.392 256.405 C 38.589 260.252,36.576 264.750,35.917 266.400 C 33.144 273.347,31.118 278.658,30.919 279.500 C 30.626 280.741,29.662 280.629,29.187 279.300 C 28.971 278.695,28.551 277.750,28.254 277.200 C 27.956 276.650,27.220 274.850,26.618 273.200 C 26.015 271.550,25.283 269.660,24.990 269.000 C 23.437 265.498,18.959 250.016,17.816 244.200 C 17.471 242.440,16.924 239.830,16.601 238.400 C 16.140 236.362,15.200 230.300,15.200 229.371 C 15.200 228.806,16.377 229.548,19.869 232.315 M59.294 258.202 C 63.401 260.405,73.483 265.216,81.500 268.798 C 82.655 269.314,83.600 269.796,83.600 269.868 C 83.600 269.940,83.333 271.575,83.006 273.500 C 82.364 277.286,81.200 292.711,81.200 297.437 C 81.200 301.513,80.771 302.494,79.103 302.235 C 77.259 301.950,70.756 300.976,64.200 300.003 C 61.120 299.546,57.070 298.824,55.200 298.398 C 53.330 297.971,50.090 297.245,48.000 296.783 C 42.545 295.577,38.800 294.429,38.800 293.963 C 38.800 293.177,44.287 277.219,45.182 275.400 C 45.399 274.960,46.135 273.160,46.818 271.400 C 47.501 269.640,48.226 268.029,48.430 267.820 C 48.633 267.611,48.800 267.210,48.800 266.929 C 48.800 266.277,53.899 255.600,54.210 255.600 C 54.338 255.600,56.626 256.771,59.294 258.202 M96.085 276.445 C 97.028 277.790,98.070 279.284,98.400 279.765 C 101.647 284.499,111.384 295.042,117.185 300.107 C 118.607 301.348,119.627 302.507,119.453 302.682 C 119.023 303.114,107.385 303.433,98.700 303.250 L 91.600 303.101 91.604 299.250 C 91.610 292.171,92.755 276.491,93.410 274.500 C 93.726 273.540,94.382 274.017,96.085 276.445 M50.080 307.838 C 59.712 309.869,71.788 311.839,77.800 312.358 L 80.600 312.600 80.880 315.200 C 81.034 316.630,81.439 322.896,81.780 329.124 C 82.121 335.352,82.694 342.339,83.054 344.650 C 83.943 350.356,83.820 350.384,78.367 345.720 C 66.816 335.841,54.448 322.087,46.350 310.118 C 43.683 306.176,43.302 306.408,50.080 307.838 " stroke="none" fill="#f3f3f3" fill-rule="evenodd"></path><path id="path2" d="M196.505 18.687 C 197.114 18.779,198.014 18.777,198.505 18.682 C 198.997 18.587,198.500 18.511,197.400 18.514 C 196.300 18.517,195.897 18.595,196.505 18.687 M202.100 18.687 C 202.705 18.778,203.695 18.778,204.300 18.687 C 204.905 18.595,204.410 18.520,203.200 18.520 C 201.990 18.520,201.495 18.595,202.100 18.687 M210.400 45.725 C 210.400 45.794,210.985 46.379,211.700 47.025 L 213.000 48.200 211.825 46.900 C 210.730 45.688,210.400 45.416,210.400 45.725 M328.200 70.000 C 329.059 70.880,329.852 71.600,329.962 71.600 C 330.072 71.600,329.459 70.880,328.600 70.000 C 327.741 69.120,326.948 68.400,326.838 68.400 C 326.728 68.400,327.341 69.120,328.200 70.000 M84.514 75.000 C 84.517 76.100,84.595 76.503,84.687 75.895 C 84.779 75.286,84.777 74.386,84.682 73.895 C 84.587 73.403,84.511 73.900,84.514 75.000 M334.000 75.725 C 334.000 75.794,334.585 76.379,335.300 77.025 L 336.600 78.200 335.425 76.900 C 334.330 75.688,334.000 75.416,334.000 75.725 M100.500 99.076 C 100.885 99.176,101.515 99.176,101.900 99.076 C 102.285 98.975,101.970 98.893,101.200 98.893 C 100.430 98.893,100.115 98.975,100.500 99.076 M285.600 111.325 C 285.600 111.394,286.185 111.979,286.900 112.625 L 288.200 113.800 287.025 112.500 C 285.930 111.288,285.600 111.016,285.600 111.325 M291.200 116.925 C 291.200 116.994,291.785 117.579,292.500 118.225 L 293.800 119.400 292.625 118.100 C 291.530 116.888,291.200 116.616,291.200 116.925 M326.514 202.600 C 326.517 203.700,326.595 204.103,326.687 203.495 C 326.779 202.886,326.777 201.986,326.682 201.495 C 326.587 201.003,326.511 201.500,326.514 202.600 M28.575 204.500 L 27.400 205.800 28.700 204.625 C 29.415 203.979,30.000 203.394,30.000 203.325 C 30.000 203.016,29.670 203.288,28.575 204.500 M326.514 206.600 C 326.517 207.700,326.595 208.103,326.687 207.495 C 326.779 206.886,326.777 205.986,326.682 205.495 C 326.587 205.003,326.511 205.500,326.514 206.600 M25.381 207.700 L 23.800 209.400 25.500 207.819 C 26.435 206.949,27.200 206.184,27.200 206.119 C 27.200 205.816,26.852 206.119,25.381 207.700 M290.575 292.900 L 289.400 294.200 290.700 293.025 C 291.415 292.379,292.000 291.794,292.000 291.725 C 292.000 291.416,291.670 291.688,290.575 292.900 M80.493 314.800 C 80.493 315.570,80.575 315.885,80.676 315.500 C 80.776 315.115,80.776 314.485,80.676 314.100 C 80.575 313.715,80.493 314.030,80.493 314.800 M92.900 313.887 C 93.505 313.978,94.495 313.978,95.100 313.887 C 95.705 313.795,95.210 313.720,94.000 313.720 C 92.790 313.720,92.295 313.795,92.900 313.887 M115.905 313.883 C 116.402 313.979,117.122 313.975,117.505 313.875 C 117.887 313.775,117.480 313.696,116.600 313.701 C 115.720 313.705,115.407 313.787,115.905 313.883 M193.305 331.087 C 193.914 331.179,194.814 331.177,195.305 331.082 C 195.797 330.987,195.300 330.911,194.200 330.914 C 193.100 330.917,192.697 330.995,193.305 331.087 M206.100 331.076 C 206.485 331.176,207.115 331.176,207.500 331.076 C 207.885 330.975,207.570 330.893,206.800 330.893 C 206.030 330.893,205.715 330.975,206.100 331.076 M332.581 334.900 L 331.000 336.600 332.700 335.019 C 334.281 333.548,334.584 333.200,334.281 333.200 C 334.216 333.200,333.451 333.965,332.581 334.900 M71.400 339.200 C 72.259 340.080,73.052 340.800,73.162 340.800 C 73.272 340.800,72.659 340.080,71.800 339.200 C 70.941 338.320,70.148 337.600,70.038 337.600 C 69.928 337.600,70.541 338.320,71.400 339.200 " stroke="none" fill="#acd9a1" fill-rule="evenodd"></path><path id="path3" d="M190.691 19.089 C 191.401 19.177,192.661 19.179,193.491 19.092 C 194.321 19.005,193.740 18.933,192.200 18.931 C 190.660 18.929,189.981 19.000,190.691 19.089 M207.300 19.087 C 207.905 19.178,208.895 19.178,209.500 19.087 C 210.105 18.995,209.610 18.920,208.400 18.920 C 207.190 18.920,206.695 18.995,207.300 19.087 M184.900 19.476 C 185.285 19.576,185.915 19.576,186.300 19.476 C 186.685 19.375,186.370 19.293,185.600 19.293 C 184.830 19.293,184.515 19.375,184.900 19.476 M214.100 19.476 C 214.485 19.576,215.115 19.576,215.500 19.476 C 215.885 19.375,215.570 19.293,214.800 19.293 C 214.030 19.293,213.715 19.375,214.100 19.476 M179.445 19.928 C 179.333 20.108,179.773 20.177,180.421 20.082 C 181.070 19.987,181.600 19.840,181.600 19.755 C 181.600 19.450,179.643 19.607,179.445 19.928 M138.500 30.100 C 138.070 31.275,138.080 31.326,138.612 30.624 C 139.121 29.952,139.421 28.800,139.088 28.800 C 139.026 28.800,138.761 29.385,138.500 30.100 M199.600 35.725 C 199.600 35.794,200.185 36.379,200.900 37.025 L 202.200 38.200 201.025 36.900 C 199.930 35.688,199.600 35.416,199.600 35.725 M117.500 37.829 C 116.005 38.640,116.096 38.978,117.600 38.200 C 118.260 37.859,118.800 37.494,118.800 37.390 C 118.800 37.132,118.757 37.147,117.500 37.829 M281.200 37.379 C 281.200 37.489,281.740 37.859,282.400 38.200 C 283.060 38.541,283.600 38.731,283.600 38.621 C 283.600 38.511,283.060 38.141,282.400 37.800 C 281.740 37.459,281.200 37.269,281.200 37.379 M208.200 43.600 C 209.059 44.480,209.852 45.200,209.962 45.200 C 210.072 45.200,209.459 44.480,208.600 43.600 C 207.741 42.720,206.948 42.000,206.838 42.000 C 206.728 42.000,207.341 42.720,208.200 43.600 M213.029 48.038 C 213.673 48.829,214.281 49.408,214.379 49.325 C 214.478 49.242,213.951 48.595,213.209 47.887 L 211.858 46.600 213.029 48.038 M204.796 58.700 L 197.400 66.200 204.900 58.804 C 209.025 54.736,212.400 51.361,212.400 51.304 C 212.400 51.019,211.668 51.732,204.796 58.700 M181.781 54.900 L 180.200 56.600 181.900 55.019 C 183.481 53.548,183.784 53.200,183.481 53.200 C 183.416 53.200,182.651 53.965,181.781 54.900 M325.800 68.000 C 326.883 69.100,327.860 70.000,327.970 70.000 C 328.080 70.000,327.283 69.100,326.200 68.000 C 325.117 66.900,324.140 66.000,324.030 66.000 C 323.920 66.000,324.717 66.900,325.800 68.000 M195.375 68.500 L 194.200 69.800 195.500 68.625 C 196.712 67.530,196.984 67.200,196.675 67.200 C 196.606 67.200,196.021 67.785,195.375 68.500 M84.901 71.000 C 84.905 71.880,84.987 72.193,85.083 71.695 C 85.179 71.198,85.175 70.478,85.075 70.095 C 84.975 69.713,84.896 70.120,84.901 71.000 M66.386 75.100 L 64.200 77.400 66.500 75.214 C 67.765 74.011,68.800 72.976,68.800 72.914 C 68.800 72.617,68.418 72.963,66.386 75.100 M336.783 78.900 C 337.764 79.945,338.619 80.800,338.683 80.800 C 338.984 80.800,338.666 80.441,336.900 78.783 L 335.000 77.000 336.783 78.900 M197.282 77.896 C 198.758 77.973,201.278 77.973,202.882 77.897 C 204.487 77.821,203.280 77.758,200.200 77.758 C 197.120 77.757,195.807 77.819,197.282 77.896 M68.564 84.600 C 68.563 88.340,68.623 89.924,68.697 88.120 C 68.771 86.315,68.772 83.255,68.698 81.320 C 68.625 79.384,68.564 80.860,68.564 84.600 M61.781 80.100 L 60.200 81.800 61.900 80.219 C 62.835 79.349,63.600 78.584,63.600 78.519 C 63.600 78.216,63.252 78.519,61.781 80.100 M84.563 85.200 C 84.563 88.830,84.623 90.315,84.698 88.500 C 84.772 86.685,84.772 83.715,84.698 81.900 C 84.623 80.085,84.563 81.570,84.563 85.200 M155.000 84.274 C 155.660 84.627,156.332 85.115,156.494 85.358 C 156.700 85.668,156.790 85.653,156.794 85.310 C 156.800 84.846,154.804 83.582,154.120 83.616 C 153.944 83.625,154.340 83.921,155.000 84.274 M84.909 98.400 C 84.909 99.390,84.987 99.795,85.082 99.300 C 85.178 98.805,85.178 97.995,85.082 97.500 C 84.987 97.005,84.909 97.410,84.909 98.400 M104.311 98.693 C 105.251 98.778,106.691 98.777,107.511 98.691 C 108.330 98.605,107.560 98.536,105.800 98.537 C 104.040 98.539,103.370 98.609,104.311 98.693 M68.901 100.200 C 68.905 101.080,68.987 101.393,69.083 100.895 C 69.179 100.398,69.175 99.678,69.075 99.295 C 68.975 98.913,68.896 99.320,68.901 100.200 M96.705 99.083 C 97.202 99.179,97.922 99.175,98.305 99.075 C 98.687 98.975,98.280 98.896,97.400 98.901 C 96.520 98.905,96.207 98.987,96.705 99.083 M91.700 99.476 C 92.085 99.576,92.715 99.576,93.100 99.476 C 93.485 99.375,93.170 99.293,92.400 99.293 C 91.630 99.293,91.315 99.375,91.700 99.476 M289.200 114.600 C 290.617 116.030,291.867 117.200,291.977 117.200 C 292.087 117.200,291.017 116.030,289.600 114.600 C 288.183 113.170,286.933 112.000,286.823 112.000 C 286.713 112.000,287.783 113.170,289.200 114.600 M105.905 114.683 C 106.402 114.779,107.122 114.775,107.505 114.675 C 107.887 114.575,107.480 114.496,106.600 114.501 C 105.720 114.505,105.407 114.587,105.905 114.683 M108.218 116.782 L 106.236 119.000 108.399 116.914 C 109.589 115.767,110.480 114.769,110.381 114.697 C 110.281 114.624,109.308 115.563,108.218 116.782 M89.300 115.876 C 89.685 115.976,90.315 115.976,90.700 115.876 C 91.085 115.775,90.770 115.693,90.000 115.693 C 89.230 115.693,88.915 115.775,89.300 115.876 M294.000 119.725 C 294.000 119.794,294.585 120.379,295.300 121.025 L 296.600 122.200 295.425 120.900 C 294.330 119.688,294.000 119.416,294.000 119.725 M28.175 185.300 L 27.000 186.600 28.300 185.425 C 29.015 184.779,29.600 184.194,29.600 184.125 C 29.600 183.816,29.270 184.088,28.175 185.300 M384.901 186.200 C 384.905 187.080,384.987 187.393,385.083 186.895 C 385.179 186.398,385.175 185.678,385.075 185.295 C 384.975 184.913,384.896 185.320,384.901 186.200 M23.787 189.300 L 21.400 191.800 23.900 189.413 C 26.222 187.195,26.583 186.800,26.287 186.800 C 26.226 186.800,25.101 187.925,23.787 189.300 M14.093 195.600 C 14.093 196.370,14.175 196.685,14.276 196.300 C 14.376 195.915,14.376 195.285,14.276 194.900 C 14.175 194.515,14.093 194.830,14.093 195.600 M37.578 196.300 L 36.200 197.800 37.700 196.422 C 38.525 195.663,39.200 194.988,39.200 194.922 C 39.200 194.616,38.862 194.904,37.578 196.300 M385.728 197.600 C 385.728 199.030,385.801 199.615,385.889 198.900 C 385.978 198.185,385.978 197.015,385.889 196.300 C 385.801 195.585,385.728 196.170,385.728 197.600 M73.293 196.800 C 73.293 197.570,73.375 197.885,73.476 197.500 C 73.576 197.115,73.576 196.485,73.476 196.100 C 73.375 195.715,73.293 196.030,73.293 196.800 M326.514 197.400 C 326.517 198.500,326.595 198.903,326.687 198.295 C 326.779 197.686,326.777 196.786,326.682 196.295 C 326.587 195.803,326.511 196.300,326.514 197.400 M30.791 202.700 L 27.400 206.200 30.900 202.809 C 34.151 199.659,34.582 199.200,34.291 199.200 C 34.231 199.200,32.656 200.775,30.791 202.700 M326.893 204.400 C 326.893 205.170,326.975 205.485,327.076 205.100 C 327.176 204.715,327.176 204.085,327.076 203.700 C 326.975 203.315,326.893 203.630,326.893 204.400 M22.585 210.900 L 20.600 213.000 22.700 211.015 C 23.855 209.923,24.800 208.978,24.800 208.915 C 24.800 208.617,24.429 208.949,22.585 210.900 M385.724 211.400 C 385.726 212.720,385.801 213.212,385.890 212.493 C 385.979 211.774,385.977 210.694,385.886 210.093 C 385.795 209.492,385.722 210.080,385.724 211.400 M326.514 211.800 C 326.517 212.900,326.595 213.303,326.687 212.695 C 326.779 212.086,326.777 211.186,326.682 210.695 C 326.587 210.203,326.511 210.700,326.514 211.800 M18.800 215.064 C 18.800 215.282,19.295 215.897,19.900 216.430 L 21.000 217.400 20.000 216.200 C 19.450 215.540,18.955 214.925,18.900 214.833 C 18.845 214.742,18.800 214.845,18.800 215.064 M384.901 223.000 C 384.905 223.880,384.987 224.193,385.083 223.695 C 385.179 223.198,385.175 222.478,385.075 222.095 C 384.975 221.713,384.896 222.120,384.901 223.000 M70.800 250.196 C 70.800 250.470,73.249 251.684,73.432 251.501 C 73.519 251.414,72.962 251.044,72.195 250.678 C 71.428 250.312,70.800 250.095,70.800 250.196 M64.400 261.379 C 64.400 261.489,64.940 261.859,65.600 262.200 C 66.260 262.541,66.800 262.731,66.800 262.621 C 66.800 262.511,66.260 262.141,65.600 261.800 C 64.940 261.459,64.400 261.269,64.400 261.379 M92.901 282.200 C 92.905 283.080,92.987 283.393,93.083 282.895 C 93.179 282.398,93.175 281.678,93.075 281.295 C 92.975 280.913,92.896 281.320,92.901 282.200 M81.293 283.600 C 81.293 284.370,81.375 284.685,81.476 284.300 C 81.576 283.915,81.576 283.285,81.476 282.900 C 81.375 282.515,81.293 282.830,81.293 283.600 M92.501 286.600 C 92.505 287.480,92.587 287.793,92.683 287.295 C 92.779 286.798,92.775 286.078,92.675 285.695 C 92.575 285.313,92.496 285.720,92.501 286.600 M80.914 289.000 C 80.917 290.100,80.995 290.503,81.087 289.895 C 81.179 289.286,81.177 288.386,81.082 287.895 C 80.987 287.403,80.911 287.900,80.914 289.000 M294.575 288.900 L 293.400 290.200 294.700 289.025 C 295.415 288.379,296.000 287.794,296.000 287.725 C 296.000 287.416,295.670 287.688,294.575 288.900 M92.114 292.200 C 92.117 293.300,92.195 293.703,92.287 293.095 C 92.379 292.486,92.377 291.586,92.282 291.095 C 92.187 290.603,92.111 291.100,92.114 292.200 M109.800 294.000 C 111.550 295.760,113.071 297.200,113.181 297.200 C 113.291 297.200,111.950 295.760,110.200 294.000 C 108.450 292.240,106.929 290.800,106.819 290.800 C 106.709 290.800,108.050 292.240,109.800 294.000 M80.524 297.000 C 80.526 298.320,80.601 298.812,80.690 298.093 C 80.779 297.374,80.777 296.294,80.686 295.693 C 80.595 295.092,80.522 295.680,80.524 297.000 M284.378 299.100 L 283.000 300.600 284.500 299.222 C 285.325 298.463,286.000 297.788,286.000 297.722 C 286.000 297.416,285.662 297.704,284.378 299.100 M91.767 300.298 C 91.799 302.525,91.836 302.602,92.905 302.649 C 93.878 302.692,93.892 302.677,93.024 302.524 C 92.142 302.369,92.022 302.121,91.886 300.173 L 91.734 297.996 91.767 300.298 M118.329 301.676 C 118.805 302.284,118.685 302.367,117.129 302.506 L 115.400 302.660 117.300 302.730 C 119.304 302.804,119.657 302.456,118.500 301.549 C 117.871 301.056,117.854 301.069,118.329 301.676 M101.280 303.098 C 103.194 303.171,106.434 303.171,108.480 303.098 C 110.526 303.026,108.960 302.966,105.000 302.965 C 101.040 302.965,99.366 303.024,101.280 303.098 M125.505 313.483 C 126.002 313.579,126.722 313.575,127.105 313.475 C 127.487 313.375,127.080 313.296,126.200 313.301 C 125.320 313.305,125.007 313.387,125.505 313.483 M119.900 313.882 C 120.395 313.978,121.205 313.978,121.700 313.882 C 122.195 313.787,121.790 313.709,120.800 313.709 C 119.810 313.709,119.405 313.787,119.900 313.882 M91.714 315.800 C 91.717 316.900,91.795 317.303,91.887 316.695 C 91.979 316.086,91.977 315.186,91.882 314.695 C 91.787 314.203,91.711 314.700,91.714 315.800 M98.311 314.293 C 99.251 314.378,100.691 314.377,101.511 314.291 C 102.330 314.205,101.560 314.136,99.800 314.137 C 98.040 314.139,97.370 314.209,98.311 314.293 M110.500 314.291 C 111.325 314.378,112.675 314.378,113.500 314.291 C 114.325 314.205,113.650 314.134,112.000 314.134 C 110.350 314.134,109.675 314.205,110.500 314.291 M80.524 319.400 C 80.526 320.720,80.601 321.212,80.690 320.493 C 80.779 319.774,80.777 318.694,80.686 318.093 C 80.595 317.492,80.522 318.080,80.524 319.400 M92.120 324.400 C 92.120 325.610,92.195 326.105,92.287 325.500 C 92.378 324.895,92.378 323.905,92.287 323.300 C 92.195 322.695,92.120 323.190,92.120 324.400 M80.920 327.600 C 80.920 328.810,80.995 329.305,81.087 328.700 C 81.178 328.095,81.178 327.105,81.087 326.500 C 80.995 325.895,80.920 326.390,80.920 327.600 M62.783 330.100 C 63.764 331.145,64.619 332.000,64.683 332.000 C 64.984 332.000,64.666 331.641,62.900 329.983 L 61.000 328.200 62.783 330.100 M92.509 330.000 C 92.509 330.990,92.587 331.395,92.682 330.900 C 92.778 330.405,92.778 329.595,92.682 329.100 C 92.587 328.605,92.509 329.010,92.509 330.000 M336.000 331.000 C 335.028 331.990,334.323 332.800,334.433 332.800 C 334.543 332.800,335.428 331.990,336.400 331.000 C 337.372 330.010,338.077 329.200,337.967 329.200 C 337.857 329.200,336.972 330.010,336.000 331.000 M186.100 330.676 C 186.485 330.776,187.115 330.776,187.500 330.676 C 187.885 330.575,187.570 330.493,186.800 330.493 C 186.030 330.493,185.715 330.575,186.100 330.676 M209.105 331.083 C 209.602 331.179,210.322 331.175,210.705 331.075 C 211.087 330.975,210.680 330.896,209.800 330.901 C 208.920 330.905,208.607 330.987,209.105 331.083 M198.713 331.495 C 199.876 331.576,201.676 331.576,202.713 331.493 C 203.751 331.411,202.800 331.345,200.600 331.346 C 198.400 331.347,197.551 331.414,198.713 331.495 M81.293 333.200 C 81.293 333.970,81.375 334.285,81.476 333.900 C 81.576 333.515,81.576 332.885,81.476 332.500 C 81.375 332.115,81.293 332.430,81.293 333.200 M92.909 335.200 C 92.909 336.190,92.987 336.595,93.082 336.100 C 93.178 335.605,93.178 334.795,93.082 334.300 C 92.987 333.805,92.909 334.210,92.909 335.200 M81.693 336.800 C 81.693 337.570,81.775 337.885,81.876 337.500 C 81.976 337.115,81.976 336.485,81.876 336.100 C 81.775 335.715,81.693 336.030,81.693 336.800 M326.400 340.600 C 325.428 341.590,324.723 342.400,324.833 342.400 C 324.943 342.400,325.828 341.590,326.800 340.600 C 327.772 339.610,328.477 338.800,328.367 338.800 C 328.257 338.800,327.372 339.610,326.400 340.600 M72.800 340.125 C 72.800 340.194,73.385 340.779,74.100 341.425 L 75.400 342.600 74.225 341.300 C 73.130 340.088,72.800 339.816,72.800 340.125 M116.400 370.579 C 116.400 370.689,116.940 371.059,117.600 371.400 C 118.260 371.741,118.800 371.931,118.800 371.821 C 118.800 371.711,118.260 371.341,117.600 371.000 C 116.940 370.659,116.400 370.469,116.400 370.579 M179.700 389.476 C 180.085 389.576,180.715 389.576,181.100 389.476 C 181.485 389.375,181.170 389.293,180.400 389.293 C 179.630 389.293,179.315 389.375,179.700 389.476 M191.105 390.283 C 191.602 390.379,192.322 390.375,192.705 390.275 C 193.087 390.175,192.680 390.096,191.800 390.101 C 190.920 390.105,190.607 390.187,191.105 390.283 M206.300 390.289 C 207.015 390.378,208.185 390.378,208.900 390.289 C 209.615 390.201,209.030 390.128,207.600 390.128 C 206.170 390.128,205.585 390.201,206.300 390.289 " stroke="none" fill="#94cd84" fill-rule="evenodd"></path><path id="path4" d="M209.178 53.900 L 207.800 55.400 209.300 54.022 C 210.696 52.738,210.984 52.400,210.678 52.400 C 210.612 52.400,209.937 53.075,209.178 53.900 M201.375 61.700 L 200.200 63.000 201.500 61.825 C 202.712 60.730,202.984 60.400,202.675 60.400 C 202.606 60.400,202.021 60.985,201.375 61.700 M194.705 78.283 C 195.202 78.379,195.922 78.375,196.305 78.275 C 196.687 78.175,196.280 78.096,195.400 78.101 C 194.520 78.105,194.207 78.187,194.705 78.283 M203.900 78.282 C 204.395 78.378,205.205 78.378,205.700 78.282 C 206.195 78.187,205.790 78.109,204.800 78.109 C 203.810 78.109,203.405 78.187,203.900 78.282 M98.900 313.876 C 99.285 313.976,99.915 313.976,100.300 313.876 C 100.685 313.775,100.370 313.693,99.600 313.693 C 98.830 313.693,98.515 313.775,98.900 313.876 M200.900 331.076 C 201.285 331.176,201.915 331.176,202.300 331.076 C 202.685 330.975,202.370 330.893,201.600 330.893 C 200.830 330.893,200.515 330.975,200.900 331.076 M194.300 390.689 C 195.015 390.778,196.185 390.778,196.900 390.689 C 197.615 390.601,197.030 390.528,195.600 390.528 C 194.170 390.528,193.585 390.601,194.300 390.689 M202.505 390.687 C 203.114 390.779,204.014 390.777,204.505 390.682 C 204.997 390.587,204.500 390.511,203.400 390.514 C 202.300 390.517,201.897 390.595,202.505 390.687 " stroke="none" fill="#c7e4c1" fill-rule="evenodd"></path><path id="path5" d="M109.505 98.683 C 110.002 98.779,110.722 98.775,111.105 98.675 C 111.487 98.575,111.080 98.496,110.200 98.501 C 109.320 98.505,109.007 98.587,109.505 98.683 M106.700 314.282 C 107.195 314.378,108.005 314.378,108.500 314.282 C 108.995 314.187,108.590 314.109,107.600 314.109 C 106.610 314.109,106.205 314.187,106.700 314.282 " stroke="none" fill="#94d48c" fill-rule="evenodd"></path><path id="path6" d="M193.700 18.676 C 194.085 18.776,194.715 18.776,195.100 18.676 C 195.485 18.575,195.170 18.493,194.400 18.493 C 193.630 18.493,193.315 18.575,193.700 18.676 M205.700 18.676 C 206.085 18.776,206.715 18.776,207.100 18.676 C 207.485 18.575,207.170 18.493,206.400 18.493 C 205.630 18.493,205.315 18.575,205.700 18.676 M205.586 57.500 L 203.400 59.800 205.700 57.614 C 207.837 55.582,208.183 55.200,207.886 55.200 C 207.824 55.200,206.789 56.235,205.586 57.500 M96.500 313.876 C 96.885 313.976,97.515 313.976,97.900 313.876 C 98.285 313.775,97.970 313.693,97.200 313.693 C 96.430 313.693,96.115 313.775,96.500 313.876 M203.505 331.083 C 204.002 331.179,204.722 331.175,205.105 331.075 C 205.487 330.975,205.080 330.896,204.200 330.901 C 203.320 330.905,203.007 330.987,203.505 331.083 M198.905 390.687 C 199.514 390.779,200.414 390.777,200.905 390.682 C 201.397 390.587,200.900 390.511,199.800 390.514 C 198.700 390.517,198.297 390.595,198.905 390.687 " stroke="none" fill="#bce4bc" fill-rule="evenodd"></path><path id="path7" d="M201.300 78.276 C 201.685 78.376,202.315 78.376,202.700 78.276 C 203.085 78.175,202.770 78.093,202.000 78.093 C 201.230 78.093,200.915 78.175,201.300 78.276 M84.148 84.400 C 84.148 86.710,84.214 87.655,84.295 86.500 C 84.376 85.345,84.376 83.455,84.295 82.300 C 84.214 81.145,84.148 82.090,84.148 84.400 M205.700 390.676 C 206.085 390.776,206.715 390.776,207.100 390.676 C 207.485 390.575,207.170 390.493,206.400 390.493 C 205.630 390.493,205.315 390.575,205.700 390.676 " stroke="none" fill="#d4eccc" fill-rule="evenodd"></path><path id="path8" d="M334.200 75.600 C 335.059 76.480,335.852 77.200,335.962 77.200 C 336.072 77.200,335.459 76.480,334.600 75.600 C 333.741 74.720,332.948 74.000,332.838 74.000 C 332.728 74.000,333.341 74.720,334.200 75.600 M68.974 84.800 C 68.974 90.410,69.030 92.705,69.099 89.900 C 69.168 87.095,69.168 82.505,69.099 79.700 C 69.030 76.895,68.974 79.190,68.974 84.800 M84.128 78.000 C 84.128 79.430,84.201 80.015,84.289 79.300 C 84.378 78.585,84.378 77.415,84.289 76.700 C 84.201 75.985,84.128 76.570,84.128 78.000 M84.134 91.200 C 84.134 92.850,84.205 93.525,84.291 92.700 C 84.378 91.875,84.378 90.525,84.291 89.700 C 84.205 88.875,84.134 89.550,84.134 91.200 M69.293 99.200 C 69.293 99.970,69.375 100.285,69.476 99.900 C 69.576 99.515,69.576 98.885,69.476 98.500 C 69.375 98.115,69.293 98.430,69.293 99.200 M107.100 99.089 C 107.815 99.178,108.985 99.178,109.700 99.089 C 110.415 99.001,109.830 98.928,108.400 98.928 C 106.970 98.928,106.385 99.001,107.100 99.089 M17.792 195.700 L 13.800 199.800 17.900 195.808 C 21.708 192.099,22.182 191.600,21.892 191.600 C 21.833 191.600,19.988 193.445,17.792 195.700 M386.172 204.600 C 386.172 209.660,386.229 211.675,386.299 209.077 C 386.369 206.480,386.368 202.340,386.298 199.877 C 386.228 197.415,386.171 199.540,386.172 204.600 M106.400 289.800 C 107.146 290.570,107.847 291.200,107.957 291.200 C 108.067 291.200,107.546 290.570,106.800 289.800 C 106.054 289.030,105.353 288.400,105.243 288.400 C 105.133 288.400,105.654 289.030,106.400 289.800 M80.909 299.200 C 80.909 300.190,80.987 300.595,81.082 300.100 C 81.178 299.605,81.178 298.795,81.082 298.300 C 80.987 297.805,80.909 298.210,80.909 299.200 M104.300 303.482 C 104.795 303.578,105.605 303.578,106.100 303.482 C 106.595 303.387,106.190 303.309,105.200 303.309 C 104.210 303.309,103.805 303.387,104.300 303.482 M104.115 313.896 C 105.388 313.976,107.368 313.975,108.515 313.894 C 109.662 313.814,108.620 313.749,106.200 313.750 C 103.780 313.751,102.842 313.816,104.115 313.896 M80.914 317.000 C 80.917 318.100,80.995 318.503,81.087 317.895 C 81.179 317.286,81.177 316.386,81.082 315.895 C 80.987 315.403,80.911 315.900,80.914 317.000 M331.578 336.300 L 330.200 337.800 331.700 336.422 C 332.525 335.663,333.200 334.988,333.200 334.922 C 333.200 334.616,332.862 334.904,331.578 336.300 M70.783 338.900 C 71.764 339.945,72.619 340.800,72.683 340.800 C 72.984 340.800,72.666 340.441,70.900 338.783 L 69.000 337.000 70.783 338.900 M190.100 390.676 C 190.485 390.776,191.115 390.776,191.500 390.676 C 191.885 390.575,191.570 390.493,190.800 390.493 C 190.030 390.493,189.715 390.575,190.100 390.676 M208.305 390.683 C 208.802 390.779,209.522 390.775,209.905 390.675 C 210.287 390.575,209.880 390.496,209.000 390.501 C 208.120 390.505,207.807 390.587,208.305 390.683 " stroke="none" fill="#d4ecd4" fill-rule="evenodd"></path></g></svg>