<svg id="svg" version="1.1" xmlns="http://www.w3.org/2000/svg" xmlns:xlink="http://www.w3.org/1999/xlink" width="400" height="419.06976744186045" viewBox="0, 0, 400,419.06976744186045"><g id="svgg"><path id="path0" d="M186.671 18.662 C 186.537 18.796,185.530 18.885,184.433 18.860 C 183.336 18.835,182.328 18.992,182.194 19.209 C 182.061 19.426,181.512 19.493,180.975 19.358 C 180.356 19.203,180.000 19.285,180.000 19.584 C 180.000 19.872,179.690 19.956,179.200 19.800 C 178.760 19.660,178.400 19.712,178.400 19.915 C 178.400 20.118,177.086 20.673,175.480 21.150 C 173.875 21.627,171.929 22.446,171.156 22.972 C 170.383 23.497,169.074 24.209,168.247 24.555 C 167.271 24.962,166.846 25.351,167.037 25.660 C 167.234 25.979,167.123 26.056,166.699 25.893 C 166.335 25.754,165.973 25.894,165.846 26.225 C 165.724 26.541,165.393 26.800,165.109 26.800 C 164.825 26.800,164.371 27.155,164.100 27.589 C 163.811 28.051,163.357 28.282,163.004 28.146 C 162.620 27.999,162.400 28.148,162.400 28.557 C 162.400 28.911,162.132 29.200,161.803 29.200 C 161.475 29.200,160.982 29.560,160.707 30.000 C 160.432 30.440,159.891 30.800,159.504 30.800 C 159.117 30.800,158.800 31.052,158.800 31.361 C 158.800 31.669,158.260 32.110,157.600 32.340 C 156.940 32.570,156.400 33.038,156.400 33.379 C 156.400 33.930,156.166 34.065,155.369 33.974 C 155.242 33.959,154.742 34.409,154.257 34.974 C 153.771 35.538,153.157 36.000,152.891 36.000 C 152.625 36.000,152.182 36.360,151.907 36.800 C 151.632 37.240,151.182 37.600,150.907 37.600 C 150.632 37.600,150.182 37.960,149.907 38.400 C 149.632 38.840,149.091 39.200,148.704 39.200 C 148.317 39.200,148.000 39.449,148.000 39.753 C 148.000 40.058,147.685 40.422,147.300 40.563 C 145.939 41.062,144.400 42.049,144.400 42.422 C 144.400 42.630,144.265 42.779,144.100 42.753 C 143.332 42.631,142.774 42.834,142.976 43.161 C 143.099 43.360,142.659 43.710,142.000 43.940 C 141.340 44.170,140.800 44.578,140.800 44.846 C 140.800 45.114,140.689 45.222,140.552 45.086 C 140.416 44.950,140.033 45.110,139.701 45.442 C 139.369 45.774,138.850 45.951,138.548 45.836 C 138.247 45.720,138.000 45.780,138.000 45.969 C 138.000 46.244,135.244 47.627,134.400 47.777 C 134.290 47.796,133.975 47.955,133.700 48.130 C 133.425 48.304,133.035 48.345,132.834 48.221 C 132.633 48.097,132.377 48.221,132.265 48.498 C 132.104 48.894,131.982 48.888,131.689 48.470 C 131.389 48.044,131.174 48.083,130.586 48.670 C 129.630 49.625,111.792 49.759,111.210 48.816 C 110.971 48.430,110.365 48.351,109.039 48.533 C 107.805 48.702,107.200 48.638,107.200 48.340 C 107.200 48.056,106.698 47.977,105.807 48.121 C 105.021 48.249,104.303 48.166,104.157 47.931 C 104.006 47.686,103.269 47.615,102.374 47.758 C 101.508 47.896,100.741 47.828,100.601 47.601 C 100.274 47.073,92.125 47.074,91.799 47.601 C 91.663 47.822,91.132 47.898,90.619 47.769 C 90.107 47.640,89.562 47.737,89.410 47.984 C 89.257 48.231,88.788 48.323,88.366 48.189 C 87.919 48.047,87.600 48.135,87.600 48.400 C 87.600 48.672,87.279 48.752,86.800 48.600 C 86.360 48.460,86.000 48.504,86.000 48.697 C 86.000 48.891,85.100 49.279,84.000 49.561 C 82.900 49.843,82.000 50.210,82.000 50.376 C 82.000 50.542,81.421 50.695,80.712 50.715 C 80.004 50.735,79.239 50.999,79.012 51.301 C 78.786 51.603,77.746 52.199,76.701 52.625 C 75.657 53.051,74.802 53.546,74.801 53.724 C 74.801 53.902,74.620 53.936,74.400 53.800 C 74.180 53.664,74.000 53.729,74.000 53.944 C 74.000 54.160,73.129 54.625,72.064 54.979 C 70.999 55.333,69.758 55.966,69.306 56.387 C 68.855 56.808,68.376 57.043,68.243 56.909 C 68.109 56.776,68.000 56.877,68.000 57.133 C 68.000 57.390,67.764 57.600,67.475 57.600 C 67.187 57.600,66.598 57.929,66.167 58.330 C 65.736 58.732,65.162 58.987,64.892 58.897 C 64.621 58.807,64.291 59.017,64.158 59.364 C 64.025 59.711,63.755 59.896,63.558 59.774 C 63.361 59.652,63.200 59.758,63.200 60.010 C 63.200 60.261,62.982 60.394,62.715 60.305 C 62.448 60.216,61.863 60.534,61.415 61.011 C 60.967 61.488,60.375 61.801,60.100 61.706 C 59.825 61.611,59.600 61.838,59.600 62.209 C 59.600 62.654,59.389 62.805,58.985 62.650 C 58.642 62.518,58.274 62.664,58.153 62.979 C 58.033 63.290,57.410 63.727,56.768 63.951 C 56.126 64.175,55.600 64.558,55.600 64.803 C 55.600 65.047,55.419 65.135,55.197 64.998 C 54.976 64.861,54.693 65.014,54.568 65.338 C 54.444 65.662,53.815 66.145,53.171 66.412 C 52.527 66.679,52.000 67.050,52.000 67.236 C 52.000 67.422,51.730 67.471,51.400 67.345 C 51.010 67.195,50.800 67.355,50.800 67.800 C 50.800 68.253,50.591 68.405,50.185 68.250 C 49.835 68.115,49.472 68.269,49.342 68.607 C 49.217 68.933,48.834 69.200,48.491 69.200 C 48.147 69.200,47.973 69.306,48.103 69.436 C 48.233 69.566,50.378 69.032,52.869 68.250 C 81.203 59.354,91.724 62.418,97.328 81.200 C 102.698 99.196,99.432 116.367,85.268 144.600 C 74.288 166.485,72.516 179.675,78.766 193.000 C 94.500 226.542,143.227 222.187,152.610 186.400 C 155.698 174.625,153.395 163.933,143.526 144.226 C 134.060 125.325,132.607 120.927,132.612 111.200 C 132.631 74.000,169.982 55.644,192.434 81.800 C 202.688 93.747,206.884 108.624,206.930 133.200 C 206.980 160.154,201.883 177.310,185.004 207.000 C 170.917 231.778,167.536 241.707,167.505 258.400 C 167.420 302.909,215.427 329.894,253.947 306.990 C 279.209 291.969,287.888 261.243,275.588 230.371 C 273.229 224.448,269.658 217.597,262.052 204.400 C 246.534 177.476,241.093 157.605,241.734 130.200 C 242.373 102.877,247.660 88.594,261.765 76.086 C 277.884 61.793,298.949 57.222,324.147 62.550 C 334.207 64.677,333.817 64.628,332.900 63.663 C 332.515 63.258,332.077 62.991,331.928 63.070 C 331.778 63.149,331.167 62.760,330.569 62.207 C 329.972 61.653,329.234 61.200,328.929 61.200 C 328.624 61.200,328.272 60.931,328.146 60.602 C 328.019 60.274,327.755 60.104,327.558 60.226 C 327.361 60.348,327.200 60.270,327.200 60.053 C 327.200 59.836,326.705 59.409,326.100 59.103 C 324.279 58.183,323.084 57.438,322.245 56.700 C 321.807 56.315,321.213 56.000,320.925 56.000 C 320.636 56.000,320.400 55.820,320.400 55.600 C 320.400 55.380,320.128 55.200,319.796 55.200 C 319.464 55.200,318.897 54.856,318.537 54.435 C 318.177 54.014,317.639 53.764,317.341 53.878 C 317.044 53.992,316.800 53.918,316.800 53.714 C 316.800 53.312,313.606 51.600,312.856 51.600 C 312.605 51.600,312.400 51.409,312.400 51.176 C 312.400 50.943,312.220 50.864,312.000 51.000 C 311.780 51.136,311.600 51.071,311.600 50.857 C 311.600 50.642,310.790 50.157,309.800 49.779 C 308.810 49.401,308.000 48.925,308.000 48.722 C 308.000 48.519,307.835 48.455,307.634 48.579 C 307.433 48.703,307.205 48.616,307.128 48.385 C 307.051 48.154,306.586 47.934,306.094 47.897 C 305.602 47.860,305.200 47.711,305.200 47.567 C 305.200 47.422,304.390 47.077,303.400 46.800 C 302.410 46.523,301.600 46.145,301.600 45.961 C 301.600 45.776,301.330 45.729,301.000 45.855 C 300.670 45.982,300.400 45.867,300.400 45.600 C 300.400 45.333,300.152 45.210,299.849 45.326 C 299.546 45.442,299.141 45.381,298.949 45.189 C 297.663 43.903,284.800 43.961,284.800 45.253 C 284.800 45.452,284.350 45.502,283.800 45.364 C 283.158 45.203,282.800 45.282,282.800 45.584 C 282.800 45.872,282.490 45.956,282.000 45.800 C 281.560 45.660,281.200 45.705,281.200 45.900 C 281.200 46.094,279.985 46.490,278.500 46.779 C 277.015 47.068,275.627 47.406,275.415 47.529 C 275.203 47.652,274.398 47.817,273.626 47.897 C 272.854 47.976,272.104 48.232,271.959 48.466 C 271.784 48.750,271.642 48.725,271.531 48.392 C 271.404 48.013,271.223 48.034,270.779 48.478 C 270.457 48.800,268.485 49.387,266.397 49.784 C 264.309 50.180,262.439 50.651,262.242 50.831 C 262.045 51.010,261.370 51.054,260.742 50.928 C 260.022 50.784,259.600 50.868,259.600 51.155 C 259.600 51.461,259.078 51.526,258.000 51.354 C 256.928 51.182,256.400 51.247,256.400 51.549 C 256.400 51.864,254.535 52.000,250.200 52.000 C 245.902 52.000,244.000 51.863,244.000 51.553 C 244.000 51.293,243.584 51.186,243.000 51.298 C 242.450 51.403,242.000 51.322,242.000 51.118 C 242.000 50.913,241.640 50.860,241.200 51.000 C 240.728 51.150,240.400 51.072,240.400 50.809 C 240.400 50.565,240.175 50.404,239.900 50.451 C 239.101 50.588,236.083 49.192,235.846 48.576 C 235.726 48.263,235.357 48.118,235.015 48.250 C 234.677 48.379,234.400 48.282,234.400 48.034 C 234.400 47.786,233.950 47.378,233.400 47.127 C 232.850 46.877,232.400 46.461,232.400 46.204 C 232.400 45.946,231.590 45.154,230.600 44.443 C 228.946 43.255,228.605 42.778,228.763 41.870 C 228.794 41.689,228.662 41.638,228.468 41.758 C 228.275 41.878,227.699 41.531,227.188 40.988 C 226.678 40.444,226.404 40.000,226.579 40.000 C 226.755 40.000,226.676 39.732,226.404 39.404 C 226.132 39.077,225.776 38.891,225.613 38.992 C 225.450 39.093,224.899 38.731,224.388 38.188 C 223.878 37.644,223.604 37.200,223.779 37.200 C 223.955 37.200,223.876 36.932,223.604 36.604 C 223.332 36.277,222.938 36.114,222.729 36.244 C 222.257 36.536,220.800 35.261,220.800 34.555 C 220.800 34.268,220.006 33.569,219.036 33.000 C 218.066 32.432,217.171 31.701,217.047 31.377 C 216.922 31.053,216.366 30.615,215.810 30.404 C 215.255 30.193,214.800 29.835,214.800 29.610 C 214.800 29.384,214.539 29.200,214.220 29.200 C 213.901 29.200,213.487 28.927,213.300 28.593 C 212.955 27.976,210.778 26.573,209.500 26.142 C 209.115 26.013,208.800 25.638,208.800 25.311 C 208.800 24.945,208.568 24.803,208.200 24.945 C 207.870 25.071,207.600 25.028,207.600 24.848 C 207.600 24.669,206.880 24.197,206.000 23.800 C 205.120 23.403,204.400 22.947,204.400 22.786 C 204.400 22.626,202.825 21.996,200.900 21.386 C 198.975 20.777,197.287 20.107,197.150 19.897 C 197.012 19.686,196.517 19.636,196.050 19.784 C 195.512 19.955,195.200 19.881,195.200 19.584 C 195.200 19.286,194.845 19.202,194.233 19.356 C 193.701 19.489,193.206 19.446,193.133 19.260 C 192.976 18.860,187.024 18.309,186.671 18.662 " stroke="none" fill="#fb8432" fill-rule="evenodd"></path><path id="path1" d="M293.963 61.394 C 268.864 65.445,248.948 83.725,244.420 106.865 C 243.975 109.139,243.426 111.900,243.199 113.000 C 242.087 118.398,241.647 136.460,242.400 145.800 C 243.955 165.093,251.202 185.946,263.182 205.600 C 285.151 241.640,287.537 269.350,270.647 292.294 C 242.482 330.553,180.635 319.185,168.858 273.584 C 163.586 253.171,167.253 237.414,184.213 207.600 C 185.277 205.730,186.459 203.607,186.840 202.882 C 187.221 202.157,187.709 201.347,187.924 201.082 C 188.426 200.464,194.665 188.130,196.064 184.989 C 201.100 173.681,204.967 158.806,206.028 146.658 C 206.558 140.593,206.286 118.880,205.627 114.600 C 200.849 83.597,182.581 66.129,160.000 70.971 C 140.579 75.136,127.929 101.630,134.871 123.600 C 136.303 128.132,138.081 132.113,144.610 145.400 C 147.313 150.900,149.922 156.570,150.410 158.000 C 150.897 159.430,151.530 161.140,151.817 161.800 C 153.885 166.558,154.602 181.226,153.047 186.972 C 150.887 194.957,143.991 205.112,138.441 208.482 C 137.649 208.964,136.904 209.494,136.787 209.661 C 136.150 210.570,129.997 213.443,126.000 214.698 C 115.147 218.105,99.344 215.641,91.904 209.381 C 91.263 208.841,90.599 208.400,90.429 208.400 C 89.984 208.400,84.043 202.486,82.452 200.457 C 80.866 198.436,77.200 191.387,77.200 190.359 C 77.200 189.968,77.031 189.543,76.826 189.416 C 75.263 188.450,74.380 174.360,75.507 168.361 C 76.026 165.595,78.748 156.775,79.506 155.400 C 79.749 154.960,80.951 152.440,82.177 149.800 C 83.403 147.160,84.569 144.730,84.767 144.400 C 86.022 142.306,90.973 131.988,92.828 127.600 C 98.560 114.036,100.931 86.462,96.834 81.003 C 96.668 80.781,96.049 79.213,95.459 77.518 C 91.397 65.848,82.183 61.759,67.200 64.977 C 61.754 66.147,51.485 68.848,51.200 69.185 C 50.816 69.639,46.390 70.841,45.997 70.598 C 45.778 70.463,45.600 70.507,45.600 70.696 C 45.600 71.027,42.762 72.224,42.445 72.028 C 42.359 71.975,42.171 72.123,42.027 72.356 C 41.883 72.589,41.323 72.830,40.783 72.890 C 40.242 72.951,39.710 73.101,39.600 73.225 C 39.490 73.349,37.870 74.231,36.000 75.184 C 31.453 77.503,28.460 79.866,26.237 82.894 C 25.225 84.272,24.263 85.580,24.099 85.800 C 23.934 86.020,23.782 86.425,23.760 86.700 C 23.738 86.975,23.693 87.560,23.660 88.000 C 23.626 88.458,23.301 88.813,22.900 88.832 C 22.515 88.849,22.406 88.948,22.658 89.051 C 23.115 89.238,22.932 90.800,22.453 90.800 C 22.314 90.800,22.200 93.230,22.200 96.200 C 22.200 99.170,22.315 101.600,22.457 101.600 C 22.977 101.600,23.224 103.689,22.768 104.238 C 22.398 104.684,22.445 104.800,22.995 104.800 C 23.550 104.800,23.655 105.076,23.525 106.194 C 23.435 106.960,23.473 107.635,23.608 107.694 C 23.810 107.781,25.440 117.247,25.765 120.220 C 25.814 120.671,25.994 121.267,26.165 121.543 C 26.336 121.819,26.365 122.485,26.230 123.023 C 26.076 123.635,26.157 124.000,26.445 124.000 C 26.747 124.000,26.827 124.480,26.677 125.400 C 26.537 126.268,26.613 126.800,26.877 126.800 C 27.141 126.800,27.219 127.328,27.081 128.176 C 26.958 128.933,27.022 129.608,27.222 129.676 C 27.422 129.744,27.634 130.970,27.693 132.400 C 27.752 133.830,27.911 135.090,28.046 135.200 C 28.548 135.608,28.851 137.200,28.427 137.200 C 28.192 137.200,28.000 137.380,28.000 137.600 C 28.000 137.820,28.294 138.000,28.652 138.000 C 29.174 138.000,29.259 138.279,29.077 139.400 C 28.943 140.228,29.016 140.800,29.255 140.800 C 29.478 140.800,29.621 141.295,29.573 141.900 C 29.525 142.505,29.621 143.318,29.788 143.706 C 29.954 144.094,29.997 144.769,29.883 145.206 C 29.768 145.643,29.858 146.000,30.081 146.000 C 30.310 146.000,30.416 146.612,30.324 147.400 C 30.234 148.170,30.324 148.800,30.524 148.800 C 30.724 148.800,30.814 149.430,30.724 150.200 C 30.634 150.970,30.724 151.600,30.924 151.600 C 31.124 151.600,31.215 152.225,31.125 152.989 C 31.015 153.931,31.144 154.447,31.526 154.593 C 31.897 154.735,32.030 155.217,31.914 156.005 C 31.818 156.662,31.907 157.200,32.113 157.200 C 32.319 157.200,32.414 157.830,32.324 158.600 C 32.234 159.370,32.270 160.000,32.405 160.000 C 32.539 160.000,32.979 162.385,33.383 165.300 C 33.788 168.215,34.276 170.912,34.470 171.294 C 34.663 171.675,34.862 172.979,34.911 174.190 C 34.960 175.402,35.155 176.395,35.344 176.397 C 35.533 176.398,35.614 177.030,35.524 177.800 C 35.434 178.570,35.524 179.200,35.724 179.200 C 35.924 179.200,36.014 179.830,35.924 180.600 C 35.834 181.370,35.924 182.000,36.124 182.000 C 36.324 182.000,36.414 182.630,36.324 183.400 C 36.234 184.170,36.324 184.800,36.524 184.800 C 36.724 184.800,36.815 185.417,36.727 186.172 C 36.639 186.927,36.704 187.459,36.872 187.356 C 37.436 187.007,37.706 189.190,37.177 189.828 C 36.757 190.333,36.763 190.423,37.208 190.323 C 37.700 190.212,39.881 201.685,40.131 205.700 C 40.169 206.305,40.355 206.800,40.544 206.800 C 40.733 206.800,40.814 207.430,40.724 208.200 C 40.634 208.970,40.724 209.600,40.924 209.600 C 41.124 209.600,41.214 210.230,41.124 211.000 C 41.034 211.770,41.124 212.400,41.324 212.400 C 41.524 212.400,41.614 213.030,41.524 213.800 C 41.434 214.570,41.528 215.200,41.733 215.200 C 41.937 215.200,42.002 215.830,41.877 216.600 C 41.737 217.468,41.813 218.000,42.077 218.000 C 42.342 218.000,42.418 218.532,42.277 219.400 C 42.153 220.170,42.198 220.800,42.378 220.800 C 42.859 220.800,43.188 222.360,42.762 222.623 C 42.169 222.990,42.350 223.600,43.052 223.600 C 43.574 223.600,43.659 223.879,43.477 225.000 C 43.339 225.856,43.414 226.400,43.671 226.400 C 43.910 226.400,44.015 226.916,43.915 227.600 C 43.818 228.260,43.907 228.800,44.113 228.800 C 44.319 228.800,44.414 229.430,44.324 230.200 C 44.234 230.970,44.324 231.600,44.524 231.600 C 44.724 231.600,44.814 232.230,44.724 233.000 C 44.634 233.770,44.724 234.400,44.924 234.400 C 45.124 234.400,45.214 235.030,45.124 235.800 C 45.034 236.570,45.084 237.200,45.234 237.200 C 45.726 237.200,45.891 239.148,45.441 239.638 C 45.115 239.992,45.128 240.045,45.488 239.842 C 45.794 239.670,46.057 239.910,46.191 240.484 C 46.378 241.287,48.375 254.002,48.566 255.607 C 48.605 255.941,48.781 256.446,48.957 256.730 C 49.132 257.013,49.165 257.685,49.030 258.223 C 48.878 258.827,48.957 259.200,49.236 259.200 C 49.516 259.200,49.626 259.731,49.524 260.600 C 49.434 261.370,49.524 262.000,49.724 262.000 C 49.924 262.000,50.014 262.630,49.924 263.400 C 49.834 264.170,49.924 264.800,50.124 264.800 C 50.324 264.800,50.414 265.427,50.325 266.194 C 50.235 266.960,50.305 267.635,50.480 267.694 C 50.655 267.752,50.844 268.996,50.899 270.457 C 50.955 271.918,51.130 273.036,51.288 272.940 C 51.670 272.711,52.144 274.643,51.831 275.150 C 51.697 275.367,51.782 275.665,52.019 275.812 C 52.257 275.959,52.414 276.556,52.369 277.140 C 52.323 277.723,52.421 278.518,52.588 278.906 C 52.754 279.294,52.797 279.969,52.683 280.406 C 52.568 280.843,52.658 281.200,52.881 281.200 C 53.110 281.200,53.216 281.812,53.124 282.600 C 53.034 283.370,53.124 284.000,53.324 284.000 C 53.524 284.000,53.614 284.630,53.524 285.400 C 53.434 286.170,53.524 286.800,53.724 286.800 C 53.924 286.800,54.017 287.402,53.931 288.137 C 53.842 288.901,53.995 289.680,54.288 289.953 C 54.933 290.556,54.959 292.000,54.324 292.000 C 54.061 292.000,54.178 292.242,54.582 292.537 C 55.093 292.911,55.255 293.399,55.114 294.137 C 55.002 294.722,55.086 295.200,55.299 295.200 C 55.513 295.200,55.614 295.827,55.525 296.594 C 55.435 297.360,55.511 298.037,55.694 298.098 C 55.876 298.159,56.065 299.421,56.113 300.903 C 56.161 302.385,56.355 303.598,56.545 303.599 C 56.735 303.599,56.816 304.108,56.725 304.730 C 56.634 305.351,56.793 306.078,57.080 306.345 C 57.743 306.965,57.757 308.396,57.100 308.412 C 56.825 308.419,56.927 308.614,57.327 308.847 C 57.785 309.114,58.022 309.662,57.969 310.335 C 57.923 310.921,58.021 311.718,58.188 312.106 C 58.354 312.494,58.397 313.169,58.283 313.606 C 58.168 314.043,58.258 314.400,58.481 314.400 C 58.710 314.400,58.816 315.012,58.724 315.800 C 58.634 316.570,58.724 317.200,58.924 317.200 C 59.124 317.200,59.214 317.830,59.124 318.600 C 59.034 319.370,59.104 320.000,59.280 320.000 C 59.456 320.000,59.600 320.423,59.600 320.940 C 59.600 321.457,59.799 322.451,60.042 323.149 C 60.387 324.139,60.365 324.563,59.942 325.085 C 59.627 325.473,59.598 325.635,59.871 325.471 C 60.502 325.093,60.581 325.433,61.825 333.800 C 62.413 337.760,62.923 341.180,62.959 341.400 C 62.994 341.620,63.169 342.035,63.349 342.323 C 63.528 342.610,63.565 343.285,63.430 343.823 C 63.276 344.435,63.357 344.800,63.645 344.800 C 63.947 344.800,64.027 345.280,63.877 346.200 C 63.737 347.068,63.813 347.600,64.077 347.600 C 64.342 347.600,64.418 348.132,64.277 349.000 C 64.139 349.856,64.214 350.400,64.471 350.400 C 64.710 350.400,64.815 350.916,64.715 351.600 C 64.618 352.260,64.707 352.800,64.913 352.800 C 65.119 352.800,65.214 353.430,65.124 354.200 C 65.034 354.970,65.125 355.600,65.326 355.600 C 65.527 355.600,65.613 356.129,65.518 356.776 C 65.416 357.475,65.519 357.921,65.773 357.876 C 66.008 357.834,66.212 358.250,66.227 358.800 C 66.243 359.350,66.404 360.135,66.587 360.544 C 66.770 360.953,66.937 361.808,66.960 362.443 C 66.982 363.078,67.112 363.599,67.250 363.599 C 67.388 363.600,67.609 364.146,67.743 364.814 C 68.087 366.534,70.791 372.783,71.775 374.131 C 74.418 377.752,76.784 379.898,80.746 382.270 C 81.546 382.748,82.380 383.295,82.600 383.485 C 82.820 383.674,83.585 384.070,84.300 384.363 C 85.015 384.657,85.600 385.066,85.600 385.272 C 85.600 385.478,85.771 385.542,85.979 385.413 C 86.188 385.284,87.266 385.616,88.376 386.151 C 89.485 386.686,91.294 387.355,92.396 387.638 C 93.498 387.920,94.400 388.308,94.400 388.499 C 94.400 388.691,94.571 388.742,94.779 388.613 C 95.226 388.337,98.828 389.152,99.380 389.654 C 99.589 389.844,100.185 390.000,100.704 390.000 C 101.223 390.000,101.552 390.154,101.436 390.342 C 101.319 390.530,101.669 390.599,102.212 390.496 C 102.755 390.392,103.200 390.483,103.200 390.698 C 103.200 390.913,103.650 391.003,104.200 390.898 C 104.808 390.782,105.200 390.891,105.200 391.177 C 105.200 391.436,105.366 391.545,105.568 391.419 C 106.333 390.947,111.600 392.135,111.606 392.781 C 111.611 393.281,111.678 393.296,111.956 392.857 C 112.320 392.283,114.000 392.566,114.000 393.202 C 114.000 393.393,114.630 393.447,115.400 393.323 C 116.184 393.195,116.800 393.264,116.800 393.478 C 116.800 393.689,117.340 393.782,118.000 393.685 C 118.684 393.585,119.200 393.690,119.200 393.929 C 119.200 394.186,119.744 394.261,120.600 394.123 C 121.520 393.973,122.000 394.053,122.000 394.355 C 122.000 394.646,122.367 394.723,122.999 394.564 C 123.549 394.427,124.314 394.443,124.699 394.602 C 125.085 394.760,125.940 394.938,126.600 394.996 C 129.521 395.255,131.406 395.619,131.515 395.945 C 131.580 396.139,132.435 396.208,133.416 396.097 C 134.397 395.986,135.200 396.054,135.200 396.248 C 135.200 396.442,136.100 396.538,137.200 396.461 C 138.300 396.385,139.200 396.494,139.200 396.703 C 139.200 396.918,140.069 396.999,141.200 396.890 C 142.400 396.775,143.200 396.859,143.200 397.100 C 143.200 397.339,143.922 397.420,144.981 397.301 C 145.961 397.191,147.086 397.242,147.481 397.415 C 147.877 397.588,149.136 397.685,150.280 397.629 C 151.425 397.574,152.595 397.673,152.880 397.850 C 153.166 398.027,154.660 398.222,156.199 398.284 C 157.739 398.345,159.048 398.544,159.109 398.726 C 159.169 398.907,160.744 398.976,162.609 398.878 C 164.561 398.775,166.000 398.858,166.000 399.072 C 166.000 399.290,167.985 399.373,170.800 399.273 C 173.550 399.174,175.600 399.257,175.600 399.466 C 175.600 399.680,179.246 399.763,184.400 399.667 C 190.731 399.549,193.200 399.629,193.200 399.952 C 193.200 400.265,195.244 400.400,200.000 400.400 C 204.756 400.400,206.800 400.265,206.800 399.952 C 206.800 399.629,209.269 399.549,215.600 399.667 C 220.637 399.761,224.400 399.678,224.400 399.473 C 224.400 399.276,226.425 399.165,228.900 399.226 C 231.375 399.288,233.730 399.192,234.133 399.014 C 234.535 398.835,236.190 398.790,237.810 398.912 C 239.474 399.038,240.809 398.974,240.878 398.765 C 240.946 398.562,242.261 398.333,243.801 398.256 C 245.340 398.179,246.927 397.976,247.326 397.806 C 247.725 397.635,248.935 397.599,250.015 397.727 C 251.230 397.871,252.079 397.796,252.244 397.530 C 252.409 397.262,253.321 397.183,254.655 397.321 C 255.996 397.459,256.800 397.389,256.800 397.132 C 256.800 396.889,257.612 396.779,258.800 396.861 C 259.900 396.938,260.800 396.842,260.800 396.649 C 260.800 396.456,261.700 396.385,262.800 396.490 C 263.974 396.603,264.800 396.520,264.800 396.289 C 264.800 396.060,265.550 395.980,266.600 396.099 C 267.590 396.210,268.400 396.162,268.400 395.991 C 268.400 395.703,270.561 395.308,273.400 395.078 C 274.060 395.025,274.828 394.838,275.107 394.663 C 275.385 394.488,276.015 394.384,276.507 394.432 C 276.998 394.480,277.670 394.411,278.000 394.280 C 279.102 393.841,284.785 393.143,285.195 393.397 C 285.418 393.535,285.600 393.436,285.600 393.178 C 285.600 392.885,286.047 392.775,286.790 392.884 C 287.445 392.980,288.042 392.873,288.118 392.646 C 288.194 392.419,288.702 392.213,289.248 392.189 C 289.794 392.165,290.462 392.009,290.732 391.842 C 291.003 391.675,292.029 391.507,293.012 391.469 C 293.995 391.431,294.800 391.244,294.800 391.053 C 294.800 390.863,295.250 390.793,295.800 390.898 C 296.350 391.003,296.800 390.950,296.800 390.780 C 296.800 390.610,297.547 390.344,298.459 390.190 C 299.372 390.036,300.712 389.662,301.437 389.359 C 302.162 389.056,303.035 388.915,303.378 389.047 C 303.732 389.183,304.000 389.075,304.000 388.796 C 304.000 388.508,304.321 388.391,304.781 388.511 C 305.210 388.623,305.615 388.567,305.681 388.385 C 305.746 388.204,306.340 387.998,307.000 387.928 C 307.660 387.858,308.290 387.706,308.400 387.591 C 308.878 387.093,313.735 385.236,314.051 385.432 C 314.243 385.550,314.400 385.478,314.400 385.272 C 314.400 385.066,314.985 384.660,315.700 384.371 C 316.415 384.082,317.090 383.724,317.200 383.576 C 317.310 383.429,318.141 382.932,319.047 382.473 C 319.952 382.014,321.232 381.185,321.891 380.630 C 322.550 380.076,323.159 379.662,323.244 379.711 C 323.330 379.760,324.232 378.945,325.248 377.900 C 326.265 376.855,327.027 376.000,326.942 376.000 C 326.857 376.000,327.422 375.076,328.199 373.947 C 328.976 372.817,329.718 371.467,329.849 370.947 C 329.980 370.426,330.217 370.000,330.377 370.000 C 330.536 370.000,330.687 369.775,330.711 369.500 C 330.736 369.225,331.120 368.010,331.565 366.800 C 332.010 365.590,332.380 364.285,332.387 363.900 C 332.394 363.515,332.574 363.200,332.787 363.200 C 333.001 363.200,333.075 362.939,332.952 362.619 C 332.829 362.300,332.872 361.808,333.046 361.526 C 333.220 361.245,333.401 360.741,333.448 360.407 C 333.679 358.763,334.078 357.389,334.353 357.290 C 334.521 357.230,334.580 356.645,334.484 355.990 C 334.388 355.334,334.492 354.800,334.717 354.800 C 334.942 354.800,335.032 354.443,334.917 354.006 C 334.803 353.569,334.847 352.894,335.014 352.506 C 335.182 352.118,335.280 351.398,335.232 350.907 C 335.184 350.415,335.285 349.785,335.458 349.507 C 335.630 349.228,335.719 348.505,335.655 347.900 C 335.592 347.295,335.737 346.800,335.977 346.800 C 336.242 346.800,336.318 346.413,336.170 345.823 C 336.035 345.285,336.073 344.610,336.255 344.323 C 336.437 344.035,336.614 343.266,336.650 342.614 C 336.686 341.962,336.901 341.366,337.129 341.290 C 337.367 341.211,337.447 340.569,337.319 339.776 C 337.181 338.928,337.259 338.400,337.523 338.400 C 337.787 338.400,337.863 337.868,337.723 337.000 C 337.598 336.230,337.663 335.600,337.867 335.600 C 338.072 335.600,338.166 334.970,338.076 334.200 C 337.984 333.412,338.090 332.800,338.319 332.800 C 338.542 332.800,338.632 332.443,338.517 332.006 C 338.403 331.569,338.442 330.894,338.603 330.506 C 338.764 330.118,338.948 329.350,339.012 328.800 C 339.076 328.250,339.218 327.260,339.327 326.600 C 339.437 325.940,339.827 323.510,340.196 321.200 C 340.564 318.890,340.968 316.730,341.092 316.400 C 341.217 316.070,341.282 315.412,341.236 314.938 C 341.190 314.464,341.337 313.962,341.563 313.823 C 341.789 313.683,341.872 313.058,341.747 312.433 C 341.618 311.791,341.711 311.178,341.961 311.024 C 342.204 310.874,342.298 310.333,342.170 309.821 C 342.033 309.275,342.161 308.681,342.480 308.383 C 342.804 308.080,342.962 307.333,342.869 306.537 C 342.783 305.802,342.876 305.200,343.076 305.200 C 343.276 305.200,343.366 304.570,343.276 303.800 C 343.184 303.012,343.290 302.400,343.519 302.400 C 343.742 302.400,343.832 302.043,343.717 301.606 C 343.603 301.169,343.646 300.494,343.812 300.106 C 343.979 299.718,344.077 298.923,344.031 298.340 C 343.986 297.756,344.132 297.166,344.357 297.027 C 344.581 296.888,344.664 296.510,344.540 296.187 C 344.416 295.864,344.445 295.285,344.605 294.900 C 344.765 294.515,344.920 293.675,344.949 293.033 C 344.978 292.391,345.190 291.803,345.420 291.727 C 345.650 291.650,345.765 290.960,345.675 290.194 C 345.586 289.427,345.676 288.800,345.876 288.800 C 346.076 288.800,346.166 288.170,346.076 287.400 C 345.986 286.630,346.076 286.000,346.276 286.000 C 346.476 286.000,346.566 285.370,346.476 284.600 C 346.384 283.812,346.490 283.200,346.719 283.200 C 346.942 283.200,347.032 282.843,346.917 282.406 C 346.803 281.969,346.846 281.294,347.012 280.906 C 347.179 280.518,347.277 279.723,347.231 279.140 C 347.186 278.556,347.316 277.976,347.520 277.849 C 347.725 277.723,347.811 277.193,347.712 276.673 C 347.608 276.127,347.801 275.456,348.169 275.089 C 348.519 274.738,348.642 274.349,348.441 274.225 C 348.013 273.961,348.339 272.400,348.822 272.400 C 349.002 272.400,349.047 271.770,348.923 271.000 C 348.782 270.132,348.858 269.600,349.123 269.600 C 349.387 269.600,349.463 269.068,349.323 268.200 C 349.182 267.332,349.258 266.800,349.523 266.800 C 349.787 266.800,349.863 266.268,349.723 265.400 C 349.578 264.507,349.656 264.000,349.938 264.000 C 350.212 264.000,350.292 263.562,350.150 262.849 C 350.022 262.209,350.109 261.580,350.347 261.433 C 350.582 261.288,350.672 260.659,350.547 260.033 C 350.418 259.392,350.511 258.778,350.760 258.625 C 351.002 258.475,351.200 257.733,351.200 256.976 C 351.200 256.219,351.392 255.600,351.627 255.600 C 351.863 255.600,351.947 255.264,351.816 254.849 C 351.581 254.110,352.219 248.771,352.682 247.600 C 352.812 247.270,352.880 246.598,352.832 246.107 C 352.784 245.615,352.877 244.999,353.039 244.737 C 353.201 244.476,353.374 243.798,353.423 243.231 C 353.581 241.436,354.062 239.404,354.355 239.294 C 354.511 239.235,354.565 238.560,354.475 237.794 C 354.386 237.027,354.476 236.400,354.676 236.400 C 354.876 236.400,354.966 235.770,354.876 235.000 C 354.786 234.230,354.876 233.600,355.076 233.600 C 355.276 233.600,355.366 232.970,355.276 232.200 C 355.184 231.412,355.290 230.800,355.519 230.800 C 355.742 230.800,355.832 230.443,355.717 230.006 C 355.603 229.569,355.646 228.894,355.812 228.506 C 355.979 228.118,356.077 227.323,356.031 226.740 C 355.986 226.156,356.140 225.560,356.375 225.415 C 356.611 225.270,356.698 224.733,356.570 224.221 C 356.432 223.671,356.562 223.080,356.888 222.775 C 357.203 222.481,357.369 221.773,357.275 221.130 C 357.176 220.457,357.293 220.000,357.562 220.000 C 357.846 220.000,357.921 219.626,357.764 219.001 C 357.627 218.451,357.649 217.686,357.814 217.301 C 357.980 216.915,358.075 216.105,358.027 215.500 C 357.979 214.895,358.122 214.400,358.345 214.400 C 358.584 214.400,358.657 213.828,358.523 213.000 C 358.385 212.154,358.459 211.600,358.710 211.600 C 358.938 211.600,359.032 211.243,358.917 210.806 C 358.803 210.369,358.842 209.694,359.003 209.306 C 359.164 208.918,359.320 208.075,359.349 207.433 C 359.378 206.791,359.590 206.203,359.820 206.127 C 360.050 206.050,360.165 205.360,360.075 204.594 C 359.986 203.827,360.076 203.200,360.276 203.200 C 360.476 203.200,360.566 202.570,360.476 201.800 C 360.386 201.030,360.476 200.400,360.676 200.400 C 360.876 200.400,360.966 199.770,360.876 199.000 C 360.784 198.212,360.890 197.600,361.119 197.600 C 361.342 197.600,361.432 197.243,361.317 196.806 C 361.203 196.369,361.242 195.694,361.403 195.306 C 361.564 194.918,361.748 194.150,361.812 193.600 C 361.876 193.050,362.002 191.981,362.093 191.224 C 362.183 190.467,362.456 189.781,362.699 189.700 C 362.969 189.610,363.055 189.015,362.919 188.176 C 362.781 187.328,362.859 186.800,363.123 186.800 C 363.387 186.800,363.463 186.268,363.323 185.400 C 363.182 184.532,363.258 184.000,363.523 184.000 C 363.787 184.000,363.863 183.468,363.723 182.600 C 363.582 181.732,363.658 181.200,363.923 181.200 C 364.187 181.200,364.263 180.668,364.123 179.800 C 363.978 178.907,364.056 178.400,364.338 178.400 C 364.612 178.400,364.692 177.962,364.550 177.249 C 364.422 176.609,364.509 175.980,364.747 175.833 C 364.987 175.684,365.071 175.054,364.938 174.391 C 364.767 173.537,364.874 173.146,365.326 172.973 C 365.669 172.841,365.857 172.493,365.744 172.199 C 365.481 171.514,367.196 159.918,367.630 159.442 C 367.810 159.245,367.854 158.572,367.730 157.948 C 367.564 157.118,367.680 156.744,368.161 156.559 C 368.617 156.385,368.699 156.160,368.427 155.832 C 368.020 155.342,368.284 153.600,368.766 153.600 C 368.916 153.600,368.966 152.970,368.876 152.200 C 368.786 151.430,368.876 150.800,369.076 150.800 C 369.276 150.800,369.366 150.170,369.276 149.400 C 369.184 148.612,369.290 148.000,369.519 148.000 C 369.742 148.000,369.832 147.643,369.717 147.206 C 369.603 146.769,369.647 146.094,369.814 145.706 C 369.982 145.318,370.080 144.598,370.032 144.107 C 369.984 143.615,370.077 142.999,370.239 142.737 C 370.401 142.476,370.579 141.798,370.634 141.231 C 370.861 138.933,371.227 137.393,371.574 137.276 C 371.777 137.208,371.842 136.533,371.719 135.776 C 371.581 134.928,371.659 134.400,371.923 134.400 C 372.187 134.400,372.263 133.868,372.123 133.000 C 371.982 132.132,372.058 131.600,372.323 131.600 C 372.587 131.600,372.663 131.068,372.523 130.200 C 372.382 129.332,372.458 128.800,372.723 128.800 C 372.987 128.800,373.063 128.268,372.923 127.400 C 372.798 126.630,372.854 126.000,373.048 126.000 C 373.241 126.000,373.425 125.505,373.455 124.900 C 373.567 122.631,373.949 120.617,374.287 120.504 C 374.480 120.440,374.565 119.760,374.475 118.994 C 374.386 118.227,374.476 117.600,374.676 117.600 C 374.876 117.600,374.966 116.970,374.876 116.200 C 374.784 115.412,374.890 114.800,375.119 114.800 C 375.342 114.800,375.432 114.443,375.317 114.006 C 375.203 113.569,375.246 112.894,375.412 112.506 C 375.579 112.118,375.677 111.323,375.631 110.740 C 375.586 110.156,375.723 109.571,375.936 109.439 C 376.150 109.307,376.231 108.838,376.115 108.397 C 376.000 107.957,376.099 107.362,376.336 107.077 C 376.573 106.792,376.669 106.184,376.549 105.727 C 376.429 105.270,376.574 104.669,376.871 104.392 C 377.203 104.081,377.354 103.295,377.263 102.344 C 377.182 101.495,377.270 100.800,377.458 100.800 C 377.646 100.800,377.800 98.730,377.800 96.200 C 377.800 93.670,377.645 91.600,377.455 91.600 C 377.265 91.600,377.187 91.067,377.283 90.415 C 377.383 89.732,377.259 89.155,376.991 89.052 C 376.734 88.953,376.287 88.025,375.997 86.989 C 374.581 81.933,365.698 74.567,359.100 72.978 C 358.495 72.832,358.000 72.553,358.000 72.357 C 358.000 72.160,357.865 72.037,357.700 72.081 C 357.210 72.214,354.400 71.065,354.400 70.732 C 354.400 70.563,354.167 70.515,353.882 70.624 C 353.121 70.916,347.600 68.909,347.600 68.340 C 347.600 68.194,347.240 68.169,346.800 68.284 C 346.360 68.399,345.999 68.337,345.998 68.147 C 345.997 67.956,345.326 67.765,344.506 67.722 C 343.686 67.679,342.955 67.464,342.881 67.244 C 342.808 67.025,342.488 66.945,342.169 67.067 C 341.850 67.189,341.351 67.091,341.058 66.848 C 340.766 66.606,340.433 66.500,340.319 66.615 C 340.204 66.729,339.591 66.615,338.955 66.362 C 337.586 65.817,329.909 64.100,321.000 62.346 C 313.313 60.833,300.282 60.374,293.963 61.394 " stroke="none" fill="#2c2b2e" fill-rule="evenodd"></path><path id="path2" d="M184.567 18.746 C 184.766 19.069,186.800 18.893,186.800 18.553 C 186.800 18.469,186.249 18.400,185.576 18.400 C 184.903 18.400,184.449 18.556,184.567 18.746 M217.200 31.586 C 217.200 31.798,217.568 32.169,218.018 32.410 C 218.774 32.814,218.797 32.785,218.322 32.024 C 217.781 31.158,217.200 30.931,217.200 31.586 M155.467 33.467 C 154.981 33.953,155.190 34.379,155.800 34.145 C 156.130 34.018,156.400 33.754,156.400 33.557 C 156.400 33.138,155.849 33.084,155.467 33.467 M221.400 35.600 C 221.798 36.040,222.304 36.400,222.524 36.400 C 222.744 36.400,222.598 36.040,222.200 35.600 C 221.802 35.160,221.296 34.800,221.076 34.800 C 220.856 34.800,221.002 35.160,221.400 35.600 M228.000 41.902 C 229.751 43.943,230.584 44.545,230.172 43.472 C 230.061 43.182,229.122 42.238,228.085 41.374 L 226.200 39.804 228.000 41.902 M138.812 45.184 C 138.488 45.389,138.327 45.661,138.454 45.788 C 138.769 46.103,140.000 45.601,140.000 45.157 C 140.000 44.701,139.560 44.711,138.812 45.184 M90.720 47.680 C 91.093 48.053,91.307 48.053,91.680 47.680 C 92.053 47.307,91.947 47.200,91.200 47.200 C 90.453 47.200,90.347 47.307,90.720 47.680 M100.600 47.600 C 100.736 47.820,101.107 48.000,101.424 48.000 C 101.741 48.000,102.000 47.820,102.000 47.600 C 102.000 47.380,101.629 47.200,101.176 47.200 C 100.723 47.200,100.464 47.380,100.600 47.600 M133.500 47.476 C 133.115 47.576,132.800 47.825,132.800 48.029 C 132.800 48.527,133.490 48.502,133.804 47.993 C 133.942 47.770,134.210 47.683,134.400 47.800 C 134.590 47.917,134.858 47.830,134.996 47.607 C 135.252 47.192,134.753 47.148,133.500 47.476 M88.320 48.080 C 88.693 48.453,88.907 48.453,89.280 48.080 C 89.653 47.707,89.547 47.600,88.800 47.600 C 88.053 47.600,87.947 47.707,88.320 48.080 M107.200 48.400 C 107.200 48.620,107.459 48.800,107.776 48.800 C 108.093 48.800,108.464 48.620,108.600 48.400 C 108.736 48.180,108.477 48.000,108.024 48.000 C 107.571 48.000,107.200 48.180,107.200 48.400 M84.800 48.800 C 84.800 49.020,85.070 49.200,85.400 49.200 C 85.730 49.200,86.000 49.020,86.000 48.800 C 86.000 48.580,85.730 48.400,85.400 48.400 C 85.070 48.400,84.800 48.580,84.800 48.800 M111.200 48.800 C 111.200 49.020,111.560 49.200,112.000 49.200 C 112.440 49.200,112.800 49.020,112.800 48.800 C 112.800 48.580,112.440 48.400,112.000 48.400 C 111.560 48.400,111.200 48.580,111.200 48.800 M129.200 48.800 C 129.200 49.020,129.470 49.200,129.800 49.200 C 130.130 49.200,130.400 49.020,130.400 48.800 C 130.400 48.580,130.130 48.400,129.800 48.400 C 129.470 48.400,129.200 48.580,129.200 48.800 M117.100 49.482 C 117.595 49.578,118.405 49.578,118.900 49.482 C 119.395 49.387,118.990 49.309,118.000 49.309 C 117.010 49.309,116.605 49.387,117.100 49.482 M125.100 49.482 C 125.595 49.578,126.405 49.578,126.900 49.482 C 127.395 49.387,126.990 49.309,126.000 49.309 C 125.010 49.309,124.605 49.387,125.100 49.482 M311.600 50.824 C 311.600 51.057,311.780 51.136,312.000 51.000 C 312.220 50.864,312.400 50.922,312.400 51.130 C 312.400 51.337,312.760 51.601,313.200 51.716 C 314.344 52.015,314.189 51.415,312.981 50.864 C 311.729 50.294,311.600 50.290,311.600 50.824 M258.400 51.200 C 258.400 51.420,258.670 51.600,259.000 51.600 C 259.330 51.600,259.600 51.420,259.600 51.200 C 259.600 50.980,259.330 50.800,259.000 50.800 C 258.670 50.800,258.400 50.980,258.400 51.200 M244.000 51.600 C 244.000 51.820,244.270 52.000,244.600 52.000 C 244.930 52.000,245.200 51.820,245.200 51.600 C 245.200 51.380,244.930 51.200,244.600 51.200 C 244.270 51.200,244.000 51.380,244.000 51.600 M255.200 51.600 C 255.200 51.820,255.470 52.000,255.800 52.000 C 256.130 52.000,256.400 51.820,256.400 51.600 C 256.400 51.380,256.130 51.200,255.800 51.200 C 255.470 51.200,255.200 51.380,255.200 51.600 M76.000 52.600 C 75.450 52.914,75.180 53.172,75.400 53.172 C 75.620 53.172,76.250 52.914,76.800 52.600 C 77.350 52.286,77.620 52.028,77.400 52.028 C 77.180 52.028,76.550 52.286,76.000 52.600 M73.300 53.688 C 72.805 53.927,72.400 54.275,72.400 54.461 C 72.400 54.986,73.081 54.862,73.724 54.219 C 74.043 53.900,74.416 53.750,74.552 53.886 C 74.689 54.022,74.800 53.923,74.800 53.667 C 74.800 53.108,74.495 53.112,73.300 53.688 M67.612 56.784 C 67.288 56.989,67.178 57.301,67.366 57.478 C 67.555 57.655,67.790 57.574,67.889 57.298 C 67.988 57.021,68.233 56.897,68.434 57.021 C 68.635 57.145,68.800 57.057,68.800 56.824 C 68.800 56.305,68.391 56.292,67.612 56.784 M53.029 65.829 C 52.142 66.715,52.245 66.853,53.400 66.327 C 53.950 66.077,54.400 65.720,54.400 65.536 C 54.400 64.999,53.711 65.146,53.029 65.829 M33.600 173.000 C 33.600 173.330,33.780 173.600,34.000 173.600 C 34.220 173.600,34.400 173.330,34.400 173.000 C 34.400 172.670,34.220 172.400,34.000 172.400 C 33.780 172.400,33.600 172.670,33.600 173.000 M359.600 207.800 C 359.600 208.130,359.780 208.400,360.000 208.400 C 360.220 208.400,360.400 208.130,360.400 207.800 C 360.400 207.470,360.220 207.200,360.000 207.200 C 359.780 207.200,359.600 207.470,359.600 207.800 M354.000 241.000 C 354.000 241.330,354.180 241.600,354.400 241.600 C 354.620 241.600,354.800 241.330,354.800 241.000 C 354.800 240.670,354.620 240.400,354.400 240.400 C 354.180 240.400,354.000 240.670,354.000 241.000 M345.200 293.400 C 345.200 293.730,345.380 294.000,345.600 294.000 C 345.820 294.000,346.000 293.730,346.000 293.400 C 346.000 293.070,345.820 292.800,345.600 292.800 C 345.380 292.800,345.200 293.070,345.200 293.400 M59.600 327.400 C 59.600 327.730,59.780 328.000,60.000 328.000 C 60.220 328.000,60.400 327.730,60.400 327.400 C 60.400 327.070,60.220 326.800,60.000 326.800 C 59.780 326.800,59.600 327.070,59.600 327.400 M154.000 398.800 C 154.000 399.020,154.450 399.200,155.000 399.200 C 155.550 399.200,156.000 399.020,156.000 398.800 C 156.000 398.580,155.550 398.400,155.000 398.400 C 154.450 398.400,154.000 398.580,154.000 398.800 M244.000 398.800 C 244.000 399.020,244.450 399.200,245.000 399.200 C 245.550 399.200,246.000 399.020,246.000 398.800 C 246.000 398.580,245.550 398.400,245.000 398.400 C 244.450 398.400,244.000 398.580,244.000 398.800 M160.400 399.200 C 160.400 399.420,160.861 399.600,161.424 399.600 C 162.004 399.600,162.340 399.427,162.200 399.200 C 162.064 398.980,161.603 398.800,161.176 398.800 C 160.749 398.800,160.400 398.980,160.400 399.200 M237.600 399.200 C 237.600 399.420,237.960 399.600,238.400 399.600 C 238.840 399.600,239.200 399.420,239.200 399.200 C 239.200 398.980,238.840 398.800,238.400 398.800 C 237.960 398.800,237.600 398.980,237.600 399.200 M168.305 399.883 C 168.802 399.979,169.522 399.975,169.905 399.875 C 170.287 399.775,169.880 399.696,169.000 399.701 C 168.120 399.705,167.807 399.787,168.305 399.883 M230.100 399.876 C 230.485 399.976,231.115 399.976,231.500 399.876 C 231.885 399.775,231.570 399.693,230.800 399.693 C 230.030 399.693,229.715 399.775,230.100 399.876 M179.305 400.287 C 179.914 400.379,180.814 400.377,181.305 400.282 C 181.797 400.187,181.300 400.111,180.200 400.114 C 179.100 400.117,178.697 400.195,179.305 400.287 M218.905 400.287 C 219.514 400.379,220.414 400.377,220.905 400.282 C 221.397 400.187,220.900 400.111,219.800 400.114 C 218.700 400.117,218.297 400.195,218.905 400.287 " stroke="none" fill="#cebdb3" fill-rule="evenodd"></path><path id="path3" d="M377.780 96.320 C 377.769 98.454,377.886 99.750,378.040 99.200 C 378.402 97.906,378.423 93.997,378.072 93.120 C 377.922 92.746,377.791 94.186,377.780 96.320 M156.000 398.800 C 156.000 399.020,156.270 399.200,156.600 399.200 C 156.930 399.200,157.200 399.020,157.200 398.800 C 157.200 398.580,156.930 398.400,156.600 398.400 C 156.270 398.400,156.000 398.580,156.000 398.800 M242.800 398.800 C 242.800 399.020,243.070 399.200,243.400 399.200 C 243.730 399.200,244.000 399.020,244.000 398.800 C 244.000 398.580,243.730 398.400,243.400 398.400 C 243.070 398.400,242.800 398.580,242.800 398.800 M162.200 399.200 C 162.336 399.420,162.807 399.600,163.247 399.600 C 163.687 399.600,163.936 399.420,163.800 399.200 C 163.664 398.980,163.193 398.800,162.753 398.800 C 162.313 398.800,162.064 398.980,162.200 399.200 M236.000 399.200 C 236.000 399.420,236.360 399.600,236.800 399.600 C 237.240 399.600,237.600 399.420,237.600 399.200 C 237.600 398.980,237.240 398.800,236.800 398.800 C 236.360 398.800,236.000 398.980,236.000 399.200 M169.400 399.623 C 171.426 400.042,173.063 400.023,171.400 399.600 C 170.740 399.432,169.660 399.294,169.000 399.293 C 167.991 399.292,168.055 399.345,169.400 399.623 M228.400 399.600 L 227.400 399.920 228.400 399.913 C 228.950 399.909,229.940 399.768,230.600 399.600 L 231.800 399.295 230.600 399.287 C 229.940 399.283,228.950 399.424,228.400 399.600 M182.900 400.287 C 183.505 400.378,184.495 400.378,185.100 400.287 C 185.705 400.195,185.210 400.120,184.000 400.120 C 182.790 400.120,182.295 400.195,182.900 400.287 M214.707 400.290 C 215.426 400.379,216.506 400.377,217.107 400.286 C 217.708 400.195,217.120 400.122,215.800 400.124 C 214.480 400.126,213.988 400.201,214.707 400.290 " stroke="none" fill="#888a8c" fill-rule="evenodd"></path><path id="path4" d="M296.900 60.676 C 297.285 60.776,297.915 60.776,298.300 60.676 C 298.685 60.575,298.370 60.493,297.600 60.493 C 296.830 60.493,296.515 60.575,296.900 60.676 M311.505 60.683 C 312.002 60.779,312.722 60.775,313.105 60.675 C 313.487 60.575,313.080 60.496,312.200 60.501 C 311.320 60.505,311.007 60.587,311.505 60.683 M289.600 61.800 C 287.194 62.497,288.423 62.510,291.200 61.817 C 292.410 61.515,292.950 61.270,292.400 61.273 C 291.850 61.276,290.590 61.513,289.600 61.800 M317.400 61.600 C 318.060 61.768,319.050 61.905,319.600 61.905 C 320.492 61.905,320.470 61.872,319.400 61.600 C 318.740 61.432,317.750 61.295,317.200 61.295 C 316.308 61.295,316.330 61.328,317.400 61.600 M74.300 63.493 C 75.235 63.577,76.765 63.577,77.700 63.493 C 78.635 63.409,77.870 63.340,76.000 63.340 C 74.130 63.340,73.365 63.409,74.300 63.493 M67.200 64.308 C 65.770 64.646,64.780 64.982,65.000 65.055 C 65.220 65.128,66.750 64.850,68.400 64.438 C 70.050 64.025,71.040 63.689,70.600 63.691 C 70.160 63.692,68.630 63.970,67.200 64.308 M82.584 64.404 C 83.895 64.823,85.030 65.103,85.106 65.028 C 85.307 64.826,81.567 63.596,80.829 63.622 C 80.483 63.633,81.273 63.986,82.584 64.404 M281.400 64.378 C 280.520 64.795,279.980 65.136,280.200 65.138 C 280.746 65.142,283.902 63.664,283.400 63.640 C 283.180 63.630,282.280 63.962,281.400 64.378 M329.400 63.955 C 329.840 64.144,331.010 64.407,332.000 64.541 C 333.184 64.700,333.458 64.671,332.800 64.454 C 331.307 63.962,328.430 63.540,329.400 63.955 M89.715 68.058 C 90.769 69.016,92.163 70.610,92.814 71.600 C 93.464 72.590,93.997 73.248,93.998 73.062 C 94.003 72.113,90.846 68.361,89.000 67.121 C 88.340 66.678,88.662 67.099,89.715 68.058 M55.600 67.288 C 54.830 67.516,54.389 67.773,54.620 67.858 C 54.851 67.944,55.751 67.753,56.620 67.435 C 58.431 66.772,57.695 66.666,55.600 67.288 M270.296 69.750 C 268.375 70.931,267.838 71.489,269.400 70.681 C 270.654 70.033,272.345 68.826,272.000 68.825 C 271.890 68.825,271.123 69.241,270.296 69.750 M167.000 69.968 C 168.760 70.143,171.190 70.396,172.400 70.528 C 174.198 70.725,174.344 70.701,173.200 70.397 C 172.430 70.192,170.000 69.940,167.800 69.837 C 163.938 69.655,163.911 69.660,167.000 69.968 M159.400 70.615 C 157.846 71.153,157.840 71.161,159.200 70.914 C 159.970 70.774,161.320 70.534,162.200 70.380 L 163.800 70.100 162.400 70.081 C 161.630 70.070,160.280 70.311,159.400 70.615 M265.458 73.018 C 264.436 73.798,263.600 74.534,263.600 74.652 C 263.600 74.833,266.127 73.013,267.380 71.929 C 268.446 71.006,267.075 71.783,265.458 73.018 M182.295 73.569 C 183.447 74.204,185.157 75.297,186.095 75.998 L 187.800 77.272 186.400 76.003 C 184.921 74.663,181.276 72.405,180.600 72.411 C 180.380 72.413,181.143 72.934,182.295 73.569 M148.167 76.236 L 146.600 77.673 148.300 76.403 C 149.817 75.269,150.276 74.800,149.867 74.800 C 149.793 74.800,149.028 75.446,148.167 76.236 M261.775 76.100 L 260.600 77.400 261.900 76.225 C 262.615 75.579,263.200 74.994,263.200 74.925 C 263.200 74.616,262.870 74.888,261.775 76.100 M145.400 78.709 C 144.960 79.089,144.062 80.030,143.405 80.800 C 142.655 81.678,142.991 81.460,144.305 80.215 C 146.208 78.412,146.596 77.983,146.300 78.009 C 146.245 78.014,145.840 78.329,145.400 78.709 M258.911 78.500 C 258.230 79.381,257.917 80.230,258.570 79.424 C 258.917 78.997,259.425 78.504,259.700 78.330 C 260.027 78.122,260.044 78.010,259.749 78.006 C 259.501 78.003,259.124 78.225,258.911 78.500 M256.159 81.700 C 254.407 83.721,253.887 84.400,254.090 84.400 C 254.207 84.400,254.967 83.590,255.779 82.600 C 257.281 80.766,257.579 80.063,256.159 81.700 M141.523 83.100 C 140.818 83.921,140.290 84.800,140.501 84.800 C 140.583 84.800,141.049 84.260,141.537 83.600 C 142.501 82.296,142.492 81.972,141.523 83.100 M97.629 83.033 C 97.735 84.367,99.129 90.831,99.161 90.135 C 99.208 89.097,98.104 83.170,97.808 82.875 C 97.694 82.760,97.613 82.832,97.629 83.033 M195.054 85.600 C 196.862 88.274,197.585 89.077,196.557 87.270 C 196.141 86.538,195.297 85.368,194.683 84.670 C 193.876 83.752,193.979 84.010,195.054 85.600 M252.893 85.900 C 251.857 87.396,251.521 88.000,251.723 88.000 C 251.817 88.000,252.370 87.280,252.953 86.400 C 254.136 84.612,254.084 84.179,252.893 85.900 M138.600 87.600 C 138.259 88.260,138.069 88.800,138.179 88.800 C 138.289 88.800,138.659 88.260,139.000 87.600 C 139.341 86.940,139.531 86.400,139.421 86.400 C 139.311 86.400,138.941 86.940,138.600 87.600 M198.266 90.778 C 198.877 91.866,199.449 92.684,199.537 92.596 C 199.727 92.406,197.659 88.800,197.360 88.800 C 197.247 88.800,197.654 89.690,198.266 90.778 M249.600 91.200 C 249.151 92.080,248.874 92.800,248.984 92.800 C 249.094 92.800,249.551 92.080,250.000 91.200 C 250.449 90.320,250.726 89.600,250.616 89.600 C 250.506 89.600,250.049 90.320,249.600 91.200 M99.353 97.000 C 99.353 99.640,99.418 100.668,99.497 99.284 C 99.575 97.901,99.574 95.741,99.495 94.484 C 99.416 93.228,99.352 94.360,99.353 97.000 M135.467 94.067 C 135.105 94.988,134.874 95.807,134.954 95.888 C 135.034 95.968,135.400 95.283,135.767 94.367 C 136.133 93.450,136.364 92.631,136.279 92.546 C 136.194 92.461,135.829 93.145,135.467 94.067 M201.035 96.400 C 201.181 96.950,201.554 97.850,201.864 98.400 L 202.429 99.400 202.165 98.400 C 202.019 97.850,201.646 96.950,201.336 96.400 L 200.771 95.400 201.035 96.400 M246.865 97.017 C 246.195 98.488,246.323 98.802,247.047 97.465 C 247.386 96.840,247.588 96.254,247.496 96.163 C 247.405 96.071,247.121 96.456,246.865 97.017 M203.322 102.809 C 203.423 103.143,203.816 104.818,204.197 106.530 C 204.578 108.243,204.967 109.566,205.061 109.472 C 205.303 109.231,203.988 103.526,203.523 102.800 C 203.185 102.271,203.161 102.272,203.322 102.809 M98.901 104.600 C 98.905 105.480,98.987 105.793,99.083 105.295 C 99.179 104.798,99.175 104.078,99.075 103.695 C 98.975 103.313,98.896 103.720,98.901 104.600 M132.579 106.256 C 132.218 109.626,132.577 117.885,133.141 119.200 C 133.492 120.017,133.518 119.870,133.285 118.400 C 133.128 117.410,133.004 113.675,133.009 110.100 C 133.018 102.812,132.982 102.491,132.579 106.256 M244.000 106.200 C 243.742 107.445,243.610 108.543,243.708 108.641 C 243.806 108.739,244.091 107.795,244.343 106.543 C 244.594 105.291,244.726 104.192,244.635 104.102 C 244.544 104.011,244.258 104.955,244.000 106.200 M98.246 108.347 C 98.089 109.527,98.046 110.579,98.150 110.683 C 98.417 110.950,98.922 107.364,98.707 106.725 C 98.611 106.436,98.403 107.166,98.246 108.347 M206.101 119.000 C 206.105 119.880,206.187 120.193,206.283 119.695 C 206.379 119.198,206.375 118.478,206.275 118.095 C 206.175 117.713,206.096 118.120,206.101 119.000 M242.109 120.800 C 242.109 121.790,242.187 122.195,242.282 121.700 C 242.378 121.205,242.378 120.395,242.282 119.900 C 242.187 119.405,242.109 119.810,242.109 120.800 M95.236 121.236 C 94.966 122.139,94.818 122.952,94.908 123.042 C 94.998 123.132,95.293 122.466,95.564 121.564 C 95.834 120.661,95.982 119.848,95.892 119.758 C 95.802 119.668,95.507 120.334,95.236 121.236 M206.600 133.200 C 206.600 143.316,206.638 144.000,206.936 139.277 C 207.121 136.349,207.121 131.219,206.936 127.877 C 206.619 122.166,206.599 122.486,206.600 133.200 M241.772 133.600 C 241.772 138.770,241.829 140.885,241.899 138.300 C 241.968 135.715,241.968 131.485,241.899 128.900 C 241.829 126.315,241.772 128.430,241.772 133.600 M135.054 125.600 C 135.189 126.150,135.545 127.140,135.845 127.800 C 136.284 128.764,136.343 128.803,136.146 128.000 C 136.011 127.450,135.655 126.460,135.355 125.800 C 134.916 124.836,134.857 124.797,135.054 125.600 M92.453 128.853 C 91.980 129.993,91.658 130.992,91.739 131.072 C 91.820 131.153,92.273 130.286,92.747 129.147 C 93.220 128.007,93.542 127.008,93.461 126.928 C 93.380 126.847,92.927 127.714,92.453 128.853 M138.038 133.000 C 138.038 133.220,138.561 134.390,139.200 135.600 C 139.839 136.810,140.362 137.620,140.362 137.400 C 140.362 137.180,139.839 136.010,139.200 134.800 C 138.561 133.590,138.038 132.780,138.038 133.000 M89.675 135.019 C 88.470 137.500,88.605 137.847,89.846 135.461 C 90.401 134.394,90.787 133.453,90.703 133.370 C 90.619 133.286,90.157 134.028,89.675 135.019 M141.200 139.600 C 141.649 140.480,142.106 141.200,142.216 141.200 C 142.326 141.200,142.049 140.480,141.600 139.600 C 141.151 138.720,140.694 138.000,140.584 138.000 C 140.474 138.000,140.751 138.720,141.200 139.600 M87.000 140.400 C 86.443 141.500,86.077 142.400,86.187 142.400 C 86.297 142.400,86.843 141.500,87.400 140.400 C 87.957 139.300,88.323 138.400,88.213 138.400 C 88.103 138.400,87.557 139.300,87.000 140.400 M142.400 141.743 C 142.400 142.178,145.187 147.600,145.410 147.600 C 145.520 147.600,144.957 146.295,144.158 144.700 C 142.660 141.707,142.400 141.270,142.400 141.743 M83.882 146.611 C 83.292 147.815,82.894 148.800,82.998 148.800 C 83.267 148.800,85.284 144.751,85.105 144.571 C 85.023 144.489,84.473 145.407,83.882 146.611 M242.101 145.800 C 242.105 146.680,242.187 146.993,242.283 146.495 C 242.379 145.998,242.375 145.278,242.275 144.895 C 242.175 144.513,242.096 144.920,242.101 145.800 M206.093 147.200 C 206.093 147.970,206.175 148.285,206.276 147.900 C 206.376 147.515,206.376 146.885,206.276 146.500 C 206.175 146.115,206.093 146.430,206.093 147.200 M145.638 148.200 C 145.638 148.420,146.161 149.590,146.800 150.800 C 147.439 152.010,147.962 152.820,147.962 152.600 C 147.962 152.380,147.439 151.210,146.800 150.000 C 146.161 148.790,145.638 147.980,145.638 148.200 M81.472 151.419 C 80.532 153.389,80.664 153.724,81.647 151.862 C 82.093 151.016,82.387 150.254,82.301 150.167 C 82.214 150.081,81.841 150.644,81.472 151.419 M243.265 155.600 C 243.248 155.930,243.479 157.280,243.776 158.600 C 244.074 159.920,244.319 160.550,244.321 160.000 C 244.324 158.878,243.312 154.662,243.265 155.600 M149.246 156.200 C 149.253 156.420,149.606 157.320,150.029 158.200 C 150.452 159.080,150.686 159.350,150.549 158.800 C 150.267 157.667,149.225 155.588,149.246 156.200 M78.459 158.628 C 77.986 159.862,77.613 161.080,77.628 161.336 C 77.643 161.591,78.100 160.651,78.642 159.248 C 79.185 157.844,79.558 156.625,79.473 156.539 C 79.387 156.454,78.931 157.394,78.459 158.628 M204.027 160.427 C 203.761 161.775,203.622 162.956,203.718 163.051 C 203.813 163.146,204.108 162.121,204.373 160.773 C 204.639 159.425,204.778 158.244,204.682 158.149 C 204.587 158.054,204.292 159.079,204.027 160.427 M244.468 161.800 C 244.462 162.240,244.611 162.960,244.800 163.400 C 245.238 164.419,245.238 163.368,244.800 162.000 C 244.543 161.196,244.477 161.157,244.468 161.800 M152.062 164.200 C 152.053 164.420,152.393 166.040,152.818 167.800 C 153.346 169.984,153.521 170.399,153.372 169.106 C 153.166 167.329,152.099 163.328,152.062 164.200 M75.343 170.669 C 74.923 174.167,74.922 179.942,75.340 182.934 C 75.875 186.765,76.058 185.225,75.564 181.040 C 75.220 178.123,75.222 176.074,75.571 172.735 C 75.827 170.297,75.953 168.220,75.853 168.120 C 75.753 168.019,75.523 169.166,75.343 170.669 M246.461 169.600 C 246.461 169.930,246.703 170.830,247.000 171.600 C 247.297 172.370,247.539 172.730,247.539 172.400 C 247.539 172.070,247.297 171.170,247.000 170.400 C 246.703 169.630,246.461 169.270,246.461 169.600 M201.240 171.440 C 201.010 172.273,200.894 173.027,200.982 173.115 C 201.070 173.203,201.330 172.593,201.560 171.760 C 201.790 170.927,201.906 170.173,201.818 170.085 C 201.730 169.997,201.470 170.607,201.240 171.440 M153.709 173.600 C 153.709 174.590,153.787 174.995,153.882 174.500 C 153.978 174.005,153.978 173.195,153.882 172.700 C 153.787 172.205,153.709 172.610,153.709 173.600 M249.058 177.598 C 249.200 178.147,249.650 179.317,250.059 180.198 C 250.467 181.079,250.685 181.351,250.542 180.802 C 250.400 180.253,249.950 179.083,249.541 178.202 C 249.133 177.321,248.915 177.049,249.058 177.598 M198.667 178.867 C 198.305 179.788,198.074 180.607,198.154 180.688 C 198.234 180.768,198.600 180.083,198.967 179.167 C 199.333 178.250,199.564 177.431,199.479 177.346 C 199.394 177.261,199.029 177.945,198.667 178.867 M153.709 180.400 C 153.709 181.390,153.787 181.795,153.882 181.300 C 153.978 180.805,153.978 179.995,153.882 179.500 C 153.787 179.005,153.709 179.410,153.709 180.400 M195.467 186.467 C 194.881 187.824,194.466 188.999,194.544 189.078 C 194.623 189.156,195.168 188.111,195.756 186.756 C 196.343 185.400,196.759 184.225,196.678 184.145 C 196.598 184.064,196.052 185.109,195.467 186.467 M152.513 186.641 C 152.267 187.718,152.129 188.662,152.206 188.740 C 152.429 188.962,153.263 185.590,153.104 185.112 C 153.026 184.877,152.760 185.565,152.513 186.641 M252.036 185.000 C 252.036 185.220,252.470 186.210,253.000 187.200 C 253.530 188.190,253.964 188.820,253.964 188.600 C 253.964 188.380,253.530 187.390,253.000 186.400 C 252.470 185.410,252.036 184.780,252.036 185.000 M192.580 192.440 C 192.011 193.562,191.613 194.547,191.695 194.629 C 191.777 194.711,192.327 193.793,192.918 192.589 C 193.508 191.385,193.906 190.400,193.802 190.400 C 193.698 190.400,193.148 191.318,192.580 192.440 M78.000 192.153 C 78.000 192.582,79.190 194.800,79.421 194.800 C 79.531 194.800,79.323 194.215,78.959 193.500 C 78.217 192.040,78.000 191.736,78.000 192.153 M149.400 194.800 C 148.843 195.900,148.462 196.800,148.554 196.800 C 148.760 196.800,150.148 194.458,150.510 193.500 C 151.046 192.083,150.384 192.858,149.400 194.800 M189.656 198.017 C 188.935 199.327,188.435 200.400,188.544 200.400 C 188.836 200.400,191.313 195.980,191.126 195.793 C 191.038 195.705,190.377 196.706,189.656 198.017 M258.200 197.600 C 258.541 198.260,258.911 198.800,259.021 198.800 C 259.131 198.800,258.941 198.260,258.600 197.600 C 258.259 196.940,257.889 196.400,257.779 196.400 C 257.669 196.400,257.859 196.940,258.200 197.600 M80.749 197.400 C 80.965 197.840,81.434 198.560,81.793 199.000 L 82.444 199.800 82.051 199.000 C 81.835 198.560,81.366 197.840,81.007 197.400 L 80.356 196.600 80.749 197.400 M146.800 199.200 C 146.330 199.860,146.036 200.400,146.146 200.400 C 146.256 200.400,146.730 199.860,147.200 199.200 C 147.670 198.540,147.964 198.000,147.854 198.000 C 147.744 198.000,147.270 198.540,146.800 199.200 M83.898 201.800 C 84.578 202.680,86.000 204.210,87.057 205.200 C 88.531 206.579,88.382 206.346,86.417 204.200 C 82.900 200.358,82.463 199.941,83.898 201.800 M143.204 203.700 C 141.797 205.295,141.149 206.150,141.763 205.600 C 142.942 204.544,146.184 200.800,145.919 200.800 C 145.833 200.800,144.612 202.105,143.204 203.700 M260.987 202.600 C 261.603 203.700,262.292 204.780,262.519 205.000 C 262.746 205.220,262.428 204.500,261.813 203.400 C 261.197 202.300,260.508 201.220,260.281 201.000 C 260.054 200.780,260.372 201.500,260.987 202.600 M187.000 202.800 C 186.659 203.460,186.469 204.000,186.579 204.000 C 186.689 204.000,187.059 203.460,187.400 202.800 C 187.741 202.140,187.931 201.600,187.821 201.600 C 187.711 201.600,187.341 202.140,187.000 202.800 M138.600 207.860 C 137.395 208.936,137.305 209.085,138.236 208.463 C 139.341 207.724,140.732 206.376,140.349 206.415 C 140.267 206.423,139.480 207.073,138.600 207.860 M263.800 207.600 C 264.141 208.260,264.511 208.800,264.621 208.800 C 264.731 208.800,264.541 208.260,264.200 207.600 C 263.859 206.940,263.489 206.400,263.379 206.400 C 263.269 206.400,263.459 206.940,263.800 207.600 M184.499 207.300 C 183.936 208.006,182.744 210.400,182.956 210.400 C 183.052 210.400,183.584 209.590,184.138 208.600 C 185.135 206.816,185.268 206.336,184.499 207.300 M91.399 208.798 C 91.686 209.263,96.407 212.130,96.579 211.943 C 96.651 211.864,95.466 211.045,93.945 210.121 C 92.424 209.198,91.278 208.602,91.399 208.798 M134.300 210.629 C 132.805 211.440,132.896 211.778,134.400 211.000 C 135.060 210.659,135.600 210.294,135.600 210.190 C 135.600 209.932,135.557 209.947,134.300 210.629 M266.600 212.400 C 266.941 213.060,267.311 213.600,267.421 213.600 C 267.531 213.600,267.341 213.060,267.000 212.400 C 266.659 211.740,266.289 211.200,266.179 211.200 C 266.069 211.200,266.259 211.740,266.600 212.400 M181.223 213.050 C 180.753 213.848,180.433 214.566,180.513 214.646 C 180.592 214.726,181.061 214.073,181.554 213.196 C 182.675 211.202,182.388 211.077,181.223 213.050 M128.488 213.299 C 127.326 213.745,126.447 214.181,126.535 214.269 C 126.721 214.455,131.200 212.825,131.200 212.571 C 131.200 212.308,130.774 212.423,128.488 213.299 M100.200 213.622 C 101.080 214.038,102.070 214.375,102.400 214.371 C 102.730 214.366,102.100 214.011,101.000 213.582 C 98.496 212.604,98.092 212.624,100.200 213.622 M109.300 215.876 C 109.685 215.976,110.315 215.976,110.700 215.876 C 111.085 215.775,110.770 215.693,110.000 215.693 C 109.230 215.693,108.915 215.775,109.300 215.876 M118.100 215.876 C 118.485 215.976,119.115 215.976,119.500 215.876 C 119.885 215.775,119.570 215.693,118.800 215.693 C 118.030 215.693,117.715 215.775,118.100 215.876 M269.200 217.200 C 269.649 218.080,270.106 218.800,270.216 218.800 C 270.326 218.800,270.049 218.080,269.600 217.200 C 269.151 216.320,268.694 215.600,268.584 215.600 C 268.474 215.600,268.751 216.320,269.200 217.200 M113.905 216.283 C 114.402 216.379,115.122 216.375,115.505 216.275 C 115.887 216.175,115.480 216.096,114.600 216.101 C 113.720 216.105,113.407 216.187,113.905 216.283 M178.265 218.352 C 177.679 219.428,177.203 220.464,177.207 220.654 C 177.211 220.844,177.752 220.025,178.408 218.834 C 179.065 217.643,179.541 216.607,179.466 216.532 C 179.391 216.457,178.850 217.276,178.265 218.352 M175.780 223.240 C 175.211 224.362,174.813 225.347,174.895 225.429 C 174.977 225.511,175.527 224.593,176.118 223.389 C 176.708 222.185,177.106 221.200,177.002 221.200 C 176.898 221.200,176.348 222.118,175.780 223.240 M272.481 223.391 C 272.959 224.376,273.419 225.114,273.503 225.030 C 273.684 224.849,272.068 221.600,271.797 221.600 C 271.694 221.600,272.002 222.406,272.481 223.391 M275.267 229.620 C 275.501 230.292,275.767 230.767,275.857 230.676 C 276.056 230.478,275.301 228.400,275.031 228.400 C 274.927 228.400,275.033 228.949,275.267 229.620 M172.653 230.135 C 171.925 231.878,171.444 233.453,171.717 233.200 C 172.049 232.893,173.614 228.800,173.400 228.800 C 173.296 228.800,172.960 229.401,172.653 230.135 M278.061 237.200 C 278.061 237.530,278.303 238.430,278.600 239.200 C 278.897 239.970,279.139 240.330,279.139 240.000 C 279.139 239.670,278.897 238.770,278.600 238.000 C 278.303 237.230,278.061 236.870,278.061 237.200 M169.829 238.229 C 169.681 238.815,169.638 239.372,169.732 239.466 C 169.827 239.560,170.024 239.158,170.171 238.571 C 170.319 237.985,170.362 237.428,170.268 237.334 C 170.173 237.240,169.976 237.642,169.829 238.229 M280.983 256.800 C 280.992 261.090,280.874 265.590,280.721 266.800 C 280.510 268.461,280.536 268.706,280.825 267.800 C 281.389 266.038,281.702 255.904,281.307 252.200 C 281.024 249.546,280.969 250.331,280.983 256.800 M167.097 255.300 C 166.973 257.775,166.993 261.150,167.143 262.800 C 167.346 265.038,167.427 263.895,167.465 258.300 C 167.523 249.714,167.419 248.869,167.097 255.300 M278.480 276.280 C 278.230 277.094,278.092 277.826,278.173 277.906 C 278.254 277.987,278.536 277.399,278.800 276.600 C 279.064 275.801,279.202 275.069,279.107 274.974 C 279.012 274.878,278.730 275.466,278.480 276.280 M169.612 276.000 C 169.612 276.330,169.787 276.870,170.000 277.200 C 170.345 277.733,170.388 277.733,170.388 277.200 C 170.388 276.870,170.213 276.330,170.000 276.000 C 169.655 275.467,169.612 275.467,169.612 276.000 M275.506 283.506 C 274.927 284.760,274.512 285.845,274.585 285.918 C 274.658 285.991,275.199 285.033,275.788 283.788 C 276.377 282.544,276.791 281.458,276.709 281.376 C 276.627 281.293,276.085 282.252,275.506 283.506 M174.749 287.400 C 174.965 287.840,175.434 288.560,175.793 289.000 L 176.444 289.800 176.051 289.000 C 175.835 288.560,175.366 287.840,175.007 287.400 L 174.356 286.600 174.749 287.400 M272.439 289.024 C 271.977 289.807,271.780 290.336,272.002 290.199 C 272.436 289.931,273.734 287.600,273.450 287.600 C 273.356 287.600,272.901 288.241,272.439 289.024 M177.940 292.316 C 178.433 293.009,179.044 293.704,179.297 293.860 C 179.550 294.017,179.354 293.577,178.860 292.884 C 178.367 292.191,177.756 291.496,177.503 291.340 C 177.250 291.183,177.446 291.623,177.940 292.316 M265.813 297.500 C 264.077 299.425,263.425 300.280,264.363 299.400 C 266.054 297.814,269.415 294.000,269.122 294.000 C 269.038 294.000,267.549 295.575,265.813 297.500 M180.800 295.800 C 181.546 296.570,182.247 297.200,182.357 297.200 C 182.467 297.200,181.946 296.570,181.200 295.800 C 180.454 295.030,179.753 294.400,179.643 294.400 C 179.533 294.400,180.054 295.030,180.800 295.800 M183.831 298.833 C 184.306 299.618,189.600 304.317,189.600 303.953 C 189.600 303.860,188.219 302.532,186.531 301.003 C 184.842 299.474,183.627 298.497,183.831 298.833 M190.269 304.432 C 190.766 305.033,193.200 306.564,193.200 306.276 C 193.200 306.183,192.435 305.602,191.500 304.985 C 190.565 304.368,190.011 304.120,190.269 304.432 M256.481 305.372 C 254.623 306.685,254.362 307.061,255.931 306.162 C 256.663 305.743,257.450 305.175,257.680 304.900 C 258.271 304.193,257.993 304.302,256.481 305.372 M251.800 308.207 C 250.480 308.968,249.580 309.591,249.800 309.591 C 250.281 309.593,254.400 307.265,254.400 306.992 C 254.400 306.709,254.400 306.709,251.800 308.207 M194.800 307.379 C 194.800 307.489,195.340 307.859,196.000 308.200 C 196.660 308.541,197.200 308.731,197.200 308.621 C 197.200 308.511,196.660 308.141,196.000 307.800 C 195.340 307.459,194.800 307.269,194.800 307.379 M201.200 310.767 C 201.970 311.169,203.050 311.614,203.600 311.755 C 204.150 311.897,203.632 311.560,202.449 311.006 C 199.968 309.846,199.130 309.685,201.200 310.767 M245.400 311.229 C 244.520 311.652,244.250 311.886,244.800 311.749 C 245.933 311.467,248.012 310.425,247.400 310.446 C 247.180 310.453,246.280 310.806,245.400 311.229 M207.800 313.200 C 208.240 313.389,208.870 313.544,209.200 313.544 C 209.578 313.544,209.504 313.417,209.000 313.200 C 208.560 313.011,207.930 312.856,207.600 312.856 C 207.222 312.856,207.296 312.983,207.800 313.200 M237.000 313.809 C 235.866 314.101,235.433 314.327,236.000 314.331 C 236.550 314.335,237.720 314.101,238.600 313.811 C 240.642 313.138,239.616 313.137,237.000 313.809 M211.800 314.209 C 212.900 314.492,214.160 314.719,214.600 314.714 C 215.040 314.709,214.500 314.474,213.400 314.191 C 212.300 313.908,211.040 313.681,210.600 313.686 C 210.160 313.691,210.700 313.926,211.800 314.209 M222.700 315.493 C 223.635 315.577,225.165 315.577,226.100 315.493 C 227.035 315.409,226.270 315.340,224.400 315.340 C 222.530 315.340,221.765 315.409,222.700 315.493 " stroke="none" fill="#865233" fill-rule="evenodd"></path><path id="path5" d="M365.362 75.538 C 365.519 75.792,365.847 76.000,366.092 76.000 C 366.337 76.000,366.866 76.298,367.269 76.662 C 367.671 77.026,368.000 77.147,368.000 76.930 C 368.000 76.713,367.505 76.288,366.900 75.986 C 366.295 75.685,365.637 75.356,365.438 75.257 C 365.239 75.158,365.205 75.284,365.362 75.538 M21.867 93.467 C 21.443 93.891,21.558 98.327,22.000 98.600 C 22.252 98.756,22.400 97.804,22.400 96.024 C 22.400 93.185,22.357 92.977,21.867 93.467 M157.200 398.800 C 157.200 399.020,157.470 399.200,157.800 399.200 C 158.130 399.200,158.400 399.020,158.400 398.800 C 158.400 398.580,158.130 398.400,157.800 398.400 C 157.470 398.400,157.200 398.580,157.200 398.800 M241.200 398.800 C 241.200 399.020,241.470 399.200,241.800 399.200 C 242.130 399.200,242.400 399.020,242.400 398.800 C 242.400 398.580,242.130 398.400,241.800 398.400 C 241.470 398.400,241.200 398.580,241.200 398.800 M234.600 399.200 C 233.829 399.531,233.831 399.545,234.676 399.572 C 235.158 399.587,235.664 399.420,235.800 399.200 C 236.092 398.727,235.701 398.727,234.600 399.200 M172.752 399.712 C 172.945 399.905,173.619 399.998,174.251 399.919 C 175.309 399.787,175.281 399.759,173.900 399.568 C 173.040 399.449,172.550 399.510,172.752 399.712 M225.800 399.600 L 224.600 399.905 225.876 399.953 C 226.578 399.979,227.264 399.820,227.400 399.600 C 227.674 399.157,227.540 399.157,225.800 399.600 M182.900 399.887 C 183.505 399.978,184.495 399.978,185.100 399.887 C 185.705 399.795,185.210 399.720,184.000 399.720 C 182.790 399.720,182.295 399.795,182.900 399.887 M210.400 400.000 L 207.000 400.251 210.000 400.279 C 211.650 400.294,214.170 400.175,215.600 400.014 L 218.200 399.722 216.000 399.736 C 214.790 399.743,212.270 399.862,210.400 400.000 M187.900 400.293 C 188.835 400.377,190.365 400.377,191.300 400.293 C 192.235 400.209,191.470 400.140,189.600 400.140 C 187.730 400.140,186.965 400.209,187.900 400.293 " stroke="none" fill="#626465" fill-rule="evenodd"></path><path id="path6" d="M377.724 95.800 C 377.726 97.120,377.801 97.612,377.890 96.893 C 377.979 96.174,377.977 95.094,377.886 94.493 C 377.795 93.892,377.722 94.480,377.724 95.800 M73.202 376.931 C 73.200 377.332,75.580 379.759,75.770 379.549 C 75.844 379.467,75.297 378.770,74.554 378.000 C 73.812 377.230,73.203 376.749,73.202 376.931 M170.400 399.355 C 170.400 399.440,170.930 399.587,171.579 399.682 C 172.227 399.777,172.667 399.708,172.555 399.528 C 172.357 399.207,170.400 399.050,170.400 399.355 M179.500 399.882 C 179.995 399.978,180.805 399.978,181.300 399.882 C 181.795 399.787,181.390 399.709,180.400 399.709 C 179.410 399.709,179.005 399.787,179.500 399.882 M218.700 399.882 C 219.195 399.978,220.005 399.978,220.500 399.882 C 220.995 399.787,220.590 399.709,219.600 399.709 C 218.610 399.709,218.205 399.787,218.700 399.882 " stroke="none" fill="#747c7c" fill-rule="evenodd"></path><path id="path7" d="M187.600 77.325 C 187.600 77.394,188.185 77.979,188.900 78.625 L 190.200 79.800 189.025 78.500 C 187.930 77.288,187.600 77.016,187.600 77.325 M371.414 79.900 C 371.846 80.285,372.425 80.859,372.700 81.176 C 372.975 81.494,373.200 81.572,373.200 81.352 C 373.200 80.779,371.658 79.200,371.099 79.200 C 370.840 79.200,370.982 79.515,371.414 79.900 M166.893 255.600 C 166.893 256.370,166.975 256.685,167.076 256.300 C 167.176 255.915,167.176 255.285,167.076 254.900 C 166.975 254.515,166.893 254.830,166.893 255.600 M248.900 397.876 C 249.285 397.976,249.915 397.976,250.300 397.876 C 250.685 397.775,250.370 397.693,249.600 397.693 C 248.830 397.693,248.515 397.775,248.900 397.876 M173.300 399.476 C 173.685 399.576,174.315 399.576,174.700 399.476 C 175.085 399.375,174.770 399.293,174.000 399.293 C 173.230 399.293,172.915 399.375,173.300 399.476 " stroke="none" fill="#4a4c4b" fill-rule="evenodd"></path><path id="path8" d="M301.718 60.698 C 303.433 60.773,306.133 60.772,307.718 60.697 C 309.303 60.621,307.900 60.559,304.600 60.560 C 301.300 60.561,300.003 60.622,301.718 60.698 M73.100 63.882 C 73.595 63.978,74.405 63.978,74.900 63.882 C 75.395 63.787,74.990 63.709,74.000 63.709 C 73.010 63.709,72.605 63.787,73.100 63.882 M77.700 63.876 C 78.085 63.976,78.715 63.976,79.100 63.876 C 79.485 63.775,79.170 63.693,78.400 63.693 C 77.630 63.693,77.315 63.775,77.700 63.876 M166.100 70.276 C 166.485 70.376,167.115 70.376,167.500 70.276 C 167.885 70.175,167.570 70.093,166.800 70.093 C 166.030 70.093,165.715 70.175,166.100 70.276 M37.000 74.036 C 36.780 74.254,36.240 74.704,35.800 75.036 C 35.134 75.538,35.218 75.533,36.300 75.009 C 37.015 74.663,37.600 74.204,37.600 73.990 C 37.600 73.518,37.517 73.524,37.000 74.036 M29.587 78.728 C 28.310 79.294,27.340 80.252,26.479 81.800 L 25.588 83.400 26.788 82.000 C 27.448 81.230,28.569 80.105,29.279 79.500 C 30.604 78.371,30.650 78.257,29.587 78.728 M96.218 79.700 C 96.368 80.195,96.655 80.776,96.856 80.991 C 97.057 81.206,97.019 80.801,96.772 80.091 C 96.265 78.638,95.797 78.308,96.218 79.700 M98.953 97.000 C 98.953 99.640,99.018 100.668,99.097 99.284 C 99.175 97.901,99.174 95.741,99.095 94.484 C 99.016 93.228,98.952 94.360,98.953 97.000 M206.551 133.600 C 206.551 136.130,206.616 137.165,206.696 135.900 C 206.775 134.635,206.775 132.565,206.696 131.300 C 206.616 130.035,206.551 131.070,206.551 133.600 M34.328 172.711 C 34.235 173.343,34.381 174.067,34.653 174.321 C 35.041 174.683,35.098 174.463,34.917 173.291 C 34.623 171.388,34.535 171.301,34.328 172.711 M188.300 399.893 C 189.235 399.977,190.765 399.977,191.700 399.893 C 192.635 399.809,191.870 399.740,190.000 399.740 C 188.130 399.740,187.365 399.809,188.300 399.893 M208.300 399.893 C 209.235 399.977,210.765 399.977,211.700 399.893 C 212.635 399.809,211.870 399.740,210.000 399.740 C 208.130 399.740,207.365 399.809,208.300 399.893 " stroke="none" fill="#3e4045" fill-rule="evenodd"></path></g></svg>