<svg id="svg" version="1.1" xmlns="http://www.w3.org/2000/svg" xmlns:xlink="http://www.w3.org/1999/xlink" width="400" height="400" viewBox="0, 0, 400,400"><g id="svgg"><path id="path0" d="M0.000 200.000 L 0.000 400.000 23.157 400.000 C 42.394 400.000,46.350 399.907,46.525 399.452 C 46.700 398.995,85.809 351.907,93.877 342.439 C 96.998 338.776,97.263 339.614,91.500 334.928 C 1.972 262.120,6.147 125.375,99.933 58.714 C 151.130 22.324,220.638 16.597,275.668 44.234 C 277.602 45.205,279.355 46.000,279.563 46.000 C 279.772 46.000,282.160 43.095,284.871 39.544 C 287.582 35.993,290.340 32.414,291.000 31.592 C 291.660 30.769,294.090 27.628,296.400 24.611 C 298.710 21.595,302.358 16.848,304.506 14.063 C 308.261 9.196,314.140 1.540,314.922 0.500 C 315.223 0.100,283.702 0.000,157.649 0.000 L 0.000 0.000 0.000 200.000 M234.629 106.364 C 233.146 107.919,232.882 107.735,240.086 110.184 C 256.729 115.842,279.231 127.978,287.933 135.989 L 289.267 137.216 289.101 158.308 C 288.945 178.200,288.886 179.616,288.066 183.200 C 284.544 198.587,277.523 208.434,265.800 214.432 L 263.000 215.864 262.537 218.177 C 257.505 243.319,224.587 245.525,217.364 221.204 L 216.767 219.192 198.703 219.296 L 180.640 219.400 179.746 221.899 C 177.739 227.505,174.390 231.835,169.666 234.931 C 159.172 241.807,145.879 237.928,136.324 225.200 L 135.273 223.800 133.453 224.747 C 128.062 227.552,120.800 238.547,120.800 243.906 C 120.800 244.708,124.992 248.683,128.567 251.272 C 129.685 252.082,131.050 253.088,131.600 253.507 C 134.468 255.696,142.464 260.081,147.400 262.172 C 156.307 265.945,154.839 265.385,160.800 267.281 C 178.049 272.766,203.581 274.347,224.000 271.194 C 228.678 270.471,234.337 269.426,236.600 268.866 C 252.957 264.819,268.761 258.582,281.559 251.123 C 288.892 246.849,289.447 246.926,285.660 251.692 C 278.201 261.078,264.322 270.057,250.800 274.244 C 249.590 274.619,248.531 274.981,248.446 275.050 C 248.068 275.356,261.855 291.988,262.523 292.030 C 272.954 292.695,292.825 287.650,304.000 281.502 C 312.999 276.550,322.383 268.718,327.763 261.670 L 329.694 259.139 329.642 251.870 C 329.614 247.871,329.417 242.890,329.205 240.800 C 328.994 238.710,328.627 235.020,328.391 232.600 C 327.758 226.116,325.986 213.589,325.224 210.200 C 325.026 209.320,324.663 207.520,324.418 206.200 C 324.173 204.880,323.804 203.080,323.599 202.200 C 323.394 201.320,322.836 198.890,322.358 196.800 C 317.420 175.180,310.216 154.470,300.514 134.000 C 297.867 128.415,297.999 128.568,292.801 125.073 C 285.535 120.187,277.536 115.906,269.989 112.864 C 263.597 110.289,254.834 107.743,249.200 106.827 C 247.550 106.558,245.480 106.179,244.600 105.984 C 243.720 105.789,241.380 105.518,239.400 105.383 L 235.800 105.136 234.629 106.364 " stroke="none" fill="#fbcd38" fill-rule="evenodd"></path><path id="path1" d="M312.600 4.249 C 310.840 6.568,307.644 10.746,305.498 13.533 C 303.351 16.320,299.751 21.000,297.498 23.933 C 293.619 28.980,291.164 32.168,283.870 41.630 C 282.149 43.863,280.667 45.894,280.578 46.145 C 280.488 46.395,282.486 47.754,285.017 49.164 C 379.949 102.056,402.306 230.482,330.981 313.200 C 273.340 380.049,171.561 392.768,100.938 341.948 C 96.990 339.107,97.271 339.119,95.143 341.700 C 94.190 342.855,93.316 343.890,93.200 344.000 C 93.084 344.110,92.184 345.190,91.200 346.400 C 90.216 347.610,89.317 348.690,89.202 348.800 C 88.388 349.578,46.800 399.585,46.800 399.786 C 46.800 399.904,126.270 400.000,223.400 400.000 L 400.000 400.000 400.000 200.000 L 400.000 0.000 357.900 0.016 L 315.800 0.032 312.600 4.249 M160.400 105.460 C 155.738 105.771,148.186 107.060,143.200 108.395 C 139.915 109.276,133.307 111.326,132.200 111.809 C 131.540 112.097,129.740 112.830,128.200 113.439 C 121.524 116.076,111.003 121.843,104.716 126.313 C 101.407 128.666,101.442 128.609,95.983 140.200 C 95.060 142.159,90.738 152.471,90.032 154.400 C 89.750 155.170,89.375 156.160,89.199 156.600 C 89.022 157.040,88.514 158.390,88.070 159.600 C 85.866 165.595,85.084 167.895,84.904 168.905 C 84.796 169.513,84.549 170.108,84.354 170.229 C 84.159 170.349,84.000 170.889,84.000 171.429 C 84.000 171.969,83.831 172.723,83.624 173.105 C 83.270 173.757,81.905 178.164,80.062 184.600 C 79.295 187.278,77.821 193.247,76.555 198.800 C 76.229 200.230,75.869 201.760,75.755 202.200 C 75.488 203.232,74.027 210.804,73.594 213.400 C 72.242 221.509,71.814 224.796,71.019 233.200 C 70.675 236.830,70.215 241.249,69.997 243.021 C 68.878 252.100,69.547 259.740,71.623 261.600 C 71.746 261.710,72.151 262.244,72.522 262.788 C 78.135 270.990,96.444 283.511,107.600 286.777 C 108.590 287.067,110.120 287.541,111.000 287.830 C 116.947 289.787,126.003 291.444,133.016 291.858 L 136.632 292.072 138.216 290.303 C 140.126 288.171,140.952 287.171,142.794 284.761 C 144.160 282.974,144.917 282.031,148.900 277.159 C 151.155 274.401,151.119 274.564,149.537 274.247 C 139.618 272.264,121.635 260.266,114.092 250.600 C 110.740 246.305,110.792 246.632,112.445 240.200 C 113.769 235.049,116.918 227.832,118.920 225.360 C 124.123 218.939,125.667 217.541,131.160 214.273 L 134.290 212.411 134.508 209.906 C 135.351 200.236,141.566 192.404,151.600 188.364 C 154.020 187.389,162.963 187.624,165.175 188.720 C 166.151 189.204,167.106 189.600,167.297 189.600 C 170.797 189.600,178.908 199.675,180.543 206.054 L 181.093 208.200 198.246 208.200 C 216.185 208.200,216.800 208.148,216.800 206.639 C 216.800 201.540,223.496 193.108,230.288 189.654 C 241.668 183.868,256.366 190.812,261.286 204.300 C 261.871 205.901,262.015 205.904,264.275 204.348 C 272.023 199.018,277.389 190.598,279.168 180.978 C 280.591 173.280,280.800 170.049,280.800 155.682 L 280.800 141.606 279.700 140.630 C 279.095 140.093,277.926 139.197,277.101 138.640 C 274.480 136.867,273.006 135.807,272.800 135.550 C 271.059 133.372,252.139 124.306,243.000 121.270 C 238.759 119.861,231.655 117.915,228.200 117.216 C 226.880 116.949,225.350 116.633,224.800 116.514 C 216.088 114.633,193.234 114.282,179.200 115.812 C 167.780 117.058,164.905 117.468,157.800 118.865 C 144.331 121.515,129.834 126.460,115.800 133.192 C 108.485 136.701,107.986 136.919,107.776 136.710 C 107.380 136.314,108.119 135.359,110.028 133.800 C 111.106 132.920,112.215 132.009,112.494 131.776 C 113.354 131.056,118.854 127.410,121.800 125.607 C 125.052 123.617,136.211 117.871,140.000 116.236 C 141.430 115.619,143.140 114.878,143.800 114.591 C 144.994 114.070,148.790 112.598,152.600 111.178 C 153.700 110.768,156.895 109.668,159.700 108.734 C 162.635 107.757,164.800 106.822,164.800 106.532 C 164.800 105.954,163.506 105.166,162.726 105.270 C 162.437 105.308,161.390 105.394,160.400 105.460 " stroke="none" fill="#34689e" fill-rule="evenodd"></path><path id="path2" d="M193.800 27.789 C 193.580 27.889,190.610 28.165,187.200 28.402 C 179.590 28.932,172.163 29.807,169.000 30.545 C 168.560 30.648,167.120 30.941,165.800 31.196 C 164.480 31.451,162.770 31.815,162.000 32.005 C 161.230 32.194,159.700 32.562,158.600 32.821 C 151.862 34.408,141.807 37.631,136.200 40.000 C 135.540 40.279,134.640 40.649,134.200 40.822 C 130.796 42.164,128.938 43.029,122.600 46.220 C 115.111 49.991,109.025 53.507,104.216 56.842 C 97.582 61.442,96.400 62.307,92.600 65.347 C 82.708 73.259,73.489 82.484,65.366 92.600 C 56.441 103.715,46.425 120.337,41.866 131.600 C 41.466 132.590,40.996 133.760,40.822 134.200 C 40.232 135.698,39.708 136.998,39.291 138.000 C 37.366 142.623,34.240 152.577,32.821 158.600 C 32.562 159.700,32.194 161.230,32.005 162.000 C 31.815 162.770,31.452 164.480,31.197 165.800 C 30.943 167.120,30.583 168.920,30.397 169.800 C 30.080 171.298,29.654 174.428,28.790 181.600 C 27.335 193.670,27.353 206.360,28.842 218.800 C 29.638 225.448,30.072 228.621,30.401 230.200 C 30.585 231.080,30.943 232.880,31.197 234.200 C 31.452 235.520,31.815 237.230,32.005 238.000 C 32.194 238.770,32.562 240.300,32.821 241.400 C 34.240 247.423,37.366 257.377,39.291 262.000 C 39.520 262.550,39.863 263.405,40.054 263.900 C 40.244 264.395,40.566 265.205,40.769 265.700 C 40.972 266.195,41.466 267.410,41.866 268.400 C 45.399 277.127,53.462 291.214,60.870 301.600 C 80.666 329.352,112.449 352.811,144.600 363.399 C 179.547 374.907,211.597 375.591,248.600 365.618 C 271.922 359.332,298.457 344.131,317.831 325.957 C 393.973 254.533,390.018 132.878,309.400 66.592 C 303.024 61.349,285.896 49.600,284.630 49.600 C 284.523 49.600,283.555 49.081,282.478 48.446 C 281.402 47.812,280.109 47.162,279.606 47.002 C 279.102 46.842,276.419 45.640,273.645 44.331 C 268.749 42.022,267.911 41.644,265.800 40.800 C 265.250 40.580,264.350 40.220,263.800 40.000 C 263.250 39.780,262.395 39.437,261.900 39.237 C 256.824 37.191,247.309 34.213,241.400 32.821 C 240.300 32.562,238.770 32.194,238.000 32.005 C 237.230 31.815,235.520 31.451,234.200 31.196 C 232.880 30.941,231.440 30.648,231.000 30.545 C 224.394 29.003,195.791 26.884,193.800 27.789 M242.494 104.781 C 243.432 104.990,245.910 105.427,248.000 105.753 C 250.090 106.078,252.520 106.529,253.400 106.754 C 254.280 106.980,255.540 107.278,256.200 107.418 C 267.889 109.887,287.417 119.268,297.056 127.045 C 298.631 128.316,300.718 132.018,303.909 139.200 C 304.349 140.190,305.072 141.810,305.517 142.800 C 305.961 143.790,307.528 147.660,308.998 151.400 C 310.469 155.140,311.825 158.560,312.012 159.000 C 312.199 159.440,312.741 160.970,313.217 162.400 C 313.693 163.830,314.234 165.360,314.420 165.800 C 315.214 167.685,318.876 179.354,319.567 182.200 C 319.932 183.705,320.192 184.661,321.227 188.300 C 321.620 189.683,321.807 190.419,322.778 194.400 C 323.878 198.911,324.980 204.199,326.402 211.800 C 326.608 212.900,326.957 214.700,327.177 215.800 C 327.398 216.900,327.767 219.330,327.997 221.200 C 328.228 223.070,328.591 225.770,328.804 227.200 C 329.252 230.205,330.018 238.347,330.178 241.820 C 330.239 243.129,330.418 247.530,330.577 251.600 L 330.865 259.000 328.857 261.625 C 316.921 277.226,297.556 288.389,276.800 291.631 C 272.400 292.318,268.337 292.818,265.190 293.061 L 262.181 293.292 260.390 291.274 C 257.820 288.377,251.295 280.450,248.270 276.550 C 247.047 274.973,247.533 274.291,250.604 273.275 C 261.341 269.722,271.081 264.278,278.800 257.514 C 283.360 253.519,287.768 248.351,285.162 250.056 C 284.633 250.402,283.300 251.211,282.200 251.852 C 281.100 252.494,279.660 253.337,279.000 253.725 C 274.518 256.362,259.990 262.730,254.200 264.596 C 253.100 264.950,251.840 265.393,251.400 265.580 C 244.865 268.353,229.609 271.637,215.800 273.244 C 210.622 273.847,192.156 273.853,187.000 273.253 C 179.759 272.412,170.396 270.991,168.400 270.432 C 161.022 268.365,156.338 266.851,152.156 265.182 C 142.121 261.179,137.550 258.666,127.447 251.600 C 125.274 250.080,120.456 245.652,119.953 244.712 C 118.527 242.048,125.119 230.006,130.157 226.069 C 135.025 222.267,135.378 222.173,136.800 224.303 C 139.202 227.899,144.365 232.445,148.933 234.987 C 160.382 241.357,175.580 234.177,179.197 220.690 C 179.892 218.099,178.421 218.277,198.700 218.328 C 217.484 218.376,218.000 218.420,218.000 219.996 C 218.000 225.273,226.040 234.117,232.962 236.454 C 244.821 240.458,259.270 231.785,261.377 219.400 C 262.074 215.300,262.269 214.961,264.459 214.051 C 274.720 209.787,283.686 198.331,286.413 186.000 C 286.681 184.790,287.094 183.260,287.332 182.600 C 287.614 181.816,287.814 173.765,287.909 159.360 L 288.054 137.320 286.127 135.710 C 281.079 131.494,267.079 122.889,258.800 118.914 C 248.910 114.164,243.997 112.247,234.029 109.245 C 232.254 108.710,232.142 107.874,233.604 106.055 L 234.934 104.400 237.861 104.400 C 239.471 104.400,241.556 104.571,242.494 104.781 M164.772 105.770 C 166.041 107.121,165.738 107.371,161.095 108.809 C 142.845 114.458,119.922 125.889,110.612 133.982 C 108.147 136.125,108.740 135.963,115.985 132.515 C 156.237 113.360,206.733 108.607,242.600 120.597 C 257.440 125.558,277.012 135.981,280.911 141.000 C 281.689 142.001,280.977 176.016,280.089 180.298 C 277.843 191.124,273.427 198.257,265.151 204.426 C 261.868 206.873,261.799 206.871,260.659 204.300 C 250.612 181.635,223.186 183.404,217.198 207.104 L 216.767 208.808 198.720 208.704 L 180.673 208.600 179.984 206.156 C 172.874 180.941,139.566 182.938,135.233 208.840 L 134.537 213.000 131.646 214.600 C 122.152 219.854,115.899 228.625,112.814 241.012 C 111.461 246.443,111.442 246.353,114.816 250.600 C 122.122 259.798,135.607 268.950,147.900 273.052 C 152.115 274.458,152.294 273.867,144.848 283.113 C 136.647 293.296,137.100 292.846,135.283 292.617 C 134.467 292.514,132.360 292.324,130.600 292.194 C 106.754 290.433,81.916 277.553,70.644 261.102 L 69.089 258.832 69.154 252.716 C 69.316 237.583,71.677 218.346,75.435 201.541 C 76.239 197.943,77.047 194.280,77.229 193.400 C 79.786 181.054,89.242 153.620,95.911 139.200 C 101.410 127.311,100.718 128.132,110.557 121.827 C 122.103 114.427,139.470 107.882,153.000 105.831 C 161.858 104.488,163.560 104.480,164.772 105.770 " stroke="none" fill="#242424" fill-rule="evenodd"></path><path id="path3" d="M191.500 27.489 C 192.215 27.578,193.385 27.578,194.100 27.489 C 194.815 27.401,194.230 27.328,192.800 27.328 C 191.370 27.328,190.785 27.401,191.500 27.489 M205.900 27.489 C 206.615 27.578,207.785 27.578,208.500 27.489 C 209.215 27.401,208.630 27.328,207.200 27.328 C 205.770 27.328,205.185 27.401,205.900 27.489 M187.105 27.883 C 187.602 27.979,188.322 27.975,188.705 27.875 C 189.087 27.775,188.680 27.696,187.800 27.701 C 186.920 27.705,186.607 27.787,187.105 27.883 M211.505 27.883 C 212.002 27.979,212.722 27.975,213.105 27.875 C 213.487 27.775,213.080 27.696,212.200 27.701 C 211.320 27.705,211.007 27.787,211.505 27.883 M164.600 30.800 C 164.096 31.017,164.022 31.144,164.400 31.144 C 164.730 31.144,165.360 30.989,165.800 30.800 C 166.304 30.583,166.378 30.456,166.000 30.456 C 165.670 30.456,165.040 30.611,164.600 30.800 M234.200 30.800 C 234.640 30.989,235.270 31.144,235.600 31.144 C 235.978 31.144,235.904 31.017,235.400 30.800 C 234.960 30.611,234.330 30.456,234.000 30.456 C 233.622 30.456,233.696 30.583,234.200 30.800 M82.981 72.900 L 81.400 74.600 83.100 73.019 C 84.035 72.149,84.800 71.384,84.800 71.319 C 84.800 71.016,84.452 71.319,82.981 72.900 M72.581 83.300 L 71.000 85.000 72.700 83.419 C 73.635 82.549,74.400 81.784,74.400 81.719 C 74.400 81.416,74.052 81.719,72.581 83.300 M242.705 105.483 C 243.202 105.579,243.922 105.575,244.305 105.475 C 244.687 105.375,244.280 105.296,243.400 105.301 C 242.520 105.305,242.207 105.387,242.705 105.483 M281.600 117.779 C 281.600 117.889,282.140 118.259,282.800 118.600 C 283.460 118.941,284.000 119.131,284.000 119.021 C 284.000 118.911,283.460 118.541,282.800 118.200 C 282.140 117.859,281.600 117.669,281.600 117.779 M297.594 128.203 C 299.187 130.121,299.321 130.245,298.886 129.396 C 298.659 128.953,298.052 128.234,297.537 127.798 C 296.633 127.034,296.635 127.048,297.594 128.203 M287.896 136.437 C 288.273 136.920,288.418 141.972,288.500 157.437 L 288.607 177.800 288.704 157.349 C 288.793 138.281,288.753 136.861,288.100 136.349 C 287.481 135.863,287.457 135.873,287.896 136.437 M30.629 165.029 C 30.481 165.615,30.438 166.172,30.532 166.266 C 30.627 166.360,30.824 165.958,30.971 165.371 C 31.119 164.785,31.162 164.228,31.068 164.134 C 30.973 164.040,30.776 164.442,30.629 165.029 M27.701 187.800 C 27.705 188.680,27.787 188.993,27.883 188.495 C 27.979 187.998,27.975 187.278,27.875 186.895 C 27.775 186.513,27.696 186.920,27.701 187.800 M27.328 192.800 C 27.328 194.230,27.401 194.815,27.489 194.100 C 27.578 193.385,27.578 192.215,27.489 191.500 C 27.401 190.785,27.328 191.370,27.328 192.800 M321.656 192.400 C 321.656 192.730,321.811 193.360,322.000 193.800 C 322.217 194.304,322.344 194.378,322.344 194.000 C 322.344 193.670,322.189 193.040,322.000 192.600 C 321.783 192.096,321.656 192.022,321.656 192.400 M322.468 195.800 C 322.462 196.240,322.611 196.960,322.800 197.400 C 323.238 198.419,323.238 197.368,322.800 196.000 C 322.543 195.196,322.477 195.157,322.468 195.800 M275.389 206.900 L 272.600 209.800 275.500 207.011 C 277.095 205.477,278.400 204.172,278.400 204.111 C 278.400 203.817,277.980 204.206,275.389 206.900 M27.328 207.200 C 27.328 208.630,27.401 209.215,27.489 208.500 C 27.578 207.785,27.578 206.615,27.489 205.900 C 27.401 205.185,27.328 205.770,27.328 207.200 M324.828 206.833 C 324.844 207.365,325.019 208.160,325.219 208.600 C 325.471 209.158,325.507 208.915,325.338 207.800 C 325.055 205.943,324.787 205.436,324.828 206.833 M27.701 212.200 C 27.705 213.080,27.787 213.393,27.883 212.895 C 27.979 212.398,27.975 211.678,27.875 211.295 C 27.775 210.913,27.696 211.320,27.701 212.200 M327.293 220.800 C 327.293 221.570,327.375 221.885,327.476 221.500 C 327.576 221.115,327.576 220.485,327.476 220.100 C 327.375 219.715,327.293 220.030,327.293 220.800 M140.200 229.200 C 141.283 230.300,142.260 231.200,142.370 231.200 C 142.480 231.200,141.683 230.300,140.600 229.200 C 139.517 228.100,138.540 227.200,138.430 227.200 C 138.320 227.200,139.117 228.100,140.200 229.200 M328.493 229.600 C 328.493 230.370,328.575 230.685,328.676 230.300 C 328.776 229.915,328.776 229.285,328.676 228.900 C 328.575 228.515,328.493 228.830,328.493 229.600 M173.178 231.500 L 171.800 233.000 173.300 231.622 C 174.696 230.338,174.984 230.000,174.678 230.000 C 174.612 230.000,173.937 230.675,173.178 231.500 M328.914 234.200 C 328.917 235.300,328.995 235.703,329.087 235.095 C 329.179 234.486,329.177 233.586,329.082 233.095 C 328.987 232.603,328.911 233.100,328.914 234.200 M30.456 234.000 C 30.456 234.330,30.611 234.960,30.800 235.400 C 31.017 235.904,31.144 235.978,31.144 235.600 C 31.144 235.270,30.989 234.640,30.800 234.200 C 30.583 233.696,30.456 233.622,30.456 234.000 M329.293 238.000 C 329.293 238.770,329.375 239.085,329.476 238.700 C 329.576 238.315,329.576 237.685,329.476 237.300 C 329.375 236.915,329.293 237.230,329.293 238.000 M329.728 245.200 C 329.728 246.630,329.801 247.215,329.889 246.500 C 329.978 245.785,329.978 244.615,329.889 243.900 C 329.801 243.185,329.728 243.770,329.728 245.200 M120.400 244.925 C 120.400 244.994,120.985 245.579,121.700 246.225 L 123.000 247.400 121.825 246.100 C 120.730 244.888,120.400 244.616,120.400 244.925 M330.148 253.200 C 330.148 255.510,330.214 256.455,330.295 255.300 C 330.376 254.145,330.376 252.255,330.295 251.100 C 330.214 249.945,330.148 250.890,330.148 253.200 M282.300 251.029 C 280.805 251.840,280.896 252.178,282.400 251.400 C 283.060 251.059,283.600 250.694,283.600 250.590 C 283.600 250.332,283.557 250.347,282.300 251.029 M281.586 255.500 L 279.400 257.800 281.700 255.614 C 283.837 253.582,284.183 253.200,283.886 253.200 C 283.824 253.200,282.789 254.235,281.586 255.500 M321.988 268.700 L 319.400 271.400 322.100 268.812 C 323.585 267.388,324.800 266.173,324.800 266.112 C 324.800 265.817,324.393 266.192,321.988 268.700 M262.700 268.629 C 261.149 269.470,261.325 269.761,262.900 268.959 C 264.408 268.193,264.675 267.994,264.167 268.016 C 263.965 268.025,263.305 268.301,262.700 268.629 M229.300 270.676 C 229.685 270.776,230.315 270.776,230.700 270.676 C 231.085 270.575,230.770 270.493,230.000 270.493 C 229.230 270.493,228.915 270.575,229.300 270.676 M176.100 271.476 C 176.485 271.576,177.115 271.576,177.500 271.476 C 177.885 271.375,177.570 271.293,176.800 271.293 C 176.030 271.293,175.715 271.375,176.100 271.476 M317.775 272.500 L 316.600 273.800 317.900 272.625 C 318.615 271.979,319.200 271.394,319.200 271.325 C 319.200 271.016,318.870 271.288,317.775 272.500 M253.275 272.673 C 252.326 273.009,251.622 273.355,251.710 273.443 C 251.920 273.653,254.491 272.790,254.980 272.345 C 255.455 271.914,255.384 271.927,253.275 272.673 M216.705 272.683 C 217.202 272.779,217.922 272.775,218.305 272.675 C 218.687 272.575,218.280 272.496,217.400 272.501 C 216.520 272.505,216.207 272.587,216.705 272.683 M190.311 273.093 C 191.251 273.178,192.691 273.177,193.511 273.091 C 194.330 273.005,193.560 272.936,191.800 272.937 C 190.040 272.939,189.370 273.009,190.311 273.093 M209.511 273.093 C 210.451 273.178,211.891 273.177,212.711 273.091 C 213.530 273.005,212.760 272.936,211.000 272.937 C 209.240 272.939,208.570 273.009,209.511 273.093 M199.116 273.497 C 200.499 273.575,202.659 273.574,203.916 273.495 C 205.172 273.416,204.040 273.352,201.400 273.353 C 198.760 273.353,197.732 273.418,199.116 273.497 M309.400 278.635 L 308.200 279.666 309.500 278.806 C 310.215 278.333,310.800 277.868,310.800 277.773 C 310.800 277.473,310.631 277.578,309.400 278.635 M256.000 285.725 C 256.000 285.794,256.585 286.379,257.300 287.025 L 258.600 288.200 257.425 286.900 C 256.330 285.688,256.000 285.416,256.000 285.725 M260.000 290.525 C 260.000 290.594,260.585 291.179,261.300 291.825 L 262.600 293.000 261.425 291.700 C 260.330 290.488,260.000 290.216,260.000 290.525 M274.500 291.476 C 274.885 291.576,275.515 291.576,275.900 291.476 C 276.285 291.375,275.970 291.293,275.200 291.293 C 274.430 291.293,274.115 291.375,274.500 291.476 M268.100 292.276 C 268.485 292.376,269.115 292.376,269.500 292.276 C 269.885 292.175,269.570 292.093,268.800 292.093 C 268.030 292.093,267.715 292.175,268.100 292.276 M264.900 292.676 C 265.285 292.776,265.915 292.776,266.300 292.676 C 266.685 292.575,266.370 292.493,265.600 292.493 C 264.830 292.493,264.515 292.575,264.900 292.676 M72.600 316.800 C 73.459 317.680,74.252 318.400,74.362 318.400 C 74.472 318.400,73.859 317.680,73.000 316.800 C 72.141 315.920,71.348 315.200,71.238 315.200 C 71.128 315.200,71.741 315.920,72.600 316.800 M83.000 327.200 C 83.859 328.080,84.652 328.800,84.762 328.800 C 84.872 328.800,84.259 328.080,83.400 327.200 C 82.541 326.320,81.748 325.600,81.638 325.600 C 81.528 325.600,82.141 326.320,83.000 327.200 " stroke="none" fill="#796e35" fill-rule="evenodd"></path><path id="path4" d="M280.000 46.686 C 280.000 47.040,280.563 47.398,284.600 49.611 C 369.590 96.196,398.264 208.193,346.451 291.200 C 324.250 326.767,286.650 355.363,248.600 365.618 C 195.599 379.903,143.185 371.323,101.354 341.513 C 99.569 340.241,97.876 339.200,97.592 339.200 C 95.730 339.200,112.255 349.591,121.800 354.422 C 192.745 390.332,279.156 373.303,330.981 313.200 C 400.588 232.474,381.651 109.102,291.000 52.720 C 284.950 48.957,280.000 46.241,280.000 46.686 M158.200 105.072 C 141.238 107.228,123.729 113.385,110.557 121.827 C 100.718 128.132,101.410 127.311,95.911 139.200 C 89.242 153.620,79.786 181.054,77.229 193.400 C 77.047 194.280,76.239 197.943,75.435 201.541 C 71.677 218.346,69.316 237.583,69.154 252.716 L 69.089 258.832 70.644 261.102 C 81.916 277.553,106.754 290.433,130.600 292.194 C 132.360 292.324,134.467 292.514,135.283 292.617 C 137.100 292.846,136.647 293.296,144.848 283.113 C 152.294 273.867,152.115 274.458,147.900 273.052 C 135.607 268.950,122.122 259.798,114.816 250.600 C 111.442 246.353,111.461 246.443,112.814 241.012 C 115.899 228.625,122.152 219.854,131.646 214.600 L 134.537 213.000 135.233 208.840 C 139.566 182.938,172.874 180.941,179.984 206.156 L 180.673 208.600 198.720 208.704 L 216.767 208.808 217.198 207.104 C 219.892 196.441,227.751 189.304,238.007 188.206 C 246.869 187.257,255.971 193.724,260.659 204.300 C 261.799 206.871,261.868 206.873,265.151 204.426 C 273.427 198.257,277.843 191.124,280.089 180.298 C 280.977 176.016,281.689 142.001,280.911 141.000 C 277.012 135.981,257.440 125.558,242.600 120.597 C 206.656 108.581,155.942 113.390,115.800 132.621 C 112.720 134.097,109.713 135.311,109.117 135.319 C 108.141 135.332,107.286 136.219,107.776 136.710 C 107.986 136.919,108.485 136.701,115.800 133.192 C 129.834 126.460,144.331 121.515,157.800 118.865 C 164.905 117.468,167.780 117.058,179.200 115.812 C 193.234 114.282,216.088 114.633,224.800 116.514 C 225.350 116.633,226.880 116.949,228.200 117.216 C 231.655 117.915,238.759 119.861,243.000 121.270 C 252.139 124.306,271.059 133.372,272.800 135.550 C 273.006 135.807,274.480 136.867,277.101 138.640 C 277.926 139.197,279.095 140.093,279.700 140.630 L 280.800 141.606 280.800 155.682 C 280.800 181.984,278.224 191.654,268.865 200.483 C 263.619 205.432,261.997 206.249,261.286 204.300 C 253.355 182.559,226.583 182.101,217.692 203.553 C 217.202 204.738,216.800 206.126,216.800 206.639 C 216.800 208.148,216.185 208.200,198.246 208.200 L 181.093 208.200 180.543 206.054 C 178.908 199.675,170.797 189.600,167.297 189.600 C 167.106 189.600,166.151 189.204,165.175 188.720 C 162.963 187.624,154.020 187.389,151.600 188.364 C 141.566 192.404,135.351 200.236,134.508 209.906 L 134.290 212.411 131.160 214.273 C 125.667 217.541,124.123 218.939,118.920 225.360 C 116.918 227.832,113.769 235.049,112.445 240.200 C 110.792 246.632,110.740 246.305,114.092 250.600 C 121.635 260.266,139.618 272.264,149.537 274.247 C 151.119 274.564,151.155 274.401,148.900 277.159 C 144.917 282.031,144.160 282.974,142.794 284.761 C 140.952 287.171,140.126 288.171,138.216 290.303 L 136.632 292.072 133.016 291.858 C 126.003 291.444,116.947 289.787,111.000 287.830 C 110.120 287.541,108.590 287.067,107.600 286.777 C 96.444 283.511,78.135 270.990,72.522 262.788 C 72.151 262.244,71.746 261.710,71.623 261.600 C 69.547 259.740,68.878 252.100,69.997 243.021 C 70.215 241.249,70.675 236.830,71.019 233.200 C 71.814 224.796,72.242 221.509,73.594 213.400 C 74.027 210.804,75.488 203.232,75.755 202.200 C 75.869 201.760,76.229 200.230,76.555 198.800 C 77.821 193.247,79.295 187.278,80.062 184.600 C 81.905 178.164,83.270 173.757,83.624 173.105 C 83.831 172.723,84.000 171.969,84.000 171.429 C 84.000 170.889,84.159 170.349,84.354 170.229 C 84.549 170.108,84.796 169.513,84.904 168.905 C 85.084 167.895,85.866 165.595,88.070 159.600 C 88.514 158.390,89.022 157.040,89.199 156.600 C 89.375 156.160,89.750 155.170,90.032 154.400 C 90.738 152.471,95.060 142.159,95.983 140.200 C 101.442 128.609,101.407 128.666,104.716 126.313 C 111.003 121.843,121.524 116.076,128.200 113.439 C 129.740 112.830,131.540 112.097,132.200 111.809 C 135.758 110.257,147.947 107.021,152.800 106.340 C 165.492 104.559,168.795 105.705,159.700 108.734 C 156.895 109.668,153.700 110.768,152.600 111.178 C 148.790 112.598,144.994 114.070,143.800 114.591 C 143.140 114.878,141.430 115.619,140.000 116.236 C 131.696 119.819,118.341 127.336,112.600 131.659 C 110.999 132.864,108.814 134.948,108.979 135.112 C 109.089 135.222,109.930 134.633,110.849 133.803 C 119.202 126.257,143.046 114.396,161.095 108.809 C 165.738 107.371,166.041 107.121,164.772 105.770 C 163.850 104.789,161.987 104.591,158.200 105.072 " stroke="none" fill="#2f4962" fill-rule="evenodd"></path><path id="path5" d="M197.500 27.496 C 198.875 27.574,201.125 27.574,202.500 27.496 C 203.875 27.418,202.750 27.354,200.000 27.354 C 197.250 27.354,196.125 27.418,197.500 27.496 M185.200 28.055 C 182.890 28.240,179.830 28.557,178.400 28.761 L 175.800 29.131 178.200 29.008 C 182.982 28.763,193.410 27.967,193.800 27.817 C 194.456 27.565,189.701 27.697,185.200 28.055 M206.200 27.817 C 206.597 27.969,217.198 28.776,221.800 29.004 L 224.200 29.123 221.800 28.792 C 216.608 28.075,204.980 27.348,206.200 27.817 M172.400 29.600 L 170.600 29.880 172.200 29.900 C 173.080 29.911,174.250 29.776,174.800 29.600 C 176.063 29.195,175.002 29.195,172.400 29.600 M225.200 29.593 C 226.188 29.916,229.489 30.135,229.167 29.856 C 229.075 29.776,227.920 29.611,226.600 29.488 C 225.109 29.349,224.579 29.389,225.200 29.593 M167.600 30.447 C 163.803 31.190,162.620 31.509,163.494 31.554 C 164.322 31.597,166.484 31.174,169.400 30.400 C 171.000 29.976,169.855 30.005,167.600 30.447 M230.600 30.401 C 233.304 31.165,236.327 31.689,236.847 31.483 C 237.151 31.362,236.932 31.249,236.360 31.232 C 235.788 31.214,234.798 31.035,234.160 30.833 C 233.522 30.631,232.190 30.375,231.200 30.264 C 229.762 30.102,229.641 30.130,230.600 30.401 M157.600 32.631 C 155.510 33.170,153.620 33.698,153.400 33.805 C 152.181 34.396,160.153 32.671,161.800 31.986 C 163.326 31.352,161.426 31.644,157.600 32.631 M238.200 31.986 C 239.843 32.669,247.828 34.398,246.600 33.806 C 245.982 33.508,238.271 31.597,237.809 31.627 C 237.584 31.642,237.760 31.804,238.200 31.986 M150.400 34.623 C 149.410 34.944,147.430 35.576,146.000 36.027 C 142.846 37.020,139.249 38.332,138.305 38.832 C 137.923 39.034,137.383 39.210,137.105 39.223 C 136.390 39.256,132.492 41.168,133.105 41.186 C 133.383 41.194,133.923 41.041,134.305 40.847 C 137.009 39.471,143.669 37.074,150.500 35.018 C 151.765 34.637,152.800 34.252,152.800 34.163 C 152.800 33.906,152.329 33.996,150.400 34.623 M247.200 34.136 C 247.200 34.240,248.235 34.637,249.500 35.018 C 254.622 36.560,259.195 38.123,262.000 39.291 C 262.550 39.520,263.450 39.884,264.000 40.100 C 264.550 40.316,265.313 40.652,265.695 40.847 C 266.077 41.041,266.617 41.194,266.895 41.186 C 267.586 41.166,263.559 39.252,262.767 39.223 C 262.418 39.210,262.014 39.081,261.868 38.935 C 261.568 38.635,258.833 37.626,254.400 36.179 C 248.792 34.349,247.200 33.897,247.200 34.136 M130.600 41.886 C 103.940 52.623,74.335 77.450,56.513 104.016 C 50.659 112.741,39.756 133.340,41.592 132.205 C 41.816 132.066,42.000 131.725,42.000 131.447 C 42.000 130.635,49.606 115.785,52.351 111.238 C 61.258 96.481,71.423 84.212,85.000 71.830 C 89.044 68.141,95.391 62.992,99.000 60.471 C 105.650 55.825,107.354 54.695,111.216 52.364 C 115.781 49.608,130.633 42.000,131.447 42.000 C 131.725 42.000,132.064 41.820,132.200 41.600 C 132.504 41.109,132.550 41.100,130.600 41.886 M267.795 41.592 C 267.934 41.816,268.226 42.000,268.445 42.000 C 268.663 42.000,270.947 43.008,273.521 44.240 C 279.158 46.940,280.131 47.336,279.799 46.799 C 279.664 46.579,279.390 46.400,279.191 46.400 C 278.991 46.400,277.067 45.536,274.914 44.480 C 270.126 42.130,267.459 41.049,267.795 41.592 M233.604 106.055 C 232.142 107.874,232.254 108.710,234.029 109.245 C 234.563 109.406,236.506 110.011,238.346 110.590 C 240.186 111.168,241.764 111.569,241.852 111.481 C 241.940 111.393,240.434 110.833,238.506 110.235 C 231.973 108.211,231.946 108.185,234.171 106.028 L 235.542 104.699 239.230 104.876 C 241.259 104.973,242.577 104.918,242.159 104.754 C 241.742 104.590,239.945 104.444,238.167 104.428 L 234.934 104.400 233.604 106.055 M247.400 105.833 C 252.303 106.778,252.547 106.813,252.279 106.546 C 251.969 106.236,246.558 105.231,245.400 105.268 C 244.960 105.282,245.860 105.536,247.400 105.833 M253.233 106.944 C 253.325 107.023,253.940 107.208,254.600 107.356 C 255.476 107.552,255.638 107.515,255.200 107.218 C 254.660 106.853,252.832 106.598,253.233 106.944 M258.777 108.421 C 260.194 108.838,261.422 109.111,261.506 109.027 C 261.701 108.832,257.458 107.590,256.738 107.631 C 256.442 107.647,257.359 108.003,258.777 108.421 M262.400 109.474 C 265.641 110.611,272.743 113.383,274.900 114.353 C 276.385 115.020,277.600 115.477,277.600 115.367 C 277.600 114.842,263.492 109.166,262.350 109.232 C 261.935 109.255,261.947 109.315,262.400 109.474 M243.200 112.166 C 243.750 112.460,244.650 112.812,245.200 112.949 C 245.750 113.086,245.480 112.852,244.600 112.429 C 242.790 111.558,241.668 111.348,243.200 112.166 M247.800 113.971 C 248.680 114.394,249.670 114.747,250.000 114.755 C 250.686 114.771,248.639 113.827,247.174 113.451 C 246.638 113.314,246.920 113.548,247.800 113.971 M250.800 115.001 C 250.800 115.273,255.277 117.256,255.466 117.067 C 255.558 116.975,254.861 116.570,253.917 116.167 C 252.972 115.764,251.885 115.297,251.500 115.130 C 251.115 114.963,250.800 114.905,250.800 115.001 M278.033 115.745 C 278.125 115.825,279.985 116.828,282.166 117.976 C 286.287 120.143,294.078 125.067,297.200 127.477 L 299.000 128.866 297.489 127.481 C 294.733 124.955,286.634 119.779,280.888 116.871 C 278.682 115.755,277.515 115.294,278.033 115.745 M256.000 117.350 C 256.000 117.458,257.575 118.307,259.500 119.236 C 267.155 122.932,281.318 131.694,286.127 135.710 L 288.054 137.320 287.927 159.560 C 287.857 171.792,287.919 180.900,288.065 179.800 C 288.211 178.700,288.346 168.605,288.365 157.366 L 288.400 136.931 285.300 134.614 C 278.301 129.381,266.046 121.888,259.400 118.779 C 257.860 118.058,256.465 117.398,256.300 117.311 C 256.135 117.224,256.000 117.241,256.000 117.350 M299.079 129.900 C 299.367 130.694,300.400 132.297,300.400 131.950 C 300.400 131.602,299.163 129.200,298.983 129.200 C 298.896 129.200,298.939 129.515,299.079 129.900 M40.091 134.855 C 39.601 135.959,39.200 137.088,39.200 137.365 C 39.200 137.641,39.081 137.986,38.935 138.132 C 38.501 138.566,34.957 148.839,34.255 151.700 C 33.762 153.706,34.314 152.838,35.018 150.500 C 36.507 145.554,37.992 141.188,39.237 138.100 C 39.437 137.605,39.780 136.750,40.000 136.200 C 40.220 135.650,40.610 134.750,40.867 134.201 C 41.124 133.651,41.255 133.122,41.158 133.025 C 41.061 132.928,40.581 133.752,40.091 134.855 M301.732 135.264 C 303.362 139.068,304.957 142.377,305.094 142.240 C 305.178 142.155,304.517 140.518,303.624 138.603 C 302.731 136.688,302.000 134.969,302.000 134.784 C 302.000 134.599,301.811 134.330,301.579 134.187 C 301.348 134.044,301.417 134.529,301.732 135.264 M305.930 144.600 C 307.718 149.138,308.107 150.026,308.250 149.883 C 308.443 149.690,305.987 143.527,305.507 143.000 C 305.307 142.780,305.497 143.500,305.930 144.600 M309.375 153.092 C 309.875 154.720,311.566 158.607,311.583 158.169 C 311.592 157.932,311.132 156.582,310.560 155.169 C 309.508 152.569,308.872 151.455,309.375 153.092 M32.668 157.541 C 32.052 160.038,31.641 162.174,31.755 162.288 C 31.868 162.402,32.070 161.978,32.203 161.347 C 32.795 158.540,33.306 156.521,33.674 155.532 C 33.892 154.944,34.007 154.134,33.930 153.732 C 33.852 153.329,33.284 155.043,32.668 157.541 M312.661 161.600 C 313.117 163.402,314.052 165.603,313.784 164.244 C 313.659 163.608,313.298 162.528,312.982 161.844 C 312.551 160.908,312.471 160.848,312.661 161.600 M31.232 163.640 C 31.214 164.212,31.035 165.202,30.833 165.840 C 30.631 166.478,30.375 167.810,30.264 168.800 C 30.102 170.238,30.130 170.359,30.401 169.400 C 31.165 166.696,31.689 163.673,31.483 163.153 C 31.362 162.849,31.249 163.068,31.232 163.640 M314.374 166.646 C 315.405 170.053,317.157 174.920,317.166 174.400 C 317.178 173.690,314.655 166.122,314.282 165.749 C 314.140 165.607,314.182 166.011,314.374 166.646 M29.466 173.168 C 29.319 174.578,29.274 175.807,29.366 175.900 C 29.614 176.147,30.115 171.746,29.910 171.130 C 29.813 170.840,29.614 171.757,29.466 173.168 M317.215 175.233 C 317.282 175.985,319.557 183.256,319.576 182.779 C 319.605 182.035,317.778 175.644,317.438 175.305 C 317.307 175.174,317.207 175.142,317.215 175.233 M28.865 177.800 C 28.825 178.680,28.706 180.120,28.602 181.000 L 28.412 182.600 28.823 181.000 C 29.048 180.120,29.167 178.680,29.086 177.800 L 28.940 176.200 28.865 177.800 M287.023 183.271 C 286.883 184.002,286.571 185.370,286.329 186.311 C 286.088 187.253,285.977 188.110,286.084 188.217 C 286.191 188.324,286.598 187.051,286.989 185.389 C 287.381 183.728,287.605 182.272,287.489 182.155 C 287.372 182.038,287.162 182.541,287.023 183.271 M27.855 188.337 C 27.682 191.492,27.625 194.158,27.728 194.262 C 27.982 194.516,28.524 184.862,28.327 183.600 C 28.241 183.050,28.029 185.182,27.855 188.337 M319.844 184.600 C 320.173 186.071,320.402 186.390,320.394 185.367 C 320.391 184.945,320.205 184.330,319.982 184.000 C 319.685 183.562,319.648 183.724,319.844 184.600 M320.644 187.400 C 320.973 188.871,321.202 189.190,321.194 188.167 C 321.191 187.745,321.005 187.130,320.782 186.800 C 320.485 186.362,320.448 186.524,320.644 187.400 M321.246 189.600 C 321.265 189.930,321.424 190.650,321.600 191.200 L 321.920 192.200 321.954 191.200 C 321.973 190.650,321.813 189.930,321.600 189.600 C 321.255 189.067,321.216 189.067,321.246 189.600 M322.258 193.600 C 322.575 195.325,322.802 195.651,322.794 194.367 C 322.791 193.835,322.611 193.130,322.394 192.800 C 322.118 192.378,322.077 192.615,322.258 193.600 M282.709 196.109 C 281.895 197.678,281.288 199.021,281.359 199.092 C 281.431 199.164,282.161 197.944,282.982 196.382 C 283.803 194.819,284.410 193.477,284.332 193.398 C 284.253 193.320,283.523 194.540,282.709 196.109 M27.354 200.000 C 27.354 202.750,27.418 203.875,27.496 202.500 C 27.574 201.125,27.574 198.875,27.496 197.500 C 27.418 196.125,27.354 197.250,27.354 200.000 M322.812 195.833 C 322.842 196.691,324.331 202.538,324.364 201.925 C 324.404 201.175,323.234 195.901,322.968 195.635 C 322.876 195.542,322.806 195.632,322.812 195.833 M279.837 201.216 C 276.812 205.786,269.555 211.876,264.602 213.999 C 262.537 214.884,261.999 215.387,262.031 216.400 C 262.043 216.755,262.192 216.650,262.397 216.142 C 262.595 215.652,263.700 214.847,264.979 214.261 C 270.016 211.955,278.141 204.941,280.523 200.843 C 281.560 199.059,281.099 199.310,279.837 201.216 M324.662 204.200 C 324.796 205.080,324.972 205.875,325.053 205.967 C 325.356 206.310,325.129 204.168,324.781 203.400 C 324.529 202.842,324.493 203.085,324.662 204.200 M27.891 211.200 C 28.004 214.390,28.166 217.075,28.249 217.167 C 28.501 217.444,28.322 211.190,27.992 208.200 C 27.792 206.381,27.756 207.431,27.891 211.200 M325.481 208.400 C 325.606 209.610,325.774 210.675,325.854 210.767 C 326.135 211.087,325.917 208.191,325.587 207.200 C 325.371 206.554,325.334 206.980,325.481 208.400 M326.273 212.800 C 326.404 213.790,326.576 214.675,326.656 214.767 C 326.957 215.114,326.728 212.564,326.390 211.800 C 326.153 211.266,326.114 211.598,326.273 212.800 M327.003 217.000 C 327.171 218.100,327.535 220.620,327.812 222.600 C 328.089 224.580,328.334 225.614,328.358 224.897 C 328.410 223.302,327.268 215.527,326.936 215.221 C 326.805 215.099,326.835 215.900,327.003 217.000 M261.440 218.840 C 261.293 219.757,261.252 220.585,261.347 220.680 C 261.442 220.776,261.646 220.110,261.800 219.200 C 261.954 218.290,261.996 217.462,261.893 217.360 C 261.790 217.257,261.587 217.923,261.440 218.840 M28.697 220.400 C 28.815 222.050,28.976 223.475,29.056 223.567 C 29.322 223.875,29.109 219.813,28.794 218.600 C 28.612 217.897,28.572 218.642,28.697 220.400 M180.184 218.600 C 179.643 219.036,178.612 221.945,178.896 222.229 C 178.993 222.326,179.286 221.692,179.547 220.819 C 179.808 219.947,180.192 219.129,180.399 219.001 C 180.966 218.650,216.906 218.743,217.236 219.095 C 217.394 219.263,217.609 219.760,217.715 220.200 C 217.897 220.959,217.910 220.956,217.954 220.149 C 217.979 219.681,217.751 219.091,217.446 218.838 C 216.718 218.234,180.920 218.005,180.184 218.600 M218.028 221.292 C 217.982 221.765,219.286 224.848,219.458 224.675 C 219.545 224.588,219.266 223.725,218.837 222.758 C 218.408 221.791,218.044 221.131,218.028 221.292 M259.525 224.331 C 252.795 238.368,235.788 241.865,224.696 231.492 C 223.809 230.662,223.012 230.055,222.924 230.142 C 222.643 230.423,226.236 233.356,228.604 234.779 C 239.990 241.620,254.086 236.833,260.105 224.080 C 260.759 222.694,261.227 221.493,261.145 221.412 C 261.063 221.330,260.334 222.643,259.525 224.331 M132.405 224.316 C 128.540 226.928,122.024 234.557,122.905 235.438 C 122.981 235.514,123.694 234.457,124.490 233.088 C 126.768 229.168,132.638 223.795,135.409 223.093 C 136.189 222.896,136.189 222.892,135.400 222.863 C 134.960 222.846,133.612 223.500,132.405 224.316 M177.634 224.709 C 175.813 228.464,172.985 231.587,168.390 234.917 C 167.438 235.607,167.452 235.607,168.763 234.917 C 172.063 233.180,179.724 223.990,178.714 222.981 C 178.624 222.891,178.138 223.669,177.634 224.709 M136.403 224.301 C 138.535 228.810,148.768 236.253,154.472 237.442 C 157.977 238.173,168.176 236.843,167.125 235.792 C 167.037 235.704,165.803 236.001,164.383 236.451 C 155.181 239.367,144.839 234.903,136.889 224.583 C 136.261 223.769,136.110 223.681,136.403 224.301 M29.485 226.400 C 29.607 227.830,29.772 229.075,29.853 229.167 C 30.120 229.470,29.911 226.222,29.585 225.000 C 29.382 224.244,29.346 224.762,29.485 226.400 M220.267 226.406 C 220.659 227.070,221.398 228.105,221.910 228.706 C 222.421 229.308,222.175 228.765,221.363 227.500 C 219.824 225.103,219.028 224.307,220.267 226.406 M328.689 229.200 C 328.811 230.850,328.976 232.275,329.056 232.367 C 329.342 232.697,329.113 228.177,328.794 227.200 C 328.601 226.608,328.558 227.424,328.689 229.200 M30.264 231.200 C 30.375 232.190,30.631 233.522,30.833 234.160 C 31.035 234.798,31.214 235.788,31.232 236.360 C 31.249 236.932,31.362 237.151,31.483 236.847 C 31.689 236.327,31.165 233.304,30.401 230.600 C 30.130 229.641,30.102 229.762,30.264 231.200 M329.465 236.600 C 329.585 238.800,329.832 240.870,330.015 241.200 C 330.216 241.562,330.271 241.166,330.154 240.200 C 330.047 239.320,329.800 237.250,329.604 235.600 C 329.270 232.780,329.262 232.840,329.465 236.600 M121.796 237.472 C 121.458 238.281,121.233 239.100,121.297 239.291 C 121.361 239.482,121.716 238.820,122.087 237.819 C 122.893 235.645,122.670 235.379,121.796 237.472 M31.627 237.809 C 31.597 238.271,33.508 245.982,33.806 246.600 C 34.136 247.285,33.705 244.728,32.997 241.800 C 32.296 238.906,31.674 237.095,31.627 237.809 M119.805 243.185 C 119.668 243.617,119.732 244.299,119.947 244.702 C 120.452 245.644,125.969 250.716,127.200 251.368 C 127.530 251.543,126.900 250.902,125.800 249.943 C 120.994 245.754,119.893 244.479,120.161 243.411 C 120.459 242.224,120.168 242.039,119.805 243.185 M330.295 251.400 L 330.465 259.000 328.334 261.800 C 320.615 271.942,308.930 280.512,295.000 286.248 C 293.240 286.972,291.994 287.573,292.231 287.583 C 294.483 287.673,306.994 281.179,313.584 276.499 C 318.589 272.943,325.072 266.615,328.820 261.625 L 330.792 259.000 330.744 254.400 C 330.717 251.870,330.567 248.450,330.410 246.800 C 330.246 245.075,330.197 247.031,330.295 251.400 M34.251 248.300 C 34.716 250.225,37.521 258.546,38.195 260.000 C 39.087 261.925,38.719 260.537,37.082 255.800 C 36.321 253.600,35.390 250.765,35.012 249.500 C 34.313 247.159,33.767 246.298,34.251 248.300 M284.600 249.959 C 279.111 253.811,262.974 261.351,253.896 264.305 C 252.848 264.646,252.066 264.999,252.158 265.091 C 252.813 265.747,273.340 257.055,279.000 253.725 C 279.660 253.337,281.100 252.494,282.200 251.852 C 283.300 251.211,284.633 250.402,285.162 250.056 C 287.768 248.351,283.360 253.519,278.800 257.514 C 272.888 262.694,263.780 268.289,256.801 271.027 C 255.258 271.633,254.064 272.198,254.149 272.282 C 255.094 273.228,270.593 264.717,276.400 260.064 C 283.420 254.438,290.303 245.956,284.600 249.959 M128.217 252.027 C 128.828 253.016,141.098 260.636,141.474 260.260 C 141.565 260.169,140.236 259.328,138.520 258.391 C 136.804 257.454,133.730 255.553,131.689 254.165 C 129.648 252.777,128.086 251.815,128.217 252.027 M143.600 261.381 C 143.600 262.262,164.923 270.048,167.151 269.980 C 167.508 269.969,165.640 269.327,163.000 268.552 C 158.016 267.089,149.189 263.778,145.913 262.142 C 144.000 261.187,143.600 261.055,143.600 261.381 M249.800 265.748 C 248.562 266.281,240.687 268.529,236.800 269.458 C 234.740 269.951,234.714 269.971,236.400 269.772 C 239.123 269.450,250.564 266.202,251.380 265.518 C 251.951 265.040,251.186 265.151,249.800 265.748 M41.855 269.271 C 46.939 282.359,60.246 302.820,72.374 316.200 C 78.909 323.410,93.912 336.930,97.734 339.054 C 98.673 339.575,96.900 338.044,92.800 334.791 C 81.274 325.646,68.698 312.574,60.870 301.600 C 57.581 296.988,54.654 292.578,52.351 288.762 C 49.606 284.215,42.000 269.365,42.000 268.553 C 42.000 268.275,41.816 267.934,41.592 267.795 C 41.367 267.656,41.486 268.321,41.855 269.271 M168.400 270.319 C 169.087 270.742,175.175 271.758,175.439 271.494 C 175.535 271.398,174.306 271.104,172.707 270.841 C 171.108 270.578,169.350 270.269,168.800 270.156 C 168.078 270.007,167.967 270.052,168.400 270.319 M232.200 270.400 L 231.000 270.705 232.200 270.747 C 232.860 270.769,233.670 270.613,234.000 270.400 C 234.743 269.920,234.087 269.920,232.200 270.400 M227.200 271.200 C 226.138 271.424,226.041 271.502,226.800 271.524 C 227.350 271.541,228.520 271.405,229.400 271.223 C 230.734 270.947,230.800 270.893,229.800 270.899 C 229.140 270.902,227.970 271.038,227.200 271.200 M177.600 271.993 C 178.588 272.316,181.889 272.535,181.567 272.256 C 181.475 272.176,180.320 272.011,179.000 271.888 C 177.509 271.749,176.979 271.789,177.600 271.993 M222.400 272.000 L 220.600 272.280 222.200 272.300 C 223.080 272.311,224.250 272.176,224.800 272.000 C 226.063 271.595,225.002 271.595,222.400 272.000 M183.400 272.783 C 189.305 274.090,215.514 274.082,219.471 272.773 L 220.600 272.399 219.370 272.576 C 211.847 273.655,196.494 273.664,183.800 272.597 C 181.845 272.433,181.836 272.437,183.400 272.783 M250.204 273.342 C 247.550 274.292,247.099 275.041,248.270 276.550 C 251.260 280.405,257.814 288.370,260.348 291.228 L 262.096 293.200 264.548 293.153 C 265.897 293.127,267.540 292.967,268.200 292.799 C 268.862 292.630,267.772 292.586,265.769 292.701 L 262.139 292.910 258.349 288.355 C 246.973 274.682,246.987 274.704,249.574 274.007 C 251.535 273.479,254.008 272.422,253.200 272.458 C 252.870 272.472,251.522 272.870,250.204 273.342 M286.800 289.040 C 285.810 289.363,283.650 289.912,282.000 290.259 C 280.350 290.607,278.370 291.043,277.600 291.228 L 276.200 291.563 277.600 291.430 C 280.683 291.138,289.200 289.032,289.200 288.561 C 289.200 288.314,288.755 288.403,286.800 289.040 M271.800 292.000 L 269.800 292.274 271.600 292.297 C 272.590 292.310,273.850 292.176,274.400 292.000 C 275.644 291.601,274.706 291.601,271.800 292.000 " stroke="none" fill="#4e4a2c" fill-rule="evenodd"></path><path id="path6" d="M311.768 4.645 C 309.806 7.199,306.784 11.113,305.053 13.344 C 303.322 15.575,300.668 19.020,299.155 21.000 C 297.642 22.980,295.278 26.058,293.902 27.839 C 292.526 29.621,290.514 32.231,289.431 33.639 C 288.348 35.048,285.694 38.495,283.535 41.300 C 281.375 44.105,279.749 46.400,279.922 46.400 C 280.095 46.400,281.758 44.411,283.618 41.979 C 285.478 39.548,288.440 35.693,290.200 33.412 C 291.960 31.131,295.244 26.866,297.498 23.933 C 303.865 15.646,309.109 8.832,312.534 4.395 C 314.258 2.162,315.594 0.260,315.502 0.169 C 315.411 0.078,313.731 2.092,311.768 4.645 M234.062 106.383 C 232.754 108.010,233.043 108.863,234.874 108.775 C 235.163 108.761,234.995 108.587,234.500 108.388 C 231.784 107.296,235.149 105.044,239.074 105.326 C 241.385 105.493,241.783 105.459,240.600 105.199 C 236.923 104.388,235.450 104.655,234.062 106.383 M244.600 106.000 C 245.040 106.189,245.850 106.338,246.400 106.332 L 247.400 106.320 246.400 106.000 C 245.850 105.824,245.040 105.674,244.600 105.668 L 243.800 105.656 244.600 106.000 M256.000 108.172 C 256.000 108.439,260.463 109.670,260.673 109.461 C 260.775 109.358,259.873 108.987,258.668 108.637 C 256.336 107.959,256.000 107.900,256.000 108.172 M237.568 109.628 C 238.760 110.051,239.805 110.328,239.890 110.244 C 240.076 110.057,236.433 108.788,235.829 108.829 C 235.593 108.845,236.376 109.205,237.568 109.628 M261.800 110.000 C 262.240 110.189,262.870 110.344,263.200 110.344 C 263.578 110.344,263.504 110.217,263.000 110.000 C 262.560 109.811,261.930 109.656,261.600 109.656 C 261.222 109.656,261.296 109.783,261.800 110.000 M264.400 110.800 C 264.730 111.013,265.270 111.188,265.600 111.188 C 266.133 111.188,266.133 111.145,265.600 110.800 C 265.270 110.587,264.730 110.412,264.400 110.412 C 263.867 110.412,263.867 110.455,264.400 110.800 M244.200 111.971 C 245.080 112.394,246.070 112.739,246.400 112.738 C 247.084 112.734,245.105 111.825,243.600 111.450 C 243.050 111.314,243.320 111.548,244.200 111.971 M248.000 113.366 C 248.550 113.660,249.450 114.012,250.000 114.149 C 250.550 114.286,250.280 114.052,249.400 113.629 C 247.590 112.758,246.468 112.548,248.000 113.366 M271.200 113.366 C 271.750 113.660,272.650 114.012,273.200 114.149 C 273.750 114.286,273.480 114.052,272.600 113.629 C 270.790 112.758,269.668 112.548,271.200 113.366 M252.800 115.395 C 252.800 115.605,255.535 116.811,255.949 116.783 C 256.270 116.762,253.501 115.239,253.100 115.217 C 252.935 115.208,252.800 115.288,252.800 115.395 M258.033 117.753 C 258.441 118.127,264.000 120.789,264.000 120.610 C 264.000 120.387,258.578 117.600,258.143 117.600 C 257.991 117.600,257.942 117.669,258.033 117.753 M282.400 118.579 C 282.400 118.689,282.940 119.059,283.600 119.400 C 284.260 119.741,284.800 119.931,284.800 119.821 C 284.800 119.711,284.260 119.341,283.600 119.000 C 282.940 118.659,282.400 118.469,282.400 118.579 M285.200 120.190 C 285.200 120.294,285.785 120.665,286.500 121.014 L 287.800 121.648 286.800 120.833 C 285.837 120.048,285.200 119.792,285.200 120.190 M264.400 120.943 C 264.400 121.109,266.117 122.115,270.800 124.692 C 272.253 125.492,272.407 125.524,271.600 124.860 C 270.524 123.975,264.400 120.643,264.400 120.943 M288.600 122.207 C 289.040 122.566,289.760 123.035,290.200 123.251 L 291.000 123.644 290.200 122.993 C 289.760 122.634,289.040 122.165,288.600 121.949 L 287.800 121.556 288.600 122.207 M293.200 125.127 C 293.200 125.292,293.756 125.756,294.436 126.158 C 295.116 126.559,296.331 127.447,297.136 128.129 C 298.519 129.302,298.545 129.309,297.600 128.249 C 296.477 126.989,293.200 124.664,293.200 125.127 M273.000 125.896 C 273.699 126.584,279.718 130.415,279.867 130.266 C 279.945 130.188,278.792 129.315,277.305 128.327 C 274.456 126.435,272.326 125.232,273.000 125.896 M280.563 130.741 C 280.716 130.988,281.687 131.765,282.720 132.468 C 283.754 133.172,284.690 133.849,284.800 133.974 C 284.910 134.098,285.630 134.616,286.400 135.124 L 287.800 136.048 286.533 134.924 C 284.823 133.407,280.216 130.179,280.563 130.741 M275.583 207.036 C 274.602 208.046,272.284 209.936,270.431 211.236 C 268.579 212.536,267.201 213.600,267.371 213.600 C 268.032 213.600,273.906 209.154,275.785 207.231 C 276.877 206.114,277.679 205.200,277.568 205.200 C 277.457 205.200,276.564 206.026,275.583 207.036 M180.500 219.065 C 180.225 219.176,180.005 219.567,180.012 219.933 C 180.023 220.535,180.064 220.532,180.432 219.900 C 181.127 218.707,216.630 218.833,217.010 220.030 C 217.154 220.487,217.361 220.772,217.469 220.664 C 219.053 219.080,184.199 217.572,180.500 219.065 M133.776 224.207 C 133.062 224.764,133.093 224.773,134.156 224.317 C 135.250 223.847,135.370 223.896,136.353 225.210 C 136.925 225.975,138.454 227.680,139.751 229.000 L 142.109 231.400 139.622 228.607 C 138.254 227.070,136.841 225.315,136.481 224.707 C 135.747 223.464,134.923 223.311,133.776 224.207 M177.302 226.500 C 175.767 229.069,173.295 231.832,170.969 233.579 C 167.877 235.900,167.499 236.278,169.187 235.357 C 171.133 234.295,176.417 228.937,177.526 226.900 C 178.609 224.910,178.437 224.601,177.302 226.500 M129.371 227.504 C 128.255 228.547,126.995 229.859,126.571 230.421 C 126.147 230.982,126.421 230.802,127.181 230.021 C 127.941 229.239,129.291 227.932,130.181 227.116 C 131.071 226.300,131.710 225.627,131.600 225.621 C 131.490 225.614,130.487 226.462,129.371 227.504 M219.883 226.739 C 220.277 227.476,221.193 228.736,221.917 229.539 L 223.234 231.000 221.917 229.190 C 221.193 228.194,220.277 226.934,219.883 226.390 C 219.193 225.438,219.193 225.451,219.883 226.739 M142.405 231.473 C 142.408 231.653,143.080 232.250,143.899 232.800 C 146.071 234.258,146.742 234.581,145.600 233.620 C 143.702 232.022,142.400 231.147,142.405 231.473 M224.400 232.424 C 226.484 234.213,229.006 235.946,230.170 236.388 C 231.741 236.986,231.400 236.584,229.500 235.600 C 227.814 234.726,224.323 232.096,224.067 231.507 C 223.993 231.338,223.723 231.205,223.467 231.211 C 223.210 231.217,223.630 231.762,224.400 232.424 M124.614 233.035 C 124.241 233.604,124.027 234.161,124.139 234.272 C 124.250 234.383,124.629 233.918,124.981 233.237 C 125.759 231.733,125.544 231.615,124.614 233.035 M250.019 235.410 C 248.819 236.175,248.023 236.800,248.250 236.800 C 248.686 236.800,252.400 234.440,252.400 234.162 C 252.400 233.903,252.312 233.949,250.019 235.410 M147.032 234.852 C 147.297 235.281,150.420 236.914,150.611 236.723 C 150.684 236.650,149.858 236.118,148.777 235.541 C 147.695 234.964,146.910 234.654,147.032 234.852 M164.400 237.200 C 163.867 237.545,163.867 237.588,164.400 237.588 C 164.730 237.588,165.270 237.413,165.600 237.200 C 166.133 236.855,166.133 236.812,165.600 236.812 C 165.270 236.812,164.730 236.987,164.400 237.200 M153.800 237.986 C 154.557 238.325,157.921 238.564,157.567 238.254 C 157.475 238.174,156.410 238.000,155.200 237.868 C 153.763 237.712,153.278 237.752,153.800 237.986 M160.000 238.000 L 158.200 238.280 160.000 238.312 C 160.990 238.329,162.160 238.189,162.600 238.000 L 163.400 237.656 162.600 237.688 C 162.160 237.706,160.990 237.846,160.000 238.000 M121.800 238.800 C 121.650 239.273,121.617 239.750,121.727 239.860 C 121.837 239.970,122.050 239.673,122.200 239.200 C 122.350 238.727,122.383 238.250,122.273 238.140 C 122.163 238.030,121.950 238.327,121.800 238.800 M237.500 238.293 C 238.435 238.377,239.965 238.377,240.900 238.293 C 241.835 238.209,241.070 238.140,239.200 238.140 C 237.330 238.140,236.565 238.209,237.500 238.293 M121.000 241.200 C 120.850 241.673,120.817 242.150,120.927 242.260 C 121.037 242.370,121.250 242.073,121.400 241.600 C 121.550 241.127,121.583 240.650,121.473 240.540 C 121.363 240.430,121.150 240.727,121.000 241.200 M120.460 243.675 C 120.404 244.680,126.889 251.231,127.897 251.187 C 128.063 251.179,127.793 250.834,127.295 250.418 C 123.109 246.927,120.826 244.592,120.682 243.656 L 120.520 242.600 120.460 243.675 M128.594 251.591 C 128.730 251.810,129.669 252.560,130.682 253.257 C 131.695 253.953,132.401 254.325,132.251 254.083 C 132.102 253.841,131.162 253.091,130.163 252.417 C 129.165 251.743,128.459 251.371,128.594 251.591 M280.200 252.000 C 279.540 252.437,279.180 252.792,279.400 252.788 C 279.801 252.782,281.976 251.223,281.600 251.212 C 281.490 251.208,280.860 251.563,280.200 252.000 M133.400 254.987 C 134.581 255.978,138.873 258.460,139.068 258.265 C 139.161 258.173,138.193 257.509,136.918 256.790 C 135.643 256.072,134.150 255.221,133.600 254.900 C 132.642 254.340,132.634 254.344,133.400 254.987 M281.775 255.700 L 280.600 257.000 281.900 255.825 C 282.615 255.179,283.200 254.594,283.200 254.525 C 283.200 254.216,282.870 254.488,281.775 255.700 M277.649 259.216 C 275.362 261.284,275.807 261.271,278.200 259.200 C 279.217 258.320,279.903 257.607,279.724 257.616 C 279.546 257.625,278.612 258.345,277.649 259.216 M145.200 261.600 C 145.970 262.022,146.780 262.366,147.000 262.366 C 147.220 262.366,146.770 262.022,146.000 261.600 C 145.230 261.178,144.420 260.834,144.200 260.834 C 143.980 260.834,144.430 261.178,145.200 261.600 M273.281 262.572 C 271.629 263.740,271.368 264.000,271.848 264.000 C 272.058 264.000,272.853 263.467,273.615 262.816 C 275.272 261.400,275.108 261.280,273.281 262.572 M149.800 263.615 C 151.120 264.245,152.380 264.754,152.600 264.746 C 152.820 264.738,151.920 264.216,150.600 263.585 C 149.280 262.955,148.020 262.446,147.800 262.454 C 147.580 262.462,148.480 262.984,149.800 263.615 M157.600 266.570 C 157.600 266.796,161.732 268.001,161.907 267.826 C 162.053 267.681,158.480 266.400,157.929 266.400 C 157.748 266.400,157.600 266.476,157.600 266.570 M166.200 269.200 C 166.640 269.389,167.270 269.544,167.600 269.544 C 167.978 269.544,167.904 269.417,167.400 269.200 C 166.960 269.011,166.330 268.856,166.000 268.856 C 165.622 268.856,165.696 268.983,166.200 269.200 M320.175 270.100 L 319.000 271.400 320.300 270.225 C 321.015 269.579,321.600 268.994,321.600 268.925 C 321.600 268.616,321.270 268.888,320.175 270.100 M169.600 270.000 C 171.142 270.494,171.964 270.494,171.200 270.000 C 170.870 269.787,170.150 269.627,169.600 269.646 L 168.600 269.680 169.600 270.000 M174.000 270.800 C 175.368 271.238,176.419 271.238,175.400 270.800 C 174.960 270.611,174.240 270.462,173.800 270.468 C 173.157 270.477,173.196 270.543,174.000 270.800 M226.800 270.800 C 226.005 271.314,227.004 271.314,228.200 270.800 L 229.000 270.456 228.200 270.434 C 227.760 270.422,227.130 270.587,226.800 270.800 M180.300 271.882 C 180.795 271.978,181.605 271.978,182.100 271.882 C 182.595 271.787,182.190 271.709,181.200 271.709 C 180.210 271.709,179.805 271.787,180.300 271.882 M185.200 272.417 C 186.410 272.584,188.210 272.713,189.200 272.704 L 191.000 272.687 188.800 272.383 C 187.590 272.216,185.790 272.087,184.800 272.096 L 183.000 272.113 185.200 272.417 M214.000 272.400 L 212.600 272.695 214.200 272.741 C 215.080 272.767,216.070 272.613,216.400 272.400 C 217.124 271.932,216.223 271.932,214.000 272.400 M198.120 273.098 C 200.055 273.172,203.115 273.171,204.920 273.097 C 206.724 273.023,205.140 272.963,201.400 272.964 C 197.660 272.964,196.184 273.025,198.120 273.098 M248.198 274.803 C 247.968 275.175,249.404 277.600,249.854 277.600 C 249.964 277.600,249.671 277.061,249.202 276.403 C 248.733 275.744,248.461 275.024,248.598 274.803 C 248.735 274.581,248.757 274.400,248.647 274.400 C 248.537 274.400,248.335 274.581,248.198 274.803 M262.341 292.501 C 262.543 292.703,263.133 292.801,263.654 292.719 C 264.455 292.593,264.398 292.537,263.287 292.352 C 262.493 292.221,262.119 292.279,262.341 292.501 M93.980 342.302 C 73.398 366.837,46.400 399.395,46.400 399.682 C 46.400 399.886,47.800 398.375,49.511 396.326 C 51.222 394.277,60.798 382.790,70.792 370.800 C 80.785 358.810,89.063 348.910,89.186 348.800 C 89.310 348.690,90.216 347.610,91.200 346.400 C 92.184 345.190,93.084 344.110,93.200 344.000 C 94.080 343.165,96.867 339.533,96.731 339.397 C 96.637 339.303,95.399 340.611,93.980 342.302 " stroke="none" fill="#949440" fill-rule="evenodd"></path><path id="path7" d="M195.900 27.098 C 198.155 27.170,201.845 27.170,204.100 27.098 C 206.355 27.027,204.510 26.969,200.000 26.969 C 195.490 26.969,193.645 27.027,195.900 27.098 M183.600 27.600 L 181.400 27.870 183.600 27.891 C 184.810 27.903,186.880 27.779,188.200 27.615 L 190.600 27.318 188.200 27.324 C 186.880 27.328,184.810 27.452,183.600 27.600 M211.800 27.615 C 213.120 27.779,215.190 27.906,216.400 27.898 L 218.600 27.882 216.200 27.585 C 214.880 27.421,212.810 27.294,211.600 27.302 L 209.400 27.318 211.800 27.615 M176.600 28.400 L 175.000 28.686 176.400 28.720 C 177.170 28.739,178.520 28.605,179.400 28.423 L 181.000 28.092 179.600 28.103 C 178.830 28.109,177.480 28.242,176.600 28.400 M220.600 28.423 C 221.480 28.605,222.830 28.742,223.600 28.727 C 224.905 28.702,224.878 28.678,223.200 28.380 C 220.650 27.926,218.379 27.964,220.600 28.423 M171.200 29.200 L 169.800 29.495 171.200 29.507 C 171.970 29.515,173.050 29.376,173.600 29.200 L 174.600 28.880 173.600 28.893 C 173.050 28.900,171.970 29.038,171.200 29.200 M226.400 29.200 C 226.950 29.376,228.030 29.517,228.800 29.514 L 230.200 29.508 228.600 29.177 C 226.463 28.735,224.996 28.750,226.400 29.200 M167.000 30.000 C 165.922 30.274,165.902 30.306,166.800 30.313 C 167.350 30.317,168.250 30.176,168.800 30.000 C 170.144 29.569,168.692 29.569,167.000 30.000 M231.200 30.000 C 231.750 30.176,232.650 30.317,233.200 30.313 C 234.098 30.306,234.078 30.274,233.000 30.000 C 231.308 29.569,229.856 29.569,231.200 30.000 M163.000 30.800 C 161.911 31.077,161.893 31.107,162.800 31.125 C 163.350 31.135,164.160 30.989,164.600 30.800 C 165.586 30.376,164.666 30.376,163.000 30.800 M235.400 30.781 C 236.168 31.129,238.310 31.356,237.967 31.053 C 237.875 30.972,237.080 30.796,236.200 30.662 C 235.085 30.493,234.842 30.529,235.400 30.781 M159.600 31.600 C 158.796 31.857,158.757 31.923,159.400 31.932 C 159.840 31.938,160.560 31.789,161.000 31.600 C 162.019 31.162,160.968 31.162,159.600 31.600 M239.000 31.600 C 239.440 31.789,240.160 31.938,240.600 31.932 C 241.243 31.923,241.204 31.857,240.400 31.600 C 239.032 31.162,237.981 31.162,239.000 31.600 M156.400 32.400 C 155.596 32.657,155.557 32.723,156.200 32.732 C 156.640 32.738,157.360 32.589,157.800 32.400 C 158.819 31.962,157.768 31.962,156.400 32.400 M242.200 32.400 C 242.640 32.589,243.360 32.738,243.800 32.732 C 244.443 32.723,244.404 32.657,243.600 32.400 C 242.232 31.962,241.181 31.962,242.200 32.400 M152.000 33.583 C 150.790 33.987,150.057 34.336,150.372 34.359 C 150.928 34.399,152.985 33.823,154.600 33.175 C 156.182 32.540,154.185 32.854,152.000 33.583 M245.400 33.147 C 246.778 33.748,249.032 34.401,249.628 34.372 C 249.943 34.356,249.564 34.109,248.786 33.822 C 247.084 33.195,244.185 32.617,245.400 33.147 M144.498 35.891 C 142.242 36.682,140.467 37.400,140.553 37.487 C 140.713 37.646,149.251 34.882,149.564 34.569 C 150.017 34.117,148.223 34.585,144.498 35.891 M250.436 34.569 C 250.750 34.884,259.288 37.646,259.448 37.485 C 259.535 37.398,257.670 36.666,255.303 35.859 C 251.296 34.492,250.021 34.154,250.436 34.569 M135.882 39.068 C 133.948 39.855,132.431 40.564,132.512 40.646 C 132.655 40.788,139.625 38.090,139.967 37.761 C 140.399 37.344,139.106 37.758,135.882 39.068 M260.033 37.761 C 260.375 38.090,267.345 40.788,267.487 40.646 C 267.569 40.565,266.006 39.846,264.015 39.049 C 260.634 37.696,259.629 37.371,260.033 37.761 M123.788 44.565 C 100.332 56.201,81.226 71.502,64.835 91.777 C 63.067 93.964,61.719 95.852,61.840 95.973 C 61.961 96.094,62.223 95.902,62.422 95.547 C 62.621 95.191,63.997 93.393,65.479 91.550 C 77.951 76.048,93.717 62.282,110.816 51.965 C 115.481 49.149,130.200 41.600,131.024 41.600 C 131.315 41.600,131.664 41.420,131.800 41.200 C 132.278 40.426,131.309 40.833,123.788 44.565 M268.200 41.200 C 268.336 41.420,268.630 41.600,268.853 41.600 C 269.076 41.600,271.163 42.503,273.490 43.606 C 275.817 44.709,277.786 45.547,277.865 45.468 C 278.012 45.322,268.649 40.800,268.199 40.800 C 268.064 40.800,268.064 40.980,268.200 41.200 M59.635 98.553 C 57.889 100.916,52.668 108.867,51.200 111.400 C 49.510 114.314,51.095 112.262,53.207 108.800 C 55.197 105.540,56.874 103.055,60.160 98.500 C 60.993 97.345,61.574 96.400,61.450 96.400 C 61.326 96.400,60.509 97.369,59.635 98.553 M48.295 116.478 C 45.875 120.961,45.431 121.871,45.899 121.400 C 46.117 121.180,47.064 119.560,48.004 117.800 C 48.943 116.040,49.892 114.371,50.113 114.090 C 50.334 113.810,50.418 113.485,50.301 113.368 C 50.185 113.251,49.282 114.651,48.295 116.478 M43.033 126.833 C 41.773 129.497,40.841 131.775,40.962 131.895 C 41.082 132.016,41.302 131.774,41.449 131.357 C 41.596 130.941,42.593 128.728,43.664 126.439 C 44.735 124.151,45.547 122.214,45.468 122.135 C 45.389 122.056,44.293 124.170,43.033 126.833 M39.031 136.031 C 38.224 138.047,37.630 139.764,37.712 139.846 C 37.794 139.928,38.519 138.342,39.323 136.323 C 40.127 134.304,40.720 132.587,40.642 132.508 C 40.563 132.429,39.838 134.014,39.031 136.031 M35.813 144.813 C 34.981 147.244,34.386 149.319,34.491 149.424 C 34.596 149.529,35.347 147.610,36.160 145.160 C 36.973 142.710,37.568 140.635,37.482 140.549 C 37.397 140.463,36.646 142.382,35.813 144.813 M288.984 158.200 C 288.984 167.880,289.036 171.783,289.100 166.873 C 289.163 161.963,289.163 154.043,289.100 149.273 C 289.036 144.503,288.984 148.520,288.984 158.200 M33.444 152.359 C 33.056 153.741,32.834 154.967,32.950 155.083 C 33.066 155.199,33.274 154.778,33.413 154.147 C 33.552 153.516,33.848 152.514,34.073 151.920 C 34.297 151.327,34.406 150.617,34.314 150.343 C 34.223 150.070,33.831 150.977,33.444 152.359 M32.250 156.850 C 31.917 158.517,32.240 158.840,32.600 157.200 C 32.752 156.509,32.793 155.859,32.691 155.758 C 32.589 155.656,32.391 156.147,32.250 156.850 M31.450 160.050 C 31.117 161.717,31.440 162.040,31.800 160.400 C 31.952 159.709,31.993 159.059,31.891 158.958 C 31.789 158.856,31.591 159.347,31.450 160.050 M30.849 162.600 C 30.816 163.040,30.696 163.850,30.583 164.400 L 30.377 165.400 30.806 164.419 C 31.042 163.879,31.161 163.069,31.072 162.619 C 30.913 161.821,30.907 161.821,30.849 162.600 M29.840 167.640 C 29.693 168.557,29.652 169.385,29.747 169.480 C 29.842 169.576,30.046 168.910,30.200 168.000 C 30.354 167.090,30.396 166.262,30.293 166.160 C 30.190 166.057,29.987 166.723,29.840 167.640 M29.046 171.947 C 28.889 173.127,28.846 174.179,28.950 174.283 C 29.217 174.550,29.722 170.964,29.507 170.325 C 29.411 170.036,29.203 170.766,29.046 171.947 M28.264 177.750 C 28.101 179.263,28.050 180.583,28.151 180.684 C 28.414 180.947,28.910 176.650,28.719 175.753 C 28.631 175.339,28.426 176.238,28.264 177.750 M27.391 185.791 C 27.232 188.126,27.196 190.129,27.311 190.244 C 27.426 190.359,27.650 188.543,27.809 186.209 C 27.968 183.874,28.004 181.871,27.889 181.756 C 27.774 181.641,27.550 183.457,27.391 185.791 M287.400 184.400 C 287.248 185.091,287.207 185.741,287.309 185.842 C 287.411 185.944,287.609 185.453,287.750 184.750 C 288.083 183.083,287.760 182.760,287.400 184.400 M26.967 200.000 C 26.967 204.290,27.026 206.045,27.098 203.900 C 27.170 201.755,27.170 198.245,27.098 196.100 C 27.026 193.955,26.967 195.710,26.967 200.000 M322.456 197.200 C 322.456 197.530,322.611 198.160,322.800 198.600 C 323.017 199.104,323.144 199.178,323.144 198.800 C 323.144 198.470,322.989 197.840,322.800 197.400 C 322.583 196.896,322.456 196.822,322.456 197.200 M27.302 211.600 C 27.294 212.810,27.421 214.880,27.585 216.200 L 27.882 218.600 27.898 216.400 C 27.906 215.190,27.779 213.120,27.615 211.800 L 27.318 209.400 27.302 211.600 M28.275 221.800 C 28.398 223.340,28.566 224.675,28.649 224.767 C 28.926 225.073,28.710 221.416,28.379 220.200 C 28.173 219.443,28.135 220.034,28.275 221.800 M327.269 222.800 C 327.256 223.350,327.395 224.520,327.577 225.400 C 327.789 226.426,327.916 226.641,327.931 226.000 C 327.944 225.450,327.805 224.280,327.623 223.400 C 327.411 222.374,327.284 222.159,327.269 222.800 M28.863 226.200 C 28.854 226.640,28.995 227.720,29.177 228.600 L 29.508 230.200 29.514 228.800 C 29.517 228.030,29.376 226.950,29.200 226.400 C 28.941 225.591,28.877 225.553,28.863 226.200 M328.101 229.400 C 328.105 230.280,328.187 230.593,328.283 230.095 C 328.379 229.598,328.375 228.878,328.275 228.495 C 328.175 228.113,328.096 228.520,328.101 229.400 M29.687 231.000 C 29.691 231.440,29.832 232.340,30.000 233.000 C 30.274 234.078,30.306 234.098,30.313 233.200 C 30.317 232.650,30.176 231.750,30.000 231.200 C 29.749 230.416,29.681 230.373,29.687 231.000 M328.501 232.600 C 328.505 233.480,328.587 233.793,328.683 233.295 C 328.779 232.798,328.775 232.078,328.675 231.695 C 328.575 231.313,328.496 231.720,328.501 232.600 M30.662 236.200 C 30.796 237.080,30.972 237.875,31.053 237.967 C 31.356 238.310,31.129 236.168,30.781 235.400 C 30.529 234.842,30.493 235.085,30.662 236.200 M328.914 237.800 C 328.917 238.900,328.995 239.303,329.087 238.695 C 329.179 238.086,329.177 237.186,329.082 236.695 C 328.987 236.203,328.911 236.700,328.914 237.800 M31.268 238.800 C 31.288 239.839,31.918 241.546,31.932 240.600 C 31.938 240.160,31.789 239.440,31.600 239.000 C 31.389 238.510,31.261 238.432,31.268 238.800 M329.301 241.400 C 329.305 242.280,329.387 242.593,329.483 242.095 C 329.579 241.598,329.575 240.878,329.475 240.495 C 329.375 240.113,329.296 240.520,329.301 241.400 M32.068 242.000 C 32.088 243.039,32.718 244.746,32.732 243.800 C 32.738 243.360,32.589 242.640,32.400 242.200 C 32.189 241.710,32.061 241.632,32.068 242.000 M33.050 245.986 C 33.366 247.726,34.334 250.394,34.372 249.628 C 34.401 249.032,33.748 246.778,33.147 245.400 C 32.907 244.850,32.877 245.032,33.050 245.986 M329.717 253.352 C 329.713 256.625,329.829 259.055,329.973 258.752 C 330.118 258.448,330.121 255.770,329.980 252.800 L 329.723 247.400 329.717 253.352 M286.203 248.395 C 286.058 248.630,286.237 248.684,286.644 248.528 C 287.207 248.312,287.285 248.436,287.084 249.233 C 286.851 250.157,286.866 250.165,287.420 249.424 C 287.739 248.996,288.000 248.501,288.000 248.324 C 288.000 247.862,286.495 247.922,286.203 248.395 M34.431 250.900 C 34.480 251.697,35.935 255.456,35.969 254.875 C 35.986 254.586,35.709 253.461,35.354 252.375 C 34.726 250.454,34.368 249.883,34.431 250.900 M36.201 256.374 C 36.656 257.850,37.567 259.853,37.578 259.400 C 37.593 258.789,36.591 256.055,36.224 255.707 C 36.046 255.538,36.036 255.838,36.201 256.374 M39.228 264.092 C 39.182 264.565,40.486 267.648,40.658 267.475 C 40.745 267.388,40.466 266.525,40.037 265.558 C 39.608 264.591,39.244 263.931,39.228 264.092 M322.575 267.700 L 321.400 269.000 322.700 267.825 C 323.415 267.179,324.000 266.594,324.000 266.525 C 324.000 266.216,323.670 266.488,322.575 267.700 M40.800 268.174 C 40.800 268.618,44.525 276.408,44.669 276.264 C 44.750 276.183,44.093 274.564,43.209 272.667 C 42.324 270.770,41.600 269.044,41.600 268.832 C 41.600 268.620,41.420 268.336,41.200 268.200 C 40.980 268.064,40.800 268.052,40.800 268.174 M317.715 272.010 C 316.789 272.885,316.167 273.600,316.334 273.600 C 316.501 273.600,317.341 272.880,318.200 272.000 C 320.210 269.941,319.900 269.948,317.715 272.010 M221.800 271.600 L 221.000 271.944 221.800 271.966 C 222.240 271.978,222.870 271.813,223.200 271.600 C 223.995 271.086,222.996 271.086,221.800 271.600 M46.002 279.200 C 47.793 282.785,50.122 286.811,50.301 286.632 C 50.418 286.515,50.334 286.190,50.113 285.910 C 49.892 285.629,48.943 283.960,48.004 282.200 C 46.440 279.270,44.836 276.867,46.002 279.200 M51.219 288.600 C 57.417 299.768,70.786 316.338,81.776 326.473 C 87.302 331.569,96.811 339.458,96.783 338.923 C 96.773 338.745,95.082 337.281,93.024 335.668 C 90.966 334.056,88.945 332.436,88.533 332.068 C 88.120 331.701,86.436 330.206,84.791 328.747 C 79.886 324.397,74.872 319.332,69.589 313.387 C 67.654 311.210,62.036 304.195,60.470 302.000 C 57.990 298.525,53.746 292.182,52.708 290.400 C 51.348 288.063,50.052 286.496,51.219 288.600 M271.000 291.600 C 269.911 291.877,269.893 291.907,270.800 291.925 C 271.350 291.935,272.160 291.789,272.600 291.600 C 273.586 291.176,272.666 291.176,271.000 291.600 M264.105 292.287 C 264.714 292.379,265.614 292.377,266.105 292.282 C 266.597 292.187,266.100 292.111,265.000 292.114 C 263.900 292.117,263.497 292.195,264.105 292.287 " stroke="none" fill="#ac8c2c" fill-rule="evenodd"></path><path id="path8" d="" stroke="none" fill="#515c46" fill-rule="evenodd"></path></g></svg>