<svg id="svg" version="1.1" xmlns="http://www.w3.org/2000/svg" xmlns:xlink="http://www.w3.org/1999/xlink" width="400" height="400" viewBox="0, 0, 400,400"><g id="svgg"><path id="path0" d="M57.390 174.900 C 57.289 175.175,57.159 178.910,57.103 183.200 L 57.000 191.000 53.900 191.117 L 50.800 191.234 50.800 197.400 L 50.800 203.566 53.900 203.683 L 57.000 203.800 57.218 220.600 C 57.467 239.773,57.574 240.464,60.867 244.215 C 63.485 247.197,66.346 247.990,74.500 247.996 L 80.800 248.000 80.800 241.200 L 80.800 234.400 78.787 234.400 C 73.195 234.400,73.200 234.415,73.200 217.626 L 73.200 203.600 76.792 203.600 C 81.117 203.600,80.880 204.022,80.715 196.600 L 80.600 191.400 76.900 191.285 L 73.200 191.170 73.200 183.265 C 73.200 177.650,73.061 175.221,72.720 174.880 C 72.022 174.182,57.648 174.201,57.390 174.900 M112.400 190.998 C 105.782 191.988,101.452 193.657,97.645 196.688 L 95.604 198.314 100.392 202.792 L 105.179 207.271 107.290 206.079 C 118.036 200.014,132.510 205.093,129.211 213.771 L 128.820 214.800 119.110 214.800 C 107.746 214.800,104.547 215.282,99.796 217.709 C 89.386 223.027,90.250 242.163,101.112 246.854 C 108.618 250.095,121.611 248.949,126.695 244.597 C 129.104 242.535,129.600 242.815,129.600 246.233 L 129.600 248.000 136.600 248.000 L 143.600 248.000 143.600 228.158 C 143.600 206.330,143.540 205.672,141.120 201.118 C 136.691 192.783,125.901 188.981,112.400 190.998 M178.152 190.836 C 164.971 192.374,158.219 198.944,158.924 209.546 C 159.604 219.784,164.548 223.139,181.400 224.800 C 193.415 225.984,196.000 226.990,196.000 230.485 C 196.000 236.500,179.031 236.998,167.746 231.314 C 165.082 229.972,165.212 229.895,160.003 235.868 L 155.539 240.987 156.669 241.891 C 162.519 246.572,180.358 250.002,190.354 248.367 C 203.758 246.176,209.765 240.411,209.700 229.802 C 209.634 219.123,204.872 215.057,190.300 213.237 C 188.375 212.997,185.225 212.611,183.300 212.380 C 176.389 211.549,174.015 210.744,173.049 208.900 C 169.966 203.015,187.658 201.888,198.341 207.288 L 200.081 208.168 201.941 206.148 C 202.963 205.038,205.127 202.629,206.749 200.794 L 209.699 197.459 206.549 195.874 C 197.686 191.413,187.974 189.690,178.152 190.836 M250.600 190.960 C 247.408 191.746,245.562 192.806,243.068 195.284 C 239.940 198.391,239.661 198.330,239.517 194.500 L 239.400 191.400 231.500 191.292 L 223.600 191.183 223.600 219.592 L 223.600 248.000 231.400 248.000 L 239.200 248.000 239.200 230.260 C 239.200 212.461,239.274 211.375,240.678 208.600 C 243.303 203.410,252.752 202.891,257.279 207.687 C 259.876 210.439,260.092 212.381,259.935 231.576 L 259.800 248.000 267.700 248.000 L 275.600 248.000 275.609 229.700 C 275.619 209.056,275.548 209.576,278.715 206.722 C 282.465 203.341,289.573 203.610,293.080 207.266 C 295.795 210.097,295.762 209.804,295.650 229.900 L 295.549 248.000 303.575 248.000 L 311.600 248.000 311.587 231.700 C 311.567 208.633,310.798 202.750,307.210 198.233 C 298.555 187.338,283.911 187.662,274.568 198.956 L 272.950 200.912 271.084 198.296 C 266.555 191.950,258.417 189.036,250.600 190.960 M129.186 226.374 C 130.229 228.322,129.483 232.828,127.855 234.420 C 125.587 236.638,116.927 237.831,111.476 236.677 C 105.522 235.417,105.019 227.726,110.777 225.979 C 113.283 225.219,128.745 225.550,129.186 226.374 " stroke="none" fill="#f5fbf7" fill-rule="evenodd"></path><path id="path1" d="M348.400 4.400 C 348.400 4.620,348.580 4.800,348.800 4.800 C 349.020 4.800,349.200 5.070,349.200 5.400 C 349.200 5.730,348.930 6.000,348.600 6.000 C 348.270 6.000,348.000 5.730,348.000 5.400 C 348.000 4.967,347.556 4.800,346.400 4.800 C 345.520 4.800,344.800 4.980,344.800 5.200 C 344.800 5.420,344.170 5.600,343.400 5.600 C 342.630 5.600,342.000 5.780,342.000 6.000 C 342.000 6.220,341.640 6.400,341.200 6.400 C 340.760 6.400,340.400 6.580,340.400 6.800 C 340.400 7.020,339.860 7.200,339.200 7.200 C 338.540 7.200,338.000 7.391,338.000 7.624 C 338.000 7.857,337.832 7.944,337.628 7.817 C 337.423 7.691,337.142 7.770,337.004 7.993 C 336.866 8.217,336.403 8.400,335.976 8.400 C 335.549 8.400,335.200 8.580,335.200 8.800 C 335.200 9.020,334.859 9.200,334.443 9.200 C 333.621 9.200,332.886 10.495,333.577 10.726 C 333.810 10.803,333.994 11.167,333.987 11.533 C 333.976 12.140,333.926 12.137,333.443 11.500 C 332.679 10.493,332.151 10.622,330.573 12.200 C 329.803 12.970,328.968 13.600,328.718 13.600 C 328.211 13.600,324.800 17.028,324.800 17.537 C 324.800 17.715,324.364 18.270,323.832 18.770 C 323.300 19.270,322.648 20.201,322.384 20.840 C 322.119 21.478,321.745 22.000,321.551 22.000 C 321.358 22.000,321.200 22.188,321.200 22.417 C 321.200 22.646,320.840 23.220,320.400 23.692 C 319.960 24.164,319.600 24.787,319.600 25.075 C 319.600 25.364,319.420 25.600,319.200 25.600 C 318.980 25.600,318.800 25.939,318.800 26.354 C 318.800 26.769,318.531 27.624,318.202 28.254 C 317.874 28.884,317.604 29.895,317.602 30.500 C 317.601 31.105,317.420 31.600,317.200 31.600 C 316.980 31.600,316.800 32.230,316.800 33.000 C 316.800 33.770,316.620 34.400,316.400 34.400 C 315.704 34.400,315.914 38.282,316.625 38.554 C 316.969 38.686,317.129 38.991,316.980 39.232 C 316.785 39.547,316.588 39.548,316.275 39.235 C 315.356 38.316,315.200 38.950,315.200 43.608 L 315.200 48.415 316.200 48.164 C 317.292 47.890,317.637 48.657,316.600 49.055 C 315.915 49.318,315.729 52.800,316.400 52.800 C 316.620 52.800,316.800 53.520,316.800 54.400 C 316.800 55.280,316.967 56.000,317.171 56.000 C 317.375 56.000,317.666 56.990,317.817 58.200 C 317.968 59.410,318.207 60.400,318.348 60.400 C 318.489 60.400,318.859 60.985,319.170 61.700 C 319.481 62.415,319.930 63.128,320.167 63.285 C 320.438 63.464,320.077 64.090,319.199 64.965 C 318.430 65.733,317.620 66.559,317.400 66.802 C 317.180 67.045,316.035 68.134,314.855 69.222 C 313.675 70.310,312.826 71.200,312.969 71.200 C 313.111 71.200,312.817 71.626,312.314 72.146 C 311.811 72.667,311.331 73.033,311.246 72.959 C 311.161 72.885,310.226 73.764,309.167 74.912 C 308.109 76.061,307.048 77.180,306.809 77.400 C 306.570 77.620,305.615 78.574,304.687 79.520 C 302.845 81.399,302.172 82.064,299.274 84.872 L 297.343 86.743 296.171 85.380 C 295.527 84.631,294.704 84.013,294.341 84.009 C 293.979 84.004,293.130 83.370,292.454 82.600 C 291.778 81.830,291.025 81.200,290.781 81.200 C 290.537 81.200,289.646 80.480,288.800 79.600 C 287.954 78.720,287.077 78.000,286.850 78.000 C 286.622 78.000,285.986 77.550,285.436 77.000 C 284.886 76.450,284.198 76.000,283.906 76.000 C 283.615 76.000,283.117 75.640,282.800 75.200 C 282.483 74.760,282.070 74.400,281.883 74.400 C 281.696 74.400,281.292 74.175,280.985 73.900 C 279.598 72.656,279.194 72.400,278.617 72.400 C 278.278 72.400,278.000 72.220,278.000 72.000 C 278.000 71.780,277.770 71.600,277.488 71.600 C 277.207 71.600,276.717 71.240,276.400 70.800 C 276.083 70.360,275.518 70.000,275.145 70.000 C 274.772 70.000,274.407 69.865,274.333 69.700 C 274.070 69.109,271.241 67.200,270.627 67.200 C 270.282 67.200,270.000 67.020,270.000 66.800 C 270.000 66.580,269.640 66.400,269.200 66.400 C 268.760 66.400,268.400 66.220,268.400 66.000 C 268.400 65.780,268.132 65.600,267.803 65.600 C 267.475 65.600,266.982 65.240,266.707 64.800 C 266.432 64.360,265.891 64.000,265.504 64.000 C 265.117 64.000,264.800 63.820,264.800 63.600 C 264.800 63.380,264.474 63.200,264.076 63.200 C 263.679 63.200,263.004 62.936,262.576 62.613 C 262.149 62.290,261.485 62.020,261.100 62.013 C 260.715 62.006,260.400 61.820,260.400 61.600 C 260.400 61.380,260.040 61.200,259.600 61.200 C 259.160 61.200,258.800 61.054,258.800 60.875 C 258.800 60.696,258.170 60.302,257.400 60.000 C 256.630 59.698,256.000 59.304,256.000 59.125 C 256.000 58.946,255.640 58.800,255.200 58.800 C 254.760 58.800,254.400 58.631,254.400 58.425 C 254.400 58.218,253.590 57.928,252.600 57.779 C 251.610 57.631,250.800 57.350,250.800 57.155 C 250.800 56.960,250.440 56.800,250.000 56.800 C 249.560 56.800,249.200 56.620,249.200 56.400 C 249.200 56.180,248.840 56.000,248.400 56.000 C 247.960 56.000,247.600 55.820,247.600 55.600 C 247.600 55.380,247.150 55.200,246.600 55.200 C 246.050 55.200,245.600 55.020,245.600 54.800 C 245.600 54.580,245.240 54.400,244.800 54.400 C 244.360 54.400,244.000 54.220,244.000 54.000 C 244.000 53.780,243.580 53.600,243.067 53.600 C 242.553 53.600,242.010 53.476,241.859 53.325 C 241.707 53.174,241.272 52.999,240.892 52.936 C 238.600 52.555,237.565 52.266,237.371 51.954 C 237.251 51.759,236.713 51.600,236.176 51.600 C 235.639 51.600,235.200 51.420,235.200 51.200 C 235.200 50.980,234.660 50.800,234.000 50.800 C 233.340 50.800,232.800 50.620,232.800 50.400 C 232.800 50.180,232.170 50.000,231.400 50.000 C 230.630 50.000,230.000 49.820,230.000 49.600 C 230.000 49.380,229.460 49.200,228.800 49.200 C 228.140 49.200,227.600 49.020,227.600 48.800 C 227.600 48.580,227.000 48.400,226.267 48.400 C 225.533 48.400,224.808 48.275,224.655 48.122 C 224.327 47.793,223.715 47.665,220.900 47.335 C 219.745 47.199,218.800 46.933,218.800 46.744 C 218.800 46.555,217.990 46.400,217.000 46.400 C 216.010 46.400,215.200 46.220,215.200 46.000 C 215.200 45.780,214.300 45.600,213.200 45.600 C 211.689 45.600,211.200 45.747,211.200 46.200 C 211.200 46.530,211.031 46.800,210.824 46.800 C 210.245 46.800,209.937 46.086,210.393 45.804 C 211.336 45.221,210.668 44.800,208.800 44.800 C 207.289 44.800,206.800 44.947,206.800 45.400 C 206.800 45.730,206.530 46.000,206.200 46.000 C 205.870 46.000,205.600 45.730,205.600 45.400 C 205.600 45.070,205.780 44.800,206.000 44.800 C 206.220 44.800,206.400 44.620,206.400 44.400 C 206.400 44.171,205.192 44.000,203.576 44.000 C 201.783 44.000,200.844 44.147,201.002 44.403 C 201.282 44.857,200.106 45.439,199.709 45.043 C 199.569 44.902,199.666 44.574,199.927 44.313 C 200.884 43.356,200.305 43.200,195.800 43.200 C 191.978 43.200,191.200 43.301,191.200 43.800 C 191.200 44.140,190.841 44.400,190.373 44.400 C 189.728 44.400,189.602 44.224,189.800 43.600 C 189.945 43.142,189.871 42.797,189.627 42.792 C 189.070 42.781,171.730 42.781,171.173 42.792 C 170.938 42.796,170.853 43.138,170.985 43.551 C 171.169 44.132,170.982 44.348,170.162 44.505 C 169.351 44.660,169.054 44.527,168.900 43.939 C 168.564 42.653,162.145 43.006,162.325 44.300 C 162.409 44.903,162.244 45.200,161.825 45.200 C 161.481 45.200,161.200 44.930,161.200 44.600 C 161.200 44.128,160.644 44.000,158.592 44.000 C 156.011 44.000,155.987 44.010,156.236 45.000 C 156.510 46.092,155.743 46.437,155.345 45.400 C 155.077 44.702,150.000 44.512,150.000 45.200 C 150.000 45.420,149.190 45.600,148.200 45.600 C 147.210 45.600,146.400 45.780,146.400 46.000 C 146.400 46.220,145.781 46.400,145.024 46.400 C 144.267 46.400,143.552 46.555,143.435 46.743 C 143.318 46.932,142.183 47.196,140.911 47.330 C 137.981 47.638,137.290 47.776,136.945 48.122 C 136.792 48.275,136.077 48.400,135.357 48.400 C 134.637 48.400,133.936 48.580,133.800 48.800 C 133.664 49.020,132.933 49.200,132.176 49.200 C 131.419 49.200,130.800 49.380,130.800 49.600 C 130.800 49.820,130.260 50.000,129.600 50.000 C 128.940 50.000,128.400 50.180,128.400 50.400 C 128.400 50.620,127.950 50.800,127.400 50.800 C 126.850 50.800,126.400 50.980,126.400 51.200 C 126.400 51.420,125.860 51.600,125.200 51.600 C 124.540 51.600,124.000 51.757,124.000 51.949 C 124.000 52.141,123.260 52.416,122.356 52.561 C 121.453 52.705,119.979 53.178,119.081 53.612 C 118.184 54.045,117.124 54.400,116.725 54.400 C 116.326 54.400,116.000 54.580,116.000 54.800 C 116.000 55.020,115.460 55.200,114.800 55.200 C 114.140 55.200,113.600 55.380,113.600 55.600 C 113.600 55.820,113.330 56.000,113.000 56.000 C 112.670 56.000,112.400 56.180,112.400 56.400 C 112.400 56.620,112.040 56.800,111.600 56.800 C 111.160 56.800,110.800 56.956,110.800 57.147 C 110.800 57.338,110.039 57.597,109.109 57.722 C 108.178 57.846,107.353 58.140,107.275 58.374 C 107.197 58.608,106.788 58.800,106.367 58.800 C 105.945 58.800,105.600 58.946,105.600 59.125 C 105.600 59.304,104.970 59.698,104.200 60.000 C 103.430 60.302,102.800 60.696,102.800 60.875 C 102.800 61.054,102.440 61.200,102.000 61.200 C 101.560 61.200,101.200 61.380,101.200 61.600 C 101.200 61.820,100.885 62.002,100.500 62.005 C 100.115 62.007,99.017 62.457,98.059 63.005 C 97.102 63.552,96.106 64.000,95.847 64.000 C 95.588 64.000,95.117 64.360,94.800 64.800 C 94.483 65.240,93.893 65.600,93.488 65.600 C 93.084 65.600,92.864 65.780,93.000 66.000 C 93.136 66.220,92.877 66.400,92.424 66.400 C 91.971 66.400,91.600 66.580,91.600 66.800 C 91.600 67.020,91.251 67.200,90.824 67.200 C 90.397 67.200,89.939 67.375,89.807 67.589 C 89.674 67.803,88.899 68.289,88.083 68.669 C 87.267 69.049,86.309 69.683,85.953 70.080 C 85.597 70.476,85.056 70.800,84.749 70.800 C 84.443 70.800,83.968 71.160,83.693 71.600 C 83.418 72.040,82.925 72.400,82.597 72.400 C 82.268 72.400,82.000 72.591,82.000 72.824 C 82.000 73.057,81.820 73.136,81.600 73.000 C 81.380 72.864,81.200 72.943,81.200 73.176 C 81.200 73.409,80.912 73.600,80.560 73.600 C 80.209 73.600,79.417 74.140,78.800 74.800 C 78.183 75.460,77.558 76.000,77.411 76.000 C 76.659 76.000,75.878 77.277,76.424 77.615 C 76.728 77.803,76.837 78.096,76.667 78.267 C 76.496 78.437,76.216 78.350,76.045 78.073 C 75.609 77.367,73.925 78.060,72.895 79.370 C 72.449 79.937,71.880 80.400,71.629 80.400 C 71.378 80.400,70.543 81.030,69.773 81.800 C 69.003 82.570,68.205 83.200,67.999 83.200 C 67.794 83.200,66.293 84.550,64.664 86.200 C 63.035 87.850,61.486 89.200,61.220 89.200 C 60.629 89.200,57.600 92.296,57.600 92.899 C 57.600 93.138,57.493 93.227,57.363 93.096 C 57.056 92.789,52.866 96.904,53.083 97.300 C 53.173 97.465,53.057 97.600,52.824 97.600 C 52.591 97.600,52.400 97.787,52.400 98.015 C 52.400 98.242,51.050 99.783,49.400 101.439 C 47.750 103.094,46.400 104.623,46.400 104.837 C 46.400 105.050,45.500 106.097,44.400 107.162 C 43.300 108.228,42.400 109.295,42.400 109.532 C 42.400 109.769,41.950 110.414,41.400 110.964 C 40.850 111.514,40.400 112.242,40.400 112.582 C 40.400 112.922,40.248 113.200,40.061 113.200 C 39.381 113.200,38.121 114.628,37.856 115.700 C 37.707 116.305,37.408 116.800,37.192 116.800 C 36.977 116.800,36.800 117.030,36.800 117.312 C 36.800 117.593,36.440 118.083,36.000 118.400 C 35.560 118.717,35.200 119.257,35.200 119.600 C 35.200 119.943,34.840 120.483,34.400 120.800 C 33.960 121.117,33.600 121.678,33.600 122.046 C 33.600 122.413,33.330 122.818,33.000 122.945 C 32.670 123.071,32.400 123.501,32.400 123.899 C 32.400 124.297,32.040 124.883,31.600 125.200 C 31.160 125.517,30.800 126.097,30.800 126.488 C 30.800 126.880,30.620 127.200,30.400 127.200 C 30.180 127.200,30.000 127.430,30.000 127.712 C 30.000 127.993,29.640 128.483,29.200 128.800 C 28.760 129.117,28.400 129.667,28.400 130.022 C 28.400 130.376,28.265 130.802,28.100 130.967 C 27.935 131.132,27.776 131.387,27.746 131.533 C 27.532 132.596,27.049 133.600,26.753 133.600 C 26.559 133.600,26.400 133.960,26.400 134.400 C 26.400 134.840,26.220 135.200,26.000 135.200 C 25.780 135.200,25.600 135.494,25.600 135.853 C 25.600 136.212,25.276 136.797,24.880 137.153 C 24.107 137.847,22.667 140.676,22.667 141.500 C 22.667 141.775,22.517 142.000,22.333 142.000 C 22.150 142.000,22.000 142.450,22.000 143.000 C 22.000 143.550,21.820 144.000,21.600 144.000 C 21.380 144.000,21.200 144.360,21.200 144.800 C 21.200 145.240,21.020 145.600,20.800 145.600 C 20.580 145.600,20.400 145.960,20.400 146.400 C 20.400 146.840,20.220 147.200,20.000 147.200 C 19.780 147.200,19.600 147.470,19.600 147.800 C 19.600 148.130,19.420 148.400,19.200 148.400 C 18.980 148.400,18.800 148.940,18.800 149.600 C 18.800 150.260,18.631 150.800,18.425 150.800 C 18.218 150.800,17.928 151.610,17.779 152.600 C 17.631 153.590,17.350 154.400,17.155 154.400 C 16.960 154.400,16.800 154.760,16.800 155.200 C 16.800 155.640,16.620 156.000,16.400 156.000 C 16.180 156.000,16.000 156.450,16.000 157.000 C 16.000 157.550,15.820 158.000,15.600 158.000 C 15.380 158.000,15.200 158.540,15.200 159.200 C 15.200 159.860,15.020 160.400,14.800 160.400 C 14.580 160.400,14.400 160.940,14.400 161.600 C 14.400 162.260,14.220 162.800,14.000 162.800 C 13.780 162.800,13.597 163.115,13.594 163.500 C 13.591 163.885,13.329 164.920,13.012 165.800 C 12.695 166.680,12.427 167.985,12.418 168.700 C 12.408 169.415,12.220 170.000,12.000 170.000 C 11.780 170.000,11.600 170.540,11.600 171.200 C 11.600 171.860,11.420 172.400,11.200 172.400 C 10.980 172.400,10.800 173.030,10.800 173.800 C 10.800 174.570,10.620 175.200,10.400 175.200 C 10.180 175.200,10.000 175.920,10.000 176.800 C 10.000 177.956,10.167 178.400,10.600 178.400 C 10.930 178.400,11.200 178.569,11.200 178.776 C 11.200 179.355,10.486 179.663,10.204 179.207 C 9.664 178.333,9.200 178.873,9.200 180.376 C 9.200 181.243,9.020 182.064,8.800 182.200 C 8.104 182.630,8.295 186.015,9.000 185.745 C 9.379 185.599,9.600 185.750,9.600 186.152 C 9.600 186.572,9.299 186.758,8.723 186.695 C 7.963 186.613,7.826 186.827,7.694 188.300 C 7.573 189.645,7.672 190.000,8.170 190.000 C 8.517 190.000,8.800 190.282,8.800 190.627 C 8.800 191.072,8.568 191.180,8.000 191.000 C 7.265 190.767,7.200 190.928,7.200 192.973 C 7.200 194.198,7.020 195.200,6.800 195.200 C 6.067 195.200,6.309 200.845,7.065 201.398 C 7.995 202.078,7.473 203.340,6.402 203.001 C 5.609 202.749,5.600 202.915,5.600 218.200 C 5.600 233.485,5.609 233.651,6.402 233.399 C 7.473 233.060,7.995 234.322,7.065 235.002 C 6.350 235.525,6.052 241.200,6.740 241.200 C 6.927 241.200,7.200 242.955,7.348 245.100 C 7.661 249.657,7.748 250.281,8.122 250.655 C 8.275 250.808,8.400 251.613,8.400 252.443 C 8.400 253.273,8.580 254.064,8.800 254.200 C 9.020 254.336,9.200 255.247,9.200 256.224 C 9.200 257.201,9.380 258.000,9.600 258.000 C 9.820 258.000,10.000 258.720,10.000 259.600 C 10.000 260.480,10.180 261.200,10.400 261.200 C 10.620 261.200,10.800 261.830,10.800 262.600 C 10.800 263.370,10.980 264.000,11.200 264.000 C 11.420 264.000,11.600 264.720,11.600 265.600 C 11.600 266.480,11.757 267.200,11.949 267.200 C 12.229 267.200,12.643 268.700,12.961 270.867 C 12.982 271.013,13.135 271.268,13.300 271.433 C 13.465 271.598,13.600 272.153,13.600 272.667 C 13.600 273.180,13.780 273.600,14.000 273.600 C 14.220 273.600,14.400 274.140,14.400 274.800 C 14.400 275.460,14.580 276.000,14.800 276.000 C 15.020 276.000,15.200 276.450,15.200 277.000 C 15.200 277.550,15.380 278.000,15.600 278.000 C 15.820 278.000,16.000 278.540,16.000 279.200 C 16.000 279.860,16.180 280.400,16.400 280.400 C 16.620 280.400,16.800 280.760,16.800 281.200 C 16.800 281.640,16.957 282.000,17.149 282.000 C 17.341 282.000,17.618 282.765,17.765 283.700 C 18.067 285.622,18.845 287.600,19.298 287.600 C 19.464 287.600,19.600 287.960,19.600 288.400 C 19.600 288.840,19.780 289.200,20.000 289.200 C 20.220 289.200,20.400 289.740,20.400 290.400 C 20.400 291.060,20.580 291.600,20.800 291.600 C 21.020 291.600,21.200 291.870,21.200 292.200 C 21.200 292.530,21.380 292.800,21.600 292.800 C 21.820 292.800,22.000 293.065,22.000 293.389 C 22.000 294.128,24.057 298.553,24.484 298.733 C 24.658 298.807,24.800 299.212,24.800 299.633 C 24.800 300.055,24.980 300.400,25.200 300.400 C 25.420 300.400,25.600 300.760,25.600 301.200 C 25.600 301.640,25.780 302.000,26.000 302.000 C 26.220 302.000,26.400 302.270,26.400 302.600 C 26.400 302.930,26.580 303.200,26.800 303.200 C 27.020 303.200,27.200 303.549,27.200 303.976 C 27.200 304.403,27.375 304.861,27.589 304.993 C 27.803 305.126,28.289 305.901,28.669 306.717 C 29.049 307.533,29.683 308.491,30.080 308.847 C 30.476 309.203,30.800 309.788,30.800 310.147 C 30.800 310.506,30.980 310.800,31.200 310.800 C 31.420 310.800,31.600 310.997,31.600 311.237 C 31.600 311.477,31.958 312.128,32.395 312.684 C 32.832 313.239,33.111 313.820,33.016 313.974 C 32.921 314.128,33.193 314.507,33.621 314.815 C 34.050 315.124,34.400 315.654,34.400 315.992 C 34.400 316.331,34.760 316.832,35.200 317.107 C 35.640 317.382,36.000 317.836,36.000 318.115 C 36.000 318.395,36.360 318.883,36.800 319.200 C 37.240 319.517,37.600 320.084,37.600 320.459 C 37.600 320.835,38.050 321.496,38.600 321.929 C 39.150 322.361,39.600 322.932,39.600 323.197 C 39.600 323.462,40.140 324.183,40.800 324.800 C 41.460 325.417,42.000 326.110,42.000 326.341 C 42.000 326.572,42.630 327.373,43.400 328.121 C 44.170 328.869,44.800 329.697,44.800 329.961 C 44.800 330.225,45.790 331.354,47.000 332.470 C 48.210 333.586,49.202 334.792,49.204 335.149 C 49.206 335.507,49.701 336.190,50.304 336.666 C 52.285 338.230,53.327 339.200,53.029 339.200 C 52.867 339.200,53.514 339.918,54.467 340.795 C 56.290 342.473,56.541 342.720,59.334 345.600 C 60.295 346.590,61.468 347.665,61.942 347.989 C 62.415 348.313,62.904 348.898,63.028 349.289 C 63.152 349.680,63.516 350.000,63.835 350.000 C 64.155 350.000,65.448 350.988,66.708 352.195 C 67.969 353.402,69.153 354.392,69.340 354.395 C 69.526 354.398,70.183 354.940,70.800 355.600 C 71.417 356.260,72.081 356.800,72.277 356.800 C 72.473 356.800,73.301 357.430,74.118 358.200 C 74.934 358.970,75.832 359.600,76.113 359.600 C 76.394 359.600,76.883 359.960,77.200 360.400 C 77.517 360.840,77.964 361.200,78.192 361.200 C 78.421 361.200,79.093 361.650,79.687 362.200 C 80.280 362.750,81.003 363.200,81.294 363.200 C 81.585 363.200,82.083 363.560,82.400 364.000 C 82.717 364.440,83.167 364.800,83.400 364.800 C 83.633 364.800,84.083 365.160,84.400 365.600 C 84.717 366.040,85.297 366.400,85.688 366.400 C 86.080 366.400,86.402 366.535,86.404 366.700 C 86.406 366.865,87.216 367.355,88.204 367.790 C 89.192 368.224,90.000 368.719,90.000 368.890 C 90.000 369.060,90.294 369.200,90.653 369.200 C 91.012 369.200,91.597 369.528,91.953 369.928 C 92.309 370.329,93.725 371.183,95.100 371.828 C 96.475 372.472,97.600 373.134,97.600 373.299 C 97.600 373.465,97.870 373.600,98.200 373.600 C 98.530 373.600,98.800 373.780,98.800 374.000 C 98.800 374.220,99.160 374.400,99.600 374.400 C 100.040 374.400,100.400 374.580,100.400 374.800 C 100.400 375.020,100.745 375.200,101.167 375.200 C 101.588 375.200,101.993 375.335,102.067 375.500 C 102.258 375.931,105.571 377.600,106.235 377.600 C 107.040 377.600,110.000 378.932,110.000 379.294 C 110.000 379.462,110.360 379.600,110.800 379.600 C 111.240 379.600,111.600 379.780,111.600 380.000 C 111.600 380.220,112.050 380.400,112.600 380.400 C 113.150 380.400,113.600 380.580,113.600 380.800 C 113.600 381.020,113.960 381.200,114.400 381.200 C 114.840 381.200,115.200 381.356,115.200 381.547 C 115.200 381.738,115.961 381.997,116.891 382.122 C 117.822 382.246,118.647 382.540,118.725 382.774 C 118.803 383.008,119.392 383.200,120.033 383.200 C 120.675 383.200,121.200 383.380,121.200 383.600 C 121.200 383.820,121.650 384.000,122.200 384.000 C 122.750 384.000,123.200 384.180,123.200 384.400 C 123.200 384.620,123.740 384.800,124.400 384.800 C 125.060 384.800,125.600 384.980,125.600 385.200 C 125.600 385.420,126.039 385.600,126.576 385.600 C 127.113 385.600,127.664 385.780,127.800 386.000 C 127.936 386.220,128.476 386.400,129.000 386.400 C 129.524 386.400,130.058 386.570,130.186 386.777 C 130.314 386.984,131.674 387.277,133.209 387.428 C 134.744 387.580,136.000 387.860,136.000 388.052 C 136.000 388.243,136.450 388.400,137.000 388.400 C 137.550 388.400,138.000 388.580,138.000 388.800 C 138.000 389.020,138.900 389.200,140.000 389.200 C 141.100 389.200,142.000 389.380,142.000 389.600 C 142.000 389.820,142.810 390.000,143.800 390.000 C 144.790 390.000,145.600 390.180,145.600 390.400 C 145.600 390.620,146.219 390.800,146.976 390.800 C 147.733 390.800,148.464 390.980,148.600 391.200 C 148.736 391.420,149.881 391.600,151.144 391.600 C 152.407 391.600,153.611 391.767,153.820 391.970 C 154.029 392.174,156.945 392.469,160.300 392.626 C 163.655 392.783,166.400 393.067,166.400 393.256 C 166.400 393.445,172.700 393.600,180.400 393.600 C 189.467 393.600,194.400 393.459,194.400 393.200 C 194.400 392.980,194.220 392.800,194.000 392.800 C 193.780 392.800,193.600 392.620,193.600 392.400 C 193.600 392.180,193.960 392.000,194.400 392.000 C 194.840 392.000,195.200 392.207,195.200 392.460 C 195.200 392.798,196.698 392.839,200.900 392.615 C 204.035 392.448,206.821 392.301,207.091 392.289 C 207.403 392.275,207.496 391.927,207.348 391.333 C 207.175 390.645,207.282 390.400,207.757 390.400 C 208.110 390.400,208.400 390.670,208.400 391.000 C 208.400 391.699,211.782 391.877,212.200 391.200 C 212.336 390.980,213.247 390.800,214.224 390.800 C 215.201 390.800,216.000 390.620,216.000 390.400 C 216.000 390.180,216.810 390.000,217.800 390.000 C 218.790 390.000,219.600 389.820,219.600 389.600 C 219.600 389.380,220.230 389.200,221.000 389.200 C 221.770 389.200,222.400 389.020,222.400 388.800 C 222.400 388.580,223.120 388.400,224.000 388.400 C 224.880 388.400,225.600 388.243,225.600 388.052 C 225.600 387.860,226.675 387.582,227.988 387.433 C 229.301 387.285,230.482 386.991,230.611 386.782 C 230.741 386.572,231.467 386.400,232.224 386.400 C 232.981 386.400,233.600 386.220,233.600 386.000 C 233.600 385.780,234.140 385.600,234.800 385.600 C 235.460 385.600,236.000 385.420,236.000 385.200 C 236.000 384.980,236.450 384.800,237.000 384.800 C 237.550 384.800,238.000 384.620,238.000 384.400 C 238.000 384.180,238.540 384.000,239.200 384.000 C 239.860 384.000,240.400 383.820,240.400 383.600 C 240.400 383.380,240.850 383.200,241.400 383.200 C 241.950 383.200,242.400 383.040,242.400 382.845 C 242.400 382.649,243.075 382.368,243.900 382.220 C 245.706 381.895,247.600 381.119,247.600 380.702 C 247.600 380.536,248.140 380.400,248.800 380.400 C 249.460 380.400,250.000 380.220,250.000 380.000 C 250.000 379.780,250.360 379.600,250.800 379.600 C 251.240 379.600,251.600 379.420,251.600 379.200 C 251.600 378.980,251.870 378.800,252.200 378.800 C 252.530 378.800,252.800 378.640,252.800 378.445 C 252.800 378.249,253.475 377.968,254.300 377.820 C 256.106 377.495,258.000 376.719,258.000 376.302 C 258.000 376.136,258.360 376.000,258.800 376.000 C 259.240 376.000,259.600 375.820,259.600 375.600 C 259.600 375.380,259.960 375.200,260.400 375.200 C 260.840 375.200,261.200 375.020,261.200 374.800 C 261.200 374.580,261.470 374.400,261.800 374.400 C 262.130 374.400,262.400 374.220,262.400 374.000 C 262.400 373.780,262.760 373.600,263.200 373.600 C 263.640 373.600,264.000 373.447,264.000 373.260 C 264.000 373.073,264.810 372.587,265.800 372.178 C 266.790 371.770,267.600 371.293,267.600 371.118 C 267.600 370.943,267.920 370.800,268.312 370.800 C 268.703 370.800,269.283 370.440,269.600 370.000 C 269.917 369.560,270.497 369.200,270.888 369.200 C 271.280 369.200,271.600 369.020,271.600 368.800 C 271.600 368.580,271.870 368.400,272.200 368.400 C 272.530 368.400,272.800 368.255,272.800 368.077 C 272.800 367.899,273.520 367.436,274.400 367.048 C 275.280 366.660,276.000 366.175,276.000 365.971 C 276.000 365.767,276.268 365.600,276.597 365.600 C 276.925 365.600,277.418 365.240,277.693 364.800 C 277.968 364.360,278.469 364.000,278.808 364.000 C 279.146 364.000,279.683 363.640,280.000 363.200 C 280.317 362.760,280.903 362.400,281.301 362.400 C 281.699 362.400,282.129 362.130,282.255 361.800 C 282.382 361.470,282.754 361.200,283.082 361.200 C 283.411 361.200,284.183 360.660,284.800 360.000 C 285.417 359.340,286.138 358.800,286.403 358.800 C 286.668 358.800,287.239 358.350,287.671 357.800 C 288.104 357.250,288.760 356.796,289.129 356.791 C 289.498 356.786,290.419 356.066,291.176 355.191 C 291.933 354.316,292.697 353.600,292.873 353.600 C 293.540 353.600,298.000 349.352,298.000 348.717 C 298.000 348.542,298.291 348.400,298.647 348.400 C 299.232 348.400,310.800 337.210,310.800 336.644 C 310.800 336.044,315.102 331.600,315.683 331.600 C 315.858 331.600,316.000 331.331,316.000 331.003 C 316.000 330.470,316.848 329.280,318.300 327.775 C 318.575 327.490,318.800 327.137,318.800 326.989 C 318.800 326.842,319.340 326.217,320.000 325.600 C 320.660 324.983,321.200 324.257,321.200 323.985 C 321.200 323.714,321.650 323.075,322.200 322.565 C 322.750 322.055,323.200 321.399,323.200 321.107 C 323.200 320.815,323.560 320.317,324.000 320.000 C 324.440 319.683,324.800 319.182,324.800 318.886 C 324.800 318.590,325.327 317.905,325.971 317.363 C 326.614 316.822,327.269 315.798,327.424 315.090 C 327.580 314.381,328.043 313.509,328.454 313.153 C 328.864 312.797,329.200 312.342,329.200 312.141 C 329.200 311.941,329.560 311.517,330.000 311.200 C 330.440 310.883,330.800 310.303,330.800 309.912 C 330.800 309.520,330.980 309.200,331.200 309.200 C 331.420 309.200,331.600 308.859,331.600 308.443 C 331.600 308.026,331.870 307.582,332.200 307.455 C 332.530 307.329,332.800 306.859,332.800 306.413 C 332.800 305.966,332.980 305.600,333.200 305.600 C 333.420 305.600,333.600 305.240,333.600 304.800 C 333.600 304.360,333.780 304.000,334.000 304.000 C 334.220 304.000,334.400 303.683,334.400 303.296 C 334.400 302.909,334.760 302.368,335.200 302.093 C 335.640 301.818,336.000 301.325,336.000 300.997 C 336.000 300.668,336.180 300.400,336.400 300.400 C 336.620 300.400,336.806 300.085,336.813 299.700 C 336.820 299.315,337.090 298.651,337.413 298.224 C 337.736 297.796,338.000 297.121,338.000 296.724 C 338.000 296.326,338.180 296.000,338.400 296.000 C 338.620 296.000,338.800 295.640,338.800 295.200 C 338.800 294.760,338.980 294.400,339.200 294.400 C 339.420 294.400,339.600 294.040,339.600 293.600 C 339.600 293.160,339.780 292.800,340.000 292.800 C 340.220 292.800,340.400 292.350,340.400 291.800 C 340.400 291.250,340.580 290.800,340.800 290.800 C 341.020 290.800,341.200 290.440,341.200 290.000 C 341.200 289.560,341.369 289.200,341.575 289.200 C 341.782 289.200,342.072 288.390,342.221 287.400 C 342.369 286.410,342.650 285.600,342.845 285.600 C 343.040 285.600,343.200 285.240,343.200 284.800 C 343.200 284.360,343.380 284.000,343.600 284.000 C 343.820 284.000,344.000 283.550,344.000 283.000 C 344.000 282.450,344.180 282.000,344.400 282.000 C 344.620 282.000,344.800 281.640,344.800 281.200 C 344.800 280.760,344.980 280.400,345.200 280.400 C 345.420 280.400,345.600 279.860,345.600 279.200 C 345.600 278.540,345.780 278.000,346.000 278.000 C 346.220 278.000,346.400 277.561,346.400 277.024 C 346.400 276.487,346.563 275.946,346.763 275.823 C 346.962 275.700,347.249 274.699,347.400 273.600 C 347.551 272.500,347.838 271.600,348.038 271.600 C 348.237 271.600,348.400 270.880,348.400 270.000 C 348.400 269.120,348.580 268.400,348.800 268.400 C 349.020 268.400,349.200 267.950,349.200 267.400 C 349.200 266.850,349.380 266.400,349.600 266.400 C 349.820 266.400,350.000 265.680,350.000 264.800 C 350.000 263.920,350.180 263.200,350.400 263.200 C 350.620 263.200,350.800 262.570,350.800 261.800 C 350.800 261.030,350.980 260.400,351.200 260.400 C 351.420 260.400,351.600 259.800,351.600 259.067 C 351.600 258.333,351.725 257.608,351.878 257.455 C 352.245 257.089,352.369 256.369,352.667 252.900 C 352.804 251.305,353.069 250.000,353.258 250.000 C 353.446 250.000,353.600 249.190,353.600 248.200 C 353.600 247.210,353.780 246.400,354.000 246.400 C 354.229 246.400,354.400 245.200,354.400 243.600 C 354.400 241.320,354.283 240.800,353.771 240.800 C 353.382 240.800,353.197 240.532,353.287 240.100 C 353.381 239.649,353.747 239.434,354.316 239.495 C 355.158 239.586,355.200 239.447,355.200 236.595 C 355.200 234.199,355.080 233.600,354.600 233.600 C 354.270 233.600,354.000 233.251,354.000 232.824 C 354.000 231.929,354.875 231.226,355.111 231.932 C 355.762 233.886,356.000 230.259,356.000 218.369 L 356.000 204.785 355.000 205.036 C 354.170 205.244,354.000 205.143,354.000 204.443 C 354.000 203.960,354.256 203.600,354.600 203.600 C 355.086 203.600,355.200 202.955,355.200 200.192 L 355.200 196.785 354.200 197.036 C 353.108 197.310,352.763 196.543,353.800 196.145 C 354.247 195.973,354.400 195.261,354.400 193.357 C 354.400 190.831,354.174 190.386,353.325 191.235 C 353.012 191.548,352.805 191.531,352.584 191.174 C 352.405 190.884,352.552 190.478,352.939 190.195 C 353.642 189.681,353.904 186.400,353.242 186.400 C 353.046 186.400,352.757 184.779,352.600 182.797 C 352.443 180.816,352.154 179.095,351.957 178.974 C 351.761 178.852,351.600 178.133,351.600 177.376 C 351.600 176.619,351.420 176.000,351.200 176.000 C 350.980 176.000,350.800 175.370,350.800 174.600 C 350.800 173.830,350.620 173.200,350.400 173.200 C 350.180 173.200,350.000 172.480,350.000 171.600 C 350.000 170.720,349.820 170.000,349.600 170.000 C 349.380 170.000,349.200 169.561,349.200 169.024 C 349.200 168.487,349.020 167.936,348.800 167.800 C 348.580 167.664,348.400 167.113,348.400 166.576 C 348.400 166.039,348.241 165.600,348.047 165.600 C 347.852 165.600,347.568 164.430,347.415 163.000 C 347.262 161.570,346.971 160.400,346.768 160.400 C 346.566 160.400,346.400 160.076,346.400 159.680 C 346.400 158.786,345.506 156.807,345.100 156.803 C 344.935 156.801,344.800 156.260,344.800 155.600 C 344.800 154.940,344.620 154.400,344.400 154.400 C 344.180 154.400,344.000 153.950,344.000 153.400 C 344.000 152.850,343.820 152.400,343.600 152.400 C 343.380 152.400,343.200 152.040,343.200 151.600 C 343.200 151.160,343.031 150.800,342.825 150.800 C 342.618 150.800,342.328 149.990,342.179 149.000 C 342.031 148.010,341.750 147.200,341.555 147.200 C 341.360 147.200,341.200 146.840,341.200 146.400 C 341.200 145.960,341.020 145.600,340.800 145.600 C 340.580 145.600,340.400 145.240,340.400 144.800 C 340.400 144.360,340.220 144.000,340.000 144.000 C 339.780 144.000,339.600 143.730,339.600 143.400 C 339.600 143.070,339.420 142.800,339.200 142.800 C 338.980 142.800,338.800 142.440,338.800 142.000 C 338.800 141.560,338.620 141.200,338.400 141.200 C 338.180 141.200,338.000 140.870,338.000 140.467 C 338.000 140.063,337.865 139.598,337.700 139.433 C 337.535 139.268,337.376 139.013,337.346 138.867 C 337.132 137.804,336.649 136.800,336.353 136.800 C 336.159 136.800,336.000 136.440,336.000 136.000 C 336.000 135.560,335.820 135.200,335.600 135.200 C 335.380 135.200,335.200 134.840,335.200 134.400 C 335.200 133.960,335.020 133.600,334.800 133.600 C 334.580 133.600,334.400 133.330,334.400 133.000 C 334.400 132.670,334.220 132.400,334.000 132.400 C 333.780 132.400,333.600 132.040,333.600 131.600 C 333.600 131.160,333.455 130.800,333.277 130.800 C 333.099 130.800,332.619 130.035,332.210 129.100 C 331.801 128.165,331.137 127.109,330.733 126.753 C 330.330 126.397,330.000 125.812,330.000 125.453 C 330.000 125.094,329.820 124.800,329.600 124.800 C 329.380 124.800,329.200 124.452,329.200 124.027 C 329.200 123.602,328.840 123.140,328.400 123.000 C 327.960 122.860,327.600 122.411,327.600 122.002 C 327.600 121.592,327.330 120.987,327.000 120.657 C 326.670 120.327,326.400 119.814,326.400 119.517 C 326.400 119.220,326.040 118.717,325.600 118.400 C 325.160 118.083,324.800 117.665,324.800 117.472 C 324.800 117.279,324.260 116.617,323.600 116.000 C 322.940 115.383,322.400 114.604,322.400 114.269 C 322.400 113.933,321.950 113.304,321.400 112.871 C 320.850 112.439,320.400 111.868,320.400 111.603 C 320.400 111.338,319.860 110.617,319.200 110.000 C 318.540 109.383,318.000 108.713,318.000 108.511 C 318.000 108.309,317.190 107.298,316.200 106.265 C 315.210 105.231,314.400 104.119,314.400 103.793 C 314.400 103.467,314.227 103.200,314.016 103.200 C 313.587 103.200,312.000 101.604,312.000 101.173 C 312.000 100.663,315.193 97.600,315.724 97.600 C 316.292 97.600,319.600 94.206,319.600 93.624 C 319.600 93.095,332.429 80.400,332.963 80.400 C 333.216 80.400,333.683 80.040,334.000 79.600 C 334.594 78.776,336.800 78.461,336.800 79.200 C 336.800 79.420,337.070 79.600,337.400 79.600 C 337.730 79.600,338.000 79.780,338.000 80.000 C 338.000 80.220,338.360 80.400,338.800 80.400 C 339.240 80.400,339.600 80.580,339.600 80.800 C 339.600 81.020,340.125 81.200,340.767 81.200 C 341.408 81.200,341.994 81.383,342.069 81.606 C 342.143 81.829,343.424 82.126,344.915 82.265 C 346.406 82.404,347.721 82.672,347.836 82.859 C 348.112 83.305,362.400 83.304,362.400 82.858 C 362.400 82.670,363.703 82.407,365.295 82.273 C 366.887 82.140,368.252 81.844,368.328 81.615 C 368.404 81.387,368.992 81.200,369.633 81.200 C 370.275 81.200,370.800 81.054,370.800 80.875 C 370.800 80.696,371.430 80.302,372.200 80.000 C 372.970 79.698,373.600 79.304,373.600 79.125 C 373.600 78.946,373.868 78.800,374.195 78.800 C 374.523 78.800,375.159 78.485,375.608 78.100 C 376.058 77.715,376.555 77.384,376.713 77.365 C 377.588 77.260,378.766 76.473,380.069 75.122 C 380.876 74.285,381.731 73.600,381.969 73.600 C 382.206 73.600,382.401 73.465,382.401 73.300 C 382.402 73.135,382.941 72.640,383.600 72.200 C 384.259 71.760,384.798 71.169,384.799 70.887 C 384.799 70.604,385.430 69.743,386.200 68.973 C 386.970 68.203,387.600 67.349,387.600 67.075 C 387.600 66.801,387.960 66.317,388.400 66.000 C 388.840 65.683,389.200 65.103,389.200 64.712 C 389.200 64.320,389.380 64.000,389.600 64.000 C 389.820 64.000,390.000 63.640,390.000 63.200 C 390.000 62.760,390.180 62.400,390.400 62.400 C 390.620 62.400,390.800 62.130,390.800 61.800 C 390.800 61.470,390.980 61.200,391.200 61.200 C 391.420 61.200,391.600 60.851,391.600 60.424 C 391.600 59.997,391.775 59.539,391.988 59.407 C 392.202 59.275,392.495 58.275,392.640 57.184 C 392.785 56.093,393.060 55.200,393.252 55.200 C 393.443 55.200,393.600 54.581,393.600 53.824 C 393.600 53.067,393.780 52.336,394.000 52.200 C 394.694 51.771,394.508 46.000,393.800 46.000 C 393.355 46.000,393.200 45.532,393.200 44.187 C 393.200 42.945,393.389 42.302,393.800 42.145 C 394.503 41.875,394.695 36.000,394.000 36.000 C 393.780 36.000,393.600 35.190,393.600 34.200 C 393.600 33.210,393.444 32.400,393.253 32.400 C 393.062 32.400,392.799 31.725,392.668 30.900 C 392.538 30.075,392.352 29.130,392.257 28.800 C 391.711 26.922,391.471 26.400,391.153 26.400 C 390.959 26.400,390.800 26.040,390.800 25.600 C 390.800 25.160,390.620 24.800,390.400 24.800 C 390.180 24.800,390.000 24.452,390.000 24.027 C 390.000 23.602,389.640 23.140,389.200 23.000 C 388.760 22.860,388.400 22.398,388.400 21.973 C 388.400 21.548,388.223 21.200,388.008 21.200 C 387.792 21.200,387.506 20.764,387.372 20.232 C 387.021 18.833,384.413 16.532,383.977 17.238 C 383.793 17.534,383.504 17.637,383.333 17.467 C 383.163 17.296,383.272 17.003,383.576 16.815 C 384.214 16.420,379.764 11.600,378.762 11.600 C 378.449 11.600,377.968 11.240,377.693 10.800 C 377.418 10.360,376.925 10.000,376.597 10.000 C 376.268 10.000,376.000 9.820,376.000 9.600 C 376.000 9.380,375.668 9.200,375.262 9.200 C 374.856 9.200,374.202 8.844,373.809 8.409 C 373.415 7.975,372.937 7.715,372.747 7.833 C 372.556 7.951,372.400 7.857,372.400 7.624 C 372.400 7.391,371.860 7.200,371.200 7.200 C 370.540 7.200,370.000 7.020,370.000 6.800 C 370.000 6.580,369.460 6.400,368.800 6.400 C 368.140 6.400,367.600 6.220,367.600 6.000 C 367.600 5.780,367.150 5.600,366.600 5.600 C 366.050 5.600,365.600 5.420,365.600 5.200 C 365.600 4.980,364.700 4.800,363.600 4.800 C 362.089 4.800,361.600 4.947,361.600 5.400 C 361.600 5.730,361.431 6.000,361.224 6.000 C 360.645 6.000,360.337 5.286,360.793 5.004 C 362.042 4.233,360.653 4.000,354.800 4.000 C 350.800 4.000,348.400 4.150,348.400 4.400 M73.508 181.700 L 73.616 190.000 77.194 190.000 C 81.704 190.000,81.600 189.826,81.600 197.400 C 81.600 204.976,81.705 204.800,77.186 204.800 L 73.600 204.800 73.600 217.576 C 73.600 225.663,73.747 230.444,74.000 230.600 C 74.220 230.736,74.400 231.132,74.400 231.480 C 74.400 232.599,75.709 233.174,78.286 233.187 C 80.377 233.198,80.842 233.331,81.211 234.021 C 81.689 234.914,81.613 248.523,81.128 249.006 C 80.705 249.428,69.195 249.221,67.400 248.760 C 63.158 247.670,59.681 245.315,58.305 242.600 C 56.406 238.851,56.364 238.410,56.149 219.900 L 55.972 204.800 53.200 204.800 C 49.618 204.800,49.600 204.764,49.600 197.400 C 49.600 190.032,49.616 190.000,53.214 190.000 L 56.000 190.000 56.000 182.331 C 56.000 172.286,55.100 173.154,65.369 173.292 L 73.400 173.400 73.508 181.700 M124.523 189.625 C 128.534 190.218,129.775 190.605,134.201 192.646 C 136.534 193.722,141.048 198.201,142.137 200.519 C 144.502 205.556,144.527 205.827,144.677 228.091 L 144.814 248.381 143.907 248.605 C 143.408 248.727,139.850 248.777,136.000 248.714 L 129.000 248.600 128.873 247.000 C 128.736 245.264,128.157 244.313,127.683 245.044 C 125.968 247.688,115.924 250.314,109.600 249.772 C 99.952 248.944,92.400 243.655,92.400 237.725 C 92.400 236.996,92.220 236.400,92.000 236.400 C 91.756 236.400,91.600 234.541,91.600 231.624 C 91.600 228.871,91.769 226.742,92.000 226.600 C 92.220 226.464,92.400 225.944,92.400 225.444 C 92.400 223.078,95.557 218.784,98.632 216.968 C 102.867 214.466,110.890 213.202,122.547 213.201 L 128.893 213.200 128.631 212.300 C 128.487 211.805,128.257 210.770,128.121 210.000 C 127.128 204.392,113.366 202.494,107.441 207.147 C 105.571 208.615,104.627 208.172,99.372 203.363 C 97.552 201.697,95.803 200.124,95.487 199.867 C 94.266 198.876,94.385 198.052,95.913 196.908 C 96.728 196.299,97.817 195.387,98.333 194.883 C 102.396 190.910,115.464 188.287,124.523 189.625 M194.600 190.343 C 200.251 191.687,207.096 194.550,210.000 196.785 L 211.000 197.555 209.760 198.877 C 209.079 199.605,208.245 200.614,207.909 201.120 C 206.708 202.924,200.792 208.800,200.176 208.800 C 199.831 208.800,198.615 208.379,197.474 207.864 C 196.333 207.349,194.050 206.615,192.400 206.232 C 190.750 205.850,188.847 205.371,188.172 205.168 C 186.452 204.653,179.746 204.708,178.028 205.252 C 174.561 206.351,173.600 206.907,173.600 207.815 C 173.600 209.763,175.903 210.467,186.000 211.610 C 200.933 213.300,206.343 215.448,208.757 220.646 C 213.097 229.993,211.452 238.478,204.162 244.334 C 202.726 245.488,198.488 247.600,197.609 247.600 C 197.252 247.600,196.789 247.758,196.580 247.952 C 193.925 250.413,176.921 250.239,168.000 247.660 C 167.230 247.438,165.652 246.989,164.493 246.662 C 162.451 246.087,156.405 243.342,156.000 242.806 C 155.890 242.661,155.485 242.425,155.100 242.283 C 153.996 241.876,154.274 240.730,155.900 238.987 C 156.725 238.102,157.884 236.753,158.476 235.989 C 159.067 235.225,160.327 233.772,161.276 232.760 C 162.224 231.748,163.358 230.443,163.795 229.860 C 164.819 228.494,164.773 228.487,168.982 230.601 C 170.952 231.590,172.797 232.400,173.082 232.400 C 173.367 232.400,173.600 232.580,173.600 232.800 C 173.600 233.020,174.095 233.202,174.700 233.205 C 175.305 233.207,176.790 233.475,178.000 233.800 C 182.705 235.063,191.879 234.205,193.892 232.313 C 196.581 229.788,193.675 227.168,187.600 226.640 C 168.362 224.966,160.725 222.015,158.847 215.530 C 158.571 214.578,158.178 213.247,157.973 212.572 C 157.454 210.861,157.507 205.746,158.061 204.028 C 159.516 199.521,159.863 198.920,162.592 196.174 C 168.728 189.998,182.556 187.479,194.600 190.343 M262.462 190.361 C 265.820 191.430,269.324 193.999,271.400 196.915 C 273.144 199.364,273.428 199.553,273.781 198.500 C 275.129 194.492,283.344 189.710,289.530 189.332 C 301.557 188.598,309.925 195.596,312.090 208.200 C 312.747 212.028,312.946 248.061,312.312 248.463 C 311.722 248.837,296.385 248.923,295.433 248.557 C 294.870 248.341,294.800 246.449,294.800 231.334 C 294.800 212.097,294.589 210.222,292.140 207.722 C 289.330 204.853,281.400 204.856,278.953 207.728 C 276.759 210.302,276.697 210.873,276.434 230.800 L 276.200 248.600 268.200 248.713 C 263.800 248.776,259.795 248.727,259.300 248.606 L 258.400 248.385 258.400 229.816 C 258.400 217.868,258.257 211.159,258.000 211.000 C 257.780 210.864,257.600 210.439,257.600 210.055 C 257.600 206.892,249.352 204.356,244.991 206.178 C 240.831 207.916,240.800 208.090,240.800 229.611 C 240.800 244.658,240.702 247.983,240.249 248.359 C 239.865 248.678,237.170 248.784,231.349 248.708 L 223.000 248.600 222.897 219.625 C 222.816 196.710,222.900 190.584,223.297 190.331 C 224.053 189.852,239.115 189.926,240.026 190.414 C 240.646 190.746,240.800 191.262,240.800 193.014 C 240.800 195.645,240.686 195.628,243.414 193.406 C 248.623 189.163,255.328 188.091,262.462 190.361 M110.019 227.412 C 106.410 229.407,106.986 234.034,111.017 235.437 C 113.001 236.127,120.862 236.182,123.494 235.523 C 127.252 234.582,129.084 232.082,128.731 228.375 L 128.600 227.000 119.800 226.935 C 113.045 226.885,110.772 226.996,110.019 227.412 M160.323 391.630 C 160.245 391.867,160.009 392.060,159.800 392.060 C 159.591 392.060,159.356 391.867,159.277 391.630 C 159.198 391.394,159.433 391.200,159.800 391.200 C 160.167 391.200,160.402 391.394,160.323 391.630 M202.323 391.630 C 202.245 391.867,202.009 392.060,201.800 392.060 C 201.591 392.060,201.356 391.867,201.277 391.630 C 201.198 391.394,201.433 391.200,201.800 391.200 C 202.167 391.200,202.402 391.394,202.323 391.630 " stroke="none" fill="#14db6c" fill-rule="evenodd"></path><path id="path2" d="M176.100 42.698 C 178.465 42.769,182.335 42.769,184.700 42.698 C 187.065 42.628,185.130 42.570,180.400 42.570 C 175.670 42.570,173.735 42.628,176.100 42.698 M73.367 182.800 C 73.367 187.090,73.426 188.845,73.498 186.700 C 73.570 184.555,73.570 181.045,73.498 178.900 C 73.426 176.755,73.367 178.510,73.367 182.800 M178.100 190.276 C 178.485 190.376,179.115 190.376,179.500 190.276 C 179.885 190.175,179.570 190.093,178.800 190.093 C 178.030 190.093,177.715 190.175,178.100 190.276 M50.159 197.200 C 50.159 200.390,50.221 201.695,50.297 200.100 C 50.373 198.505,50.373 195.895,50.297 194.300 C 50.221 192.705,50.159 194.010,50.159 197.200 M269.200 195.400 C 269.946 196.170,270.647 196.800,270.757 196.800 C 270.867 196.800,270.346 196.170,269.600 195.400 C 268.854 194.630,268.153 194.000,268.043 194.000 C 267.933 194.000,268.454 194.630,269.200 195.400 M305.200 195.400 C 305.946 196.170,306.647 196.800,306.757 196.800 C 306.867 196.800,306.346 196.170,305.600 195.400 C 304.854 194.630,304.153 194.000,304.043 194.000 C 303.933 194.000,304.454 194.630,305.200 195.400 M240.064 195.476 C 239.987 197.007,240.506 197.451,241.255 196.496 C 241.743 195.872,241.730 195.855,241.127 196.326 C 240.530 196.793,240.436 196.703,240.291 195.526 L 240.128 194.200 240.064 195.476 M98.600 202.000 C 99.459 202.880,100.252 203.600,100.362 203.600 C 100.472 203.600,99.859 202.880,99.000 202.000 C 98.141 201.120,97.348 200.400,97.238 200.400 C 97.128 200.400,97.741 201.120,98.600 202.000 M205.375 202.900 L 204.200 204.200 205.500 203.025 C 206.215 202.379,206.800 201.794,206.800 201.725 C 206.800 201.416,206.470 201.688,205.375 202.900 M116.700 203.882 C 117.195 203.978,118.005 203.978,118.500 203.882 C 118.995 203.787,118.590 203.709,117.600 203.709 C 116.610 203.709,116.205 203.787,116.700 203.882 M73.379 217.600 C 73.379 224.970,73.433 227.985,73.499 224.300 C 73.565 220.615,73.565 214.585,73.499 210.900 C 73.433 207.215,73.379 210.230,73.379 217.600 M158.120 208.400 C 158.120 209.610,158.195 210.105,158.287 209.500 C 158.378 208.895,158.378 207.905,158.287 207.300 C 158.195 206.695,158.120 207.190,158.120 208.400 M144.172 219.600 C 144.172 224.770,144.229 226.885,144.299 224.300 C 144.368 221.715,144.368 217.485,144.299 214.900 C 144.229 212.315,144.172 214.430,144.172 219.600 M111.907 214.290 C 112.626 214.379,113.706 214.377,114.307 214.286 C 114.908 214.195,114.320 214.122,113.000 214.124 C 111.680 214.126,111.188 214.201,111.907 214.290 M295.370 223.200 C 295.370 227.930,295.428 229.865,295.498 227.500 C 295.569 225.135,295.569 221.265,295.498 218.900 C 295.428 216.535,295.370 218.470,295.370 223.200 M312.095 231.667 C 312.022 244.233,311.886 247.979,311.500 248.135 C 311.108 248.293,311.111 248.344,311.513 248.368 C 312.385 248.422,312.412 247.837,312.300 231.399 L 312.191 215.400 312.095 231.667 M112.500 226.276 C 112.885 226.376,113.515 226.376,113.900 226.276 C 114.285 226.175,113.970 226.093,113.200 226.093 C 112.430 226.093,112.115 226.175,112.500 226.276 M123.712 226.295 C 124.764 226.377,126.384 226.376,127.312 226.292 C 128.240 226.208,127.380 226.141,125.400 226.142 C 123.420 226.143,122.660 226.212,123.712 226.295 M128.924 229.000 C 128.926 230.320,129.001 230.812,129.090 230.093 C 129.179 229.374,129.177 228.294,129.086 227.693 C 128.995 227.092,128.922 227.680,128.924 229.000 M77.300 233.887 C 77.905 233.978,78.895 233.978,79.500 233.887 C 80.105 233.795,79.610 233.720,78.400 233.720 C 77.190 233.720,76.695 233.795,77.300 233.887 M115.907 236.690 C 116.626 236.779,117.706 236.777,118.307 236.686 C 118.908 236.595,118.320 236.522,117.000 236.524 C 115.680 236.526,115.188 236.601,115.907 236.690 M128.846 246.076 C 128.821 247.108,128.942 248.041,129.116 248.148 C 129.290 248.256,129.370 247.682,129.293 246.872 C 129.059 244.398,128.895 244.107,128.846 246.076 M72.915 248.696 C 74.188 248.776,76.168 248.775,77.315 248.694 C 78.462 248.614,77.420 248.549,75.000 248.550 C 72.580 248.551,71.642 248.616,72.915 248.696 M178.100 249.076 C 178.485 249.176,179.115 249.176,179.500 249.076 C 179.885 248.975,179.570 248.893,178.800 248.893 C 178.030 248.893,177.715 248.975,178.100 249.076 " stroke="none" fill="#6aeba2" fill-rule="evenodd"></path><path id="path3" d="M393.600 43.200 C 393.600 43.640,393.780 44.000,394.000 44.000 C 394.220 44.000,394.400 43.640,394.400 43.200 C 394.400 42.760,394.220 42.400,394.000 42.400 C 393.780 42.400,393.600 42.760,393.600 43.200 M393.600 45.000 C 393.600 45.330,393.780 45.600,394.000 45.600 C 394.220 45.600,394.400 45.330,394.400 45.000 C 394.400 44.670,394.220 44.400,394.000 44.400 C 393.780 44.400,393.600 44.670,393.600 45.000 M113.300 189.876 C 113.685 189.976,114.315 189.976,114.700 189.876 C 115.085 189.775,114.770 189.693,114.000 189.693 C 113.230 189.693,112.915 189.775,113.300 189.876 M178.305 189.883 C 178.802 189.979,179.522 189.975,179.905 189.875 C 180.287 189.775,179.880 189.696,179.000 189.701 C 178.120 189.705,177.807 189.787,178.305 189.883 M269.600 195.400 C 270.346 196.170,271.047 196.800,271.157 196.800 C 271.267 196.800,270.746 196.170,270.000 195.400 C 269.254 194.630,268.553 194.000,268.443 194.000 C 268.333 194.000,268.854 194.630,269.600 195.400 M205.978 202.700 L 204.600 204.200 206.100 202.822 C 207.496 201.538,207.784 201.200,207.478 201.200 C 207.412 201.200,206.737 201.875,205.978 202.700 M98.000 201.725 C 98.000 201.794,98.585 202.379,99.300 203.025 L 100.600 204.200 99.425 202.900 C 98.330 201.688,98.000 201.416,98.000 201.725 M116.700 204.282 C 117.195 204.378,118.005 204.378,118.500 204.282 C 118.995 204.187,118.590 204.109,117.600 204.109 C 116.610 204.109,116.205 204.187,116.700 204.282 M181.300 204.694 C 182.345 204.776,184.055 204.776,185.100 204.694 C 186.145 204.612,185.290 204.544,183.200 204.544 C 181.110 204.544,180.255 204.612,181.300 204.694 M157.720 208.400 C 157.720 209.610,157.795 210.105,157.887 209.500 C 157.978 208.895,157.978 207.905,157.887 207.300 C 157.795 206.695,157.720 207.190,157.720 208.400 M242.204 207.596 C 241.574 208.254,241.135 208.856,241.229 208.934 C 241.323 209.012,241.913 208.474,242.539 207.738 C 243.954 206.077,243.745 205.988,242.204 207.596 M184.900 211.876 C 185.285 211.976,185.915 211.976,186.300 211.876 C 186.685 211.775,186.370 211.693,185.600 211.693 C 184.830 211.693,184.515 211.775,184.900 211.876 M116.900 213.898 C 119.045 213.970,122.555 213.970,124.700 213.898 C 126.845 213.826,125.090 213.767,120.800 213.767 C 116.510 213.767,114.755 213.826,116.900 213.898 M294.974 224.400 C 294.974 230.010,295.030 232.305,295.099 229.500 C 295.168 226.695,295.168 222.105,295.099 219.300 C 295.030 216.495,294.974 218.790,294.974 224.400 M312.400 231.680 C 312.290 240.854,312.337 248.223,312.505 248.056 C 312.672 247.888,312.762 240.382,312.704 231.375 L 312.600 215.000 312.400 231.680 M205.200 216.925 C 205.200 216.994,205.785 217.579,206.500 218.225 L 207.800 219.400 206.625 218.100 C 205.530 216.888,205.200 216.616,205.200 216.925 M144.581 233.200 C 144.581 241.450,144.634 244.825,144.699 240.700 C 144.764 236.575,144.764 229.825,144.699 225.700 C 144.634 221.575,144.581 224.950,144.581 233.200 M181.700 225.876 C 182.085 225.976,182.715 225.976,183.100 225.876 C 183.485 225.775,183.170 225.693,182.400 225.693 C 181.630 225.693,181.315 225.775,181.700 225.876 M112.305 226.683 C 112.802 226.779,113.522 226.775,113.905 226.675 C 114.287 226.575,113.880 226.496,113.000 226.501 C 112.120 226.505,111.807 226.587,112.305 226.683 M123.900 226.693 C 124.835 226.777,126.365 226.777,127.300 226.693 C 128.235 226.609,127.470 226.540,125.600 226.540 C 123.730 226.540,122.965 226.609,123.900 226.693 M194.893 230.400 C 194.893 231.170,194.975 231.485,195.076 231.100 C 195.176 230.715,195.176 230.085,195.076 229.700 C 194.975 229.315,194.893 229.630,194.893 230.400 M56.514 232.600 C 56.517 233.700,56.595 234.103,56.687 233.495 C 56.779 232.886,56.777 231.986,56.682 231.495 C 56.587 231.003,56.511 231.500,56.514 232.600 M77.300 233.487 C 77.905 233.578,78.895 233.578,79.500 233.487 C 80.105 233.395,79.610 233.320,78.400 233.320 C 77.190 233.320,76.695 233.395,77.300 233.487 M113.105 236.283 C 113.602 236.379,114.322 236.375,114.705 236.275 C 115.087 236.175,114.680 236.096,113.800 236.101 C 112.920 236.105,112.607 236.187,113.105 236.283 M118.900 236.287 C 119.505 236.378,120.495 236.378,121.100 236.287 C 121.705 236.195,121.210 236.120,120.000 236.120 C 118.790 236.120,118.295 236.195,118.900 236.287 M72.716 249.097 C 74.099 249.175,76.259 249.174,77.516 249.095 C 78.772 249.016,77.640 248.952,75.000 248.953 C 72.360 248.953,71.332 249.018,72.716 249.097 M110.311 249.493 C 111.251 249.578,112.691 249.577,113.511 249.491 C 114.330 249.405,113.560 249.336,111.800 249.337 C 110.040 249.339,109.370 249.409,110.311 249.493 M182.100 249.494 C 183.145 249.576,184.855 249.576,185.900 249.494 C 186.945 249.412,186.090 249.344,184.000 249.344 C 181.910 249.344,181.055 249.412,182.100 249.494 " stroke="none" fill="#3be085" fill-rule="evenodd"></path><path id="path4" d="M239.764 219.400 C 239.763 223.140,239.823 224.724,239.897 222.920 C 239.971 221.115,239.972 218.055,239.898 216.120 C 239.825 214.184,239.764 215.660,239.764 219.400 M118.500 214.298 C 120.425 214.371,123.575 214.371,125.500 214.298 C 127.425 214.225,125.850 214.165,122.000 214.165 C 118.150 214.165,116.575 214.225,118.500 214.298 M275.600 231.080 C 275.490 240.584,275.537 248.223,275.704 248.056 C 275.872 247.888,275.962 240.112,275.904 230.776 L 275.800 213.800 275.600 231.080 M144.173 238.400 C 144.173 243.790,144.230 245.995,144.299 243.300 C 144.368 240.605,144.368 236.195,144.299 233.500 C 144.230 230.805,144.173 233.010,144.173 238.400 M295.369 239.800 C 295.370 244.420,295.428 246.255,295.499 243.878 C 295.570 241.501,295.569 237.721,295.498 235.478 C 295.427 233.235,295.369 235.180,295.369 239.800 M180.500 249.076 C 180.885 249.176,181.515 249.176,181.900 249.076 C 182.285 248.975,181.970 248.893,181.200 248.893 C 180.430 248.893,180.115 248.975,180.500 249.076 M185.700 249.076 C 186.085 249.176,186.715 249.176,187.100 249.076 C 187.485 248.975,187.170 248.893,186.400 248.893 C 185.630 248.893,185.315 248.975,185.700 249.076 " stroke="none" fill="#84ecb4" fill-rule="evenodd"></path><path id="path5" d="M57.280 174.480 C 56.939 174.821,56.800 177.250,56.800 182.863 L 56.800 190.766 53.700 190.883 L 50.600 191.000 50.600 197.400 L 50.600 203.800 53.695 203.917 L 56.790 204.033 56.902 218.917 L 57.014 233.800 57.007 218.800 L 57.000 203.800 53.900 203.683 L 50.800 203.566 50.800 197.400 L 50.800 191.234 53.900 191.117 L 57.000 191.000 57.200 182.800 L 57.400 174.600 64.748 174.491 C 69.829 174.415,72.266 174.523,72.648 174.840 C 72.987 175.122,73.200 175.142,73.200 174.892 C 73.200 173.876,58.270 173.490,57.280 174.480 M117.491 190.289 C 118.201 190.377,119.461 190.379,120.291 190.292 C 121.121 190.205,120.540 190.133,119.000 190.131 C 117.460 190.129,116.781 190.200,117.491 190.289 M183.100 190.293 C 184.035 190.377,185.565 190.377,186.500 190.293 C 187.435 190.209,186.670 190.140,184.800 190.140 C 182.930 190.140,182.165 190.209,183.100 190.293 M253.900 190.289 C 254.615 190.378,255.785 190.378,256.500 190.289 C 257.215 190.201,256.630 190.128,255.200 190.128 C 253.770 190.128,253.185 190.201,253.900 190.289 M289.491 190.289 C 290.201 190.377,291.461 190.379,292.291 190.292 C 293.121 190.205,292.540 190.133,291.000 190.131 C 289.460 190.129,288.781 190.200,289.491 190.289 M73.199 190.873 C 73.200 191.022,74.902 191.202,76.982 191.273 C 79.062 191.343,80.637 191.278,80.482 191.128 C 80.106 190.766,73.198 190.524,73.199 190.873 M111.000 190.811 C 110.272 191.002,110.902 191.041,112.600 190.909 C 114.140 190.789,115.475 190.625,115.567 190.545 C 115.873 190.278,112.216 190.491,111.000 190.811 M123.800 190.823 C 124.680 191.005,125.850 191.144,126.400 191.131 C 127.041 191.116,126.826 190.989,125.800 190.777 C 124.920 190.595,123.750 190.456,123.200 190.469 C 122.559 190.484,122.774 190.611,123.800 190.823 M175.800 190.806 C 175.097 190.988,175.842 191.028,177.600 190.903 C 179.250 190.785,180.675 190.624,180.767 190.544 C 181.075 190.278,177.013 190.491,175.800 190.806 M189.800 190.823 C 190.680 191.005,191.940 191.142,192.600 191.127 C 193.500 191.107,193.350 191.020,192.000 190.780 C 189.586 190.350,187.694 190.387,189.800 190.823 M249.800 190.819 C 249.242 191.071,249.485 191.107,250.600 190.938 C 251.480 190.804,252.275 190.628,252.367 190.547 C 252.710 190.244,250.568 190.471,249.800 190.819 M259.000 190.800 C 260.692 191.231,262.144 191.231,260.800 190.800 C 260.250 190.624,259.350 190.483,258.800 190.487 C 257.902 190.494,257.922 190.526,259.000 190.800 M285.600 190.800 C 284.808 191.054,284.767 191.120,285.400 191.120 C 285.840 191.120,286.650 190.976,287.200 190.800 C 287.992 190.546,288.033 190.480,287.400 190.480 C 286.960 190.480,286.150 190.624,285.600 190.800 M294.800 190.800 C 295.350 190.976,296.250 191.117,296.800 191.113 C 297.698 191.106,297.678 191.074,296.600 190.800 C 294.908 190.369,293.456 190.369,294.800 190.800 M231.600 191.187 L 239.400 191.400 239.517 194.500 C 239.660 198.306,239.988 198.401,242.892 195.477 C 244.051 194.310,245.450 193.045,246.000 192.666 L 247.000 191.977 246.000 192.456 C 245.450 192.719,243.994 193.894,242.764 195.067 C 239.962 197.740,240.000 197.748,240.000 194.480 C 240.000 190.664,240.291 190.786,231.420 190.887 L 223.800 190.974 231.600 191.187 M107.600 191.600 C 106.776 191.864,106.741 191.926,107.400 191.954 C 107.840 191.973,108.470 191.813,108.800 191.600 C 109.501 191.147,109.014 191.147,107.600 191.600 M128.200 191.600 C 128.640 191.789,129.270 191.944,129.600 191.944 C 129.978 191.944,129.904 191.817,129.400 191.600 C 128.960 191.411,128.330 191.256,128.000 191.256 C 127.622 191.256,127.696 191.383,128.200 191.600 M172.600 191.600 C 172.096 191.817,172.022 191.944,172.400 191.944 C 172.730 191.944,173.360 191.789,173.800 191.600 C 174.304 191.383,174.378 191.256,174.000 191.256 C 173.670 191.256,173.040 191.411,172.600 191.600 M194.600 191.600 C 195.040 191.789,195.760 191.938,196.200 191.932 C 196.843 191.923,196.804 191.857,196.000 191.600 C 194.632 191.162,193.581 191.162,194.600 191.600 M223.390 219.600 C 223.390 235.330,223.439 241.765,223.500 233.900 C 223.560 226.035,223.560 213.165,223.500 205.300 C 223.439 197.435,223.390 203.870,223.390 219.600 M262.000 191.298 C 262.323 191.618,266.000 193.171,266.000 192.988 C 266.000 192.896,265.505 192.569,264.900 192.261 C 263.702 191.652,261.678 190.980,262.000 191.298 M299.200 191.840 C 299.970 192.188,301.185 192.831,301.900 193.269 C 302.615 193.707,303.200 193.968,303.200 193.849 C 303.200 193.508,299.905 191.708,298.800 191.446 C 298.174 191.297,298.323 191.445,299.200 191.840 M130.400 192.134 C 130.400 192.237,130.981 192.524,131.691 192.772 C 132.401 193.019,132.806 193.057,132.591 192.856 C 132.135 192.429,130.400 191.858,130.400 192.134 M101.200 194.000 C 100.430 194.422,99.980 194.766,100.200 194.766 C 100.420 194.766,101.230 194.422,102.000 194.000 C 102.770 193.578,103.220 193.234,103.000 193.234 C 102.780 193.234,101.970 193.578,101.200 194.000 M133.233 193.321 C 133.325 193.388,133.940 193.758,134.600 194.145 L 135.800 194.847 134.856 194.024 C 134.336 193.571,133.721 193.200,133.489 193.200 C 133.257 193.200,133.142 193.254,133.233 193.321 M165.900 194.229 C 163.832 195.583,164.003 195.858,166.100 194.551 C 168.117 193.295,168.245 193.193,167.767 193.224 C 167.565 193.236,166.725 193.689,165.900 194.229 M267.899 194.553 C 268.634 195.187,270.059 196.860,271.066 198.271 C 272.773 200.663,274.400 201.154,274.400 199.276 C 274.400 199.166,274.063 199.381,273.652 199.753 C 272.937 200.400,272.848 200.344,271.674 198.515 C 270.504 196.692,268.519 194.600,267.182 193.779 C 266.842 193.571,267.165 193.919,267.899 194.553 M305.237 195.782 C 306.027 196.697,306.868 197.793,307.107 198.219 C 307.345 198.645,307.644 198.889,307.771 198.762 C 307.898 198.635,307.056 197.539,305.901 196.325 C 304.745 195.112,304.447 194.868,305.237 195.782 M276.759 195.904 C 274.755 198.140,274.322 198.934,276.139 197.043 C 277.173 195.966,277.956 195.023,277.880 194.947 C 277.804 194.871,277.300 195.301,276.759 195.904 M162.415 197.100 C 160.863 198.973,159.282 202.159,158.992 204.000 C 158.850 204.907,159.047 204.579,159.551 203.072 C 160.336 200.729,161.806 198.166,163.321 196.500 C 163.771 196.005,164.031 195.600,163.899 195.600 C 163.767 195.600,163.099 196.275,162.415 197.100 M207.547 199.782 C 205.103 202.443,203.483 204.400,203.722 204.400 C 204.010 204.400,209.733 197.992,209.554 197.870 C 209.469 197.812,208.566 198.673,207.547 199.782 M139.918 199.064 C 140.405 199.760,141.251 201.290,141.798 202.464 C 142.345 203.639,142.794 204.370,142.796 204.089 C 142.802 203.263,140.530 199.004,139.748 198.376 C 139.206 197.941,139.248 198.109,139.918 199.064 M98.412 201.238 C 102.748 205.503,104.800 207.396,104.800 207.131 C 104.800 207.003,102.685 204.959,100.100 202.588 C 97.515 200.216,96.755 199.609,98.412 201.238 M80.400 203.133 C 80.400 203.454,79.276 203.600,76.800 203.600 C 74.820 203.600,73.200 203.735,73.199 203.900 C 73.199 204.065,74.774 204.142,76.699 204.072 C 79.984 203.952,81.308 203.575,80.673 202.940 C 80.523 202.790,80.400 202.877,80.400 203.133 M116.500 203.487 C 117.105 203.578,118.095 203.578,118.700 203.487 C 119.305 203.395,118.810 203.320,117.600 203.320 C 116.390 203.320,115.895 203.395,116.500 203.487 M112.600 204.000 C 111.581 204.438,112.632 204.438,114.000 204.000 C 114.804 203.743,114.843 203.677,114.200 203.668 C 113.760 203.662,113.040 203.811,112.600 204.000 M120.433 203.743 C 120.525 203.822,121.320 203.997,122.200 204.132 C 123.290 204.299,123.609 204.255,123.200 203.995 C 122.653 203.646,120.045 203.409,120.433 203.743 M179.600 203.967 C 178.598 204.104,180.283 204.216,183.400 204.219 C 187.121 204.224,188.329 204.133,187.000 203.948 C 184.637 203.620,182.088 203.626,179.600 203.967 M108.900 205.189 C 107.965 205.614,107.200 206.050,107.200 206.158 C 107.200 206.266,107.965 206.026,108.900 205.624 C 109.835 205.222,110.870 204.797,111.200 204.678 C 111.733 204.487,111.733 204.461,111.200 204.440 C 110.870 204.428,109.835 204.765,108.900 205.189 M125.268 205.211 C 126.849 206.046,128.033 207.487,128.711 209.400 C 129.044 210.339,129.144 210.417,129.168 209.760 C 129.231 208.087,125.682 204.331,124.120 204.418 C 123.944 204.427,124.461 204.784,125.268 205.211 M174.879 205.069 C 173.340 205.828,172.277 207.561,172.823 208.424 C 173.098 208.858,173.189 208.746,173.194 207.970 C 173.201 206.696,174.548 205.393,176.400 204.869 C 177.190 204.645,177.452 204.460,177.000 204.445 C 176.560 204.430,175.606 204.711,174.879 205.069 M245.135 204.959 C 243.485 205.548,241.383 207.095,241.003 208.000 C 240.864 208.330,241.347 208.037,242.075 207.348 C 244.028 205.502,245.033 205.108,248.587 204.797 L 251.800 204.515 249.200 204.475 C 247.770 204.453,245.941 204.671,245.135 204.959 M283.891 204.689 C 284.601 204.777,285.861 204.779,286.691 204.692 C 287.521 204.605,286.940 204.533,285.400 204.531 C 283.860 204.529,283.181 204.600,283.891 204.689 M142.868 205.200 C 142.888 206.239,143.518 207.946,143.532 207.000 C 143.538 206.560,143.389 205.840,143.200 205.400 C 142.989 204.910,142.861 204.832,142.868 205.200 M192.400 205.421 C 193.390 205.733,194.380 205.977,194.600 205.963 C 195.300 205.921,192.234 204.861,191.400 204.857 C 190.960 204.855,191.410 205.109,192.400 205.421 M201.781 206.500 L 200.200 208.200 201.900 206.619 C 203.481 205.148,203.784 204.800,203.481 204.800 C 203.416 204.800,202.651 205.565,201.781 206.500 M253.246 205.352 C 254.041 205.636,255.256 206.270,255.946 206.762 C 256.636 207.253,257.200 207.548,257.200 207.418 C 257.200 206.947,253.422 204.800,252.622 204.818 C 252.090 204.829,252.311 205.018,253.246 205.352 M280.200 205.551 C 277.456 207.261,275.555 210.324,275.647 212.887 C 275.687 214.012,275.739 213.937,276.005 212.361 C 276.559 209.084,278.378 206.660,281.200 205.438 C 281.970 205.104,282.330 204.825,282.000 204.817 C 281.670 204.809,280.860 205.140,280.200 205.551 M289.745 205.386 C 292.446 206.349,294.416 208.713,295.163 211.887 C 295.393 212.863,295.534 213.076,295.560 212.487 C 295.689 209.546,291.540 204.754,288.920 204.818 C 288.524 204.827,288.895 205.083,289.745 205.386 M310.487 205.800 C 310.491 206.240,310.632 207.140,310.800 207.800 C 311.074 208.878,311.106 208.898,311.113 208.000 C 311.117 207.450,310.976 206.550,310.800 206.000 C 310.549 205.216,310.481 205.173,310.487 205.800 M158.534 208.400 C 158.534 210.050,158.605 210.725,158.691 209.900 C 158.778 209.075,158.778 207.725,158.691 206.900 C 158.605 206.075,158.534 206.750,158.534 208.400 M195.200 206.134 C 195.200 206.237,195.781 206.524,196.491 206.772 C 197.201 207.019,197.606 207.057,197.391 206.856 C 196.935 206.429,195.200 205.858,195.200 206.134 M258.159 209.727 C 258.622 210.676,259.057 211.314,259.127 211.145 C 259.299 210.728,257.986 208.000,257.613 208.000 C 257.451 208.000,257.697 208.777,258.159 209.727 M143.785 228.600 C 143.785 239.380,143.837 243.733,143.900 238.272 C 143.963 232.812,143.963 223.992,143.900 218.672 C 143.837 213.353,143.785 217.820,143.785 228.600 M173.421 209.634 C 173.695 210.077,176.016 211.318,176.209 211.124 C 176.284 211.050,175.635 210.600,174.768 210.125 C 173.900 209.650,173.294 209.429,173.421 209.634 M311.512 227.400 C 311.573 237.300,311.678 246.030,311.745 246.800 C 311.811 247.570,311.878 240.460,311.893 231.000 C 311.908 221.540,311.804 212.810,311.660 211.600 C 311.517 210.390,311.450 217.500,311.512 227.400 M239.452 211.700 C 238.989 213.429,239.167 248.000,239.639 248.000 C 239.954 248.000,240.039 242.732,239.939 229.401 C 239.863 219.171,239.776 210.801,239.747 210.801 C 239.717 210.800,239.585 211.205,239.452 211.700 M178.000 211.600 C 178.550 211.776,179.450 211.917,180.000 211.913 C 180.898 211.906,180.878 211.874,179.800 211.600 C 178.108 211.169,176.656 211.169,178.000 211.600 M183.600 212.420 C 184.590 212.597,186.120 212.730,187.000 212.717 C 188.559 212.694,188.548 212.685,186.600 212.382 C 183.736 211.935,181.069 211.970,183.600 212.420 M259.301 230.000 C 259.304 240.157,259.445 247.316,259.618 246.200 C 260.019 243.627,260.003 214.584,259.600 213.000 C 259.432 212.340,259.297 219.990,259.301 230.000 M190.400 213.220 C 192.814 213.650,194.706 213.613,192.600 213.177 C 191.720 212.995,190.460 212.858,189.800 212.873 C 188.900 212.893,189.050 212.980,190.400 213.220 M128.800 213.933 C 128.800 214.274,126.076 214.425,118.700 214.493 L 108.600 214.585 118.573 214.700 C 127.887 214.807,129.951 214.618,129.073 213.740 C 128.923 213.590,128.800 213.677,128.800 213.933 M159.212 214.000 C 159.212 214.330,159.387 214.870,159.600 215.200 C 159.945 215.733,159.988 215.733,159.988 215.200 C 159.988 214.870,159.813 214.330,159.600 214.000 C 159.255 213.467,159.212 213.467,159.212 214.000 M196.400 214.217 C 197.610 214.519,198.780 214.755,199.000 214.741 C 199.804 214.691,196.170 213.662,195.200 213.665 C 194.650 213.667,195.190 213.915,196.400 214.217 M105.800 215.200 C 104.722 215.474,104.702 215.506,105.600 215.513 C 106.150 215.517,107.050 215.376,107.600 215.200 C 108.944 214.769,107.492 214.769,105.800 215.200 M201.969 216.066 C 203.382 216.751,205.354 218.142,206.352 219.156 C 207.737 220.565,207.950 220.694,207.256 219.701 C 205.997 217.901,201.319 214.783,199.920 214.810 C 199.634 214.816,200.556 215.381,201.969 216.066 M160.021 216.159 C 159.993 216.635,162.839 220.095,163.069 219.864 C 163.168 219.766,162.833 219.261,162.324 218.742 C 161.816 218.224,161.094 217.350,160.721 216.800 C 160.348 216.250,160.033 215.961,160.021 216.159 M295.742 219.400 C 295.741 221.380,295.808 222.240,295.892 221.312 C 295.976 220.384,295.977 218.764,295.895 217.712 C 295.812 216.660,295.743 217.420,295.742 219.400 M99.900 217.227 C 99.075 217.663,98.400 218.108,98.400 218.218 C 98.400 218.396,101.559 216.919,101.967 216.551 C 102.427 216.134,101.225 216.528,99.900 217.227 M96.353 219.900 C 94.726 221.631,93.444 223.578,93.739 223.872 C 93.850 223.983,94.244 223.473,94.615 222.737 C 94.985 222.002,95.935 220.725,96.725 219.900 C 97.516 219.075,98.072 218.400,97.962 218.400 C 97.852 218.400,97.128 219.075,96.353 219.900 M163.600 220.285 C 163.600 220.634,165.199 221.738,165.400 221.528 C 165.467 221.457,165.089 221.077,164.561 220.681 C 164.032 220.286,163.600 220.108,163.600 220.285 M172.433 223.747 C 172.525 223.828,173.320 224.004,174.200 224.138 C 175.315 224.307,175.558 224.271,175.000 224.019 C 174.232 223.671,172.090 223.444,172.433 223.747 M177.500 224.682 C 177.995 224.778,178.805 224.778,179.300 224.682 C 179.795 224.587,179.390 224.509,178.400 224.509 C 177.410 224.509,177.005 224.587,177.500 224.682 M180.900 225.076 C 181.285 225.176,181.915 225.176,182.300 225.076 C 182.685 224.975,182.370 224.893,181.600 224.893 C 180.830 224.893,180.515 224.975,180.900 225.076 M184.033 225.348 C 184.125 225.429,185.550 225.596,187.200 225.719 C 189.424 225.884,189.786 225.852,188.600 225.594 C 186.999 225.246,183.719 225.069,184.033 225.348 M120.094 225.900 C 129.946 226.031,129.028 225.663,129.325 229.600 C 129.459 231.384,129.461 231.381,129.530 229.274 C 129.656 225.438,130.047 225.587,120.086 225.692 L 111.400 225.784 120.094 225.900 M109.105 226.626 C 105.547 228.557,106.680 236.481,110.501 236.388 C 110.776 236.381,110.640 236.177,110.200 235.934 C 106.214 233.735,105.970 228.688,109.758 226.813 C 110.661 226.366,111.130 226.008,110.800 226.016 C 110.470 226.025,109.707 226.299,109.105 226.626 M192.031 226.620 C 194.247 227.303,195.231 228.313,195.617 230.301 C 195.899 231.753,195.909 231.761,195.954 230.554 C 196.033 228.423,193.263 225.936,190.913 226.028 C 190.521 226.043,191.024 226.310,192.031 226.620 M209.640 227.433 C 209.662 228.295,209.827 229.450,210.007 230.000 C 210.211 230.621,210.251 230.091,210.112 228.600 C 209.854 225.821,209.582 225.149,209.640 227.433 M92.241 229.500 C 92.109 230.985,92.143 233.190,92.318 234.400 C 92.576 236.194,92.634 235.695,92.635 231.700 C 92.635 226.080,92.575 225.744,92.241 229.500 M163.021 231.900 L 161.472 233.800 163.306 232.046 C 164.644 230.767,165.366 230.350,165.971 230.508 C 166.428 230.628,166.700 230.562,166.577 230.363 C 166.003 229.434,164.502 230.083,163.021 231.900 M73.200 231.489 C 73.200 231.721,73.571 232.336,74.024 232.856 L 74.847 233.800 74.145 232.600 C 73.220 231.021,73.200 230.997,73.200 231.489 M209.701 232.600 C 209.705 233.480,209.787 233.793,209.883 233.295 C 209.979 232.798,209.975 232.078,209.875 231.695 C 209.775 231.313,209.696 231.720,209.701 232.600 M128.670 232.610 C 128.521 233.045,128.291 233.670,128.158 234.000 C 128.026 234.330,128.219 234.190,128.588 233.690 C 128.958 233.189,129.188 232.564,129.100 232.300 C 129.010 232.031,128.822 232.167,128.670 232.610 M194.974 232.442 C 194.824 232.685,193.959 233.221,193.051 233.633 C 192.143 234.045,191.634 234.386,191.920 234.391 C 192.653 234.404,194.560 233.371,195.178 232.626 C 195.464 232.282,195.597 232.000,195.473 232.000 C 195.349 232.000,195.124 232.199,194.974 232.442 M77.507 234.290 C 78.226 234.379,79.306 234.377,79.907 234.286 C 80.508 234.195,79.920 234.122,78.600 234.124 C 77.280 234.126,76.788 234.201,77.507 234.290 M159.975 235.500 C 157.104 238.605,156.257 239.600,156.484 239.600 C 156.612 239.600,157.835 238.340,159.200 236.800 C 161.798 233.869,162.371 232.909,159.975 235.500 M179.233 234.944 C 179.325 235.023,180.660 235.184,182.200 235.301 C 183.827 235.425,184.581 235.381,184.000 235.197 C 183.011 234.883,178.912 234.666,179.233 234.944 M186.105 235.087 C 186.714 235.179,187.614 235.177,188.105 235.082 C 188.597 234.987,188.100 234.911,187.000 234.914 C 185.900 234.917,185.497 234.995,186.105 235.087 M112.644 236.877 C 114.610 237.227,119.249 237.223,121.600 236.870 C 122.666 236.710,120.889 236.600,117.244 236.600 C 113.732 236.600,111.756 236.719,112.644 236.877 M57.234 237.600 C 57.246 237.930,57.411 238.560,57.600 239.000 L 57.944 239.800 57.966 239.000 C 57.978 238.560,57.813 237.930,57.600 237.600 C 57.255 237.067,57.215 237.067,57.234 237.600 M93.036 238.000 C 93.470 239.621,95.066 242.518,96.163 243.673 C 97.689 245.279,99.987 246.946,100.278 246.656 C 100.418 246.515,100.343 246.400,100.110 246.400 C 98.972 246.400,95.390 242.458,94.114 239.800 C 93.374 238.260,92.889 237.450,93.036 238.000 M207.046 239.786 C 206.690 240.329,205.545 241.614,204.500 242.642 C 202.849 244.267,202.793 244.370,204.073 243.429 C 205.376 242.471,206.869 240.796,207.752 239.300 C 208.297 238.377,207.700 238.789,207.046 239.786 M58.005 240.116 C 57.982 241.607,62.402 246.802,63.691 246.799 C 63.971 246.798,63.660 246.462,63.000 246.052 C 61.420 245.070,60.285 243.797,59.035 241.600 C 58.471 240.610,58.007 239.942,58.005 240.116 M155.600 241.537 C 155.600 241.960,160.416 244.517,160.692 244.241 C 160.825 244.109,160.758 244.000,160.543 244.000 C 160.329 244.000,159.129 243.383,157.876 242.629 C 156.624 241.875,155.600 241.384,155.600 241.537 M126.633 244.617 C 125.772 245.377,125.180 246.000,125.319 246.000 C 125.458 246.000,126.203 245.446,126.974 244.769 C 128.727 243.230,129.182 243.499,129.267 246.124 C 129.327 247.955,129.353 248.015,129.495 246.638 C 129.864 243.048,129.056 242.477,126.633 244.617 M162.000 245.000 C 162.550 245.314,163.180 245.572,163.400 245.572 C 163.620 245.572,163.350 245.314,162.800 245.000 C 162.250 244.686,161.620 244.428,161.400 244.428 C 161.180 244.428,161.450 244.686,162.000 245.000 M198.800 246.200 C 198.250 246.514,197.980 246.772,198.200 246.772 C 198.420 246.772,199.050 246.514,199.600 246.200 C 200.150 245.886,200.420 245.628,200.200 245.628 C 199.980 245.628,199.350 245.886,198.800 246.200 M71.519 248.298 C 73.344 248.372,76.224 248.372,77.919 248.297 C 79.614 248.222,78.120 248.161,74.600 248.162 C 71.080 248.162,69.694 248.224,71.519 248.298 M104.433 248.147 C 104.525 248.228,105.320 248.404,106.200 248.538 C 107.315 248.707,107.558 248.671,107.000 248.419 C 106.232 248.071,104.090 247.844,104.433 248.147 M133.100 248.298 C 134.915 248.372,137.885 248.372,139.700 248.298 C 141.515 248.223,140.030 248.163,136.400 248.163 C 132.770 248.163,131.285 248.223,133.100 248.298 M175.200 248.420 C 177.614 248.850,179.506 248.813,177.400 248.377 C 176.520 248.195,175.260 248.058,174.600 248.073 C 173.700 248.093,173.850 248.180,175.200 248.420 M189.800 248.400 C 188.730 248.672,188.708 248.705,189.600 248.705 C 190.150 248.705,191.140 248.568,191.800 248.400 C 192.870 248.128,192.892 248.095,192.000 248.095 C 191.450 248.095,190.460 248.232,189.800 248.400 M227.721 248.298 C 229.877 248.371,233.297 248.370,235.321 248.298 C 237.344 248.225,235.580 248.166,231.400 248.167 C 227.220 248.167,225.564 248.226,227.721 248.298 M264.121 248.298 C 266.277 248.371,269.697 248.370,271.721 248.298 C 273.744 248.225,271.980 248.166,267.800 248.167 C 263.620 248.167,261.964 248.226,264.121 248.298 M299.900 248.298 C 301.935 248.371,305.265 248.371,307.300 248.298 C 309.335 248.225,307.670 248.166,303.600 248.166 C 299.530 248.166,297.865 248.225,299.900 248.298 M183.105 249.083 C 183.602 249.179,184.322 249.175,184.705 249.075 C 185.087 248.975,184.680 248.896,183.800 248.901 C 182.920 248.905,182.607 248.987,183.105 249.083 " stroke="none" fill="#8cecb4" fill-rule="evenodd"></path><path id="path6" d="M56.662 173.931 C 56.094 174.559,56.000 175.757,56.000 182.331 L 56.000 190.000 53.224 190.000 C 51.697 190.000,50.363 190.135,50.261 190.300 C 50.158 190.465,51.453 190.510,53.137 190.400 L 56.200 190.200 56.309 182.430 C 56.446 172.628,55.492 173.543,65.424 173.685 C 69.879 173.748,73.441 173.665,73.339 173.500 C 72.882 172.764,57.355 173.165,56.662 173.931 M117.300 189.494 C 118.345 189.576,120.055 189.576,121.100 189.494 C 122.145 189.412,121.290 189.344,119.200 189.344 C 117.110 189.344,116.255 189.412,117.300 189.494 M182.700 189.495 C 183.855 189.576,185.745 189.576,186.900 189.495 C 188.055 189.414,187.110 189.348,184.800 189.348 C 182.490 189.348,181.545 189.414,182.700 189.495 M253.500 189.493 C 254.435 189.577,255.965 189.577,256.900 189.493 C 257.835 189.409,257.070 189.340,255.200 189.340 C 253.330 189.340,252.565 189.409,253.500 189.493 M289.511 189.493 C 290.451 189.578,291.891 189.577,292.711 189.491 C 293.530 189.405,292.760 189.336,291.000 189.337 C 289.240 189.339,288.570 189.409,289.511 189.493 M74.600 190.254 C 77.428 190.550,81.112 190.577,80.939 190.300 C 80.837 190.135,79.098 190.029,77.076 190.064 C 75.054 190.099,73.940 190.185,74.600 190.254 M227.500 190.298 C 229.755 190.370,233.445 190.370,235.700 190.298 C 237.955 190.227,236.110 190.169,231.600 190.169 C 227.090 190.169,225.245 190.227,227.500 190.298 M240.393 192.519 L 240.585 194.600 240.718 192.846 C 240.791 191.881,240.705 190.944,240.526 190.765 C 240.347 190.585,240.287 191.375,240.393 192.519 M196.033 190.944 C 196.125 191.023,196.740 191.208,197.400 191.356 C 198.276 191.552,198.438 191.515,198.000 191.218 C 197.460 190.853,195.632 190.598,196.033 190.944 M263.633 190.949 C 264.045 191.317,266.400 192.400,266.400 192.221 C 266.400 191.990,264.182 190.800,263.753 190.800 C 263.596 190.800,263.542 190.867,263.633 190.949 M49.762 197.400 C 49.762 200.920,49.824 202.306,49.898 200.481 C 49.972 198.656,49.972 195.776,49.897 194.081 C 49.822 192.386,49.761 193.880,49.762 197.400 M81.362 197.400 C 81.362 200.920,81.424 202.306,81.498 200.481 C 81.572 198.656,81.572 195.776,81.497 194.081 C 81.422 192.386,81.361 193.880,81.362 197.400 M302.056 192.366 C 302.575 192.787,303.077 193.055,303.171 192.961 C 303.376 192.757,301.944 191.631,301.456 191.613 C 301.266 191.606,301.536 191.945,302.056 192.366 M166.000 193.233 L 165.000 194.048 166.300 193.414 C 167.015 193.065,167.600 192.694,167.600 192.590 C 167.600 192.192,166.963 192.448,166.000 193.233 M266.825 192.666 C 266.838 192.850,267.665 193.595,268.663 194.323 C 269.660 195.051,270.366 195.469,270.232 195.252 C 269.834 194.608,266.798 192.304,266.825 192.666 M204.000 193.800 C 204.550 194.114,205.180 194.372,205.400 194.372 C 205.620 194.372,205.350 194.114,204.800 193.800 C 204.250 193.486,203.620 193.228,203.400 193.228 C 203.180 193.228,203.450 193.486,204.000 193.800 M242.062 194.440 C 241.326 195.109,240.798 195.731,240.889 195.822 C 240.980 195.914,241.663 195.361,242.406 194.594 C 244.066 192.881,243.872 192.794,242.062 194.440 M304.400 193.725 C 304.400 193.794,304.985 194.379,305.700 195.025 L 307.000 196.200 305.825 194.900 C 304.730 193.688,304.400 193.416,304.400 193.725 M163.375 195.300 L 162.200 196.600 163.500 195.425 C 164.712 194.330,164.984 194.000,164.675 194.000 C 164.606 194.000,164.021 194.585,163.375 195.300 M140.434 198.247 C 140.965 198.933,141.480 199.423,141.579 199.335 C 141.677 199.247,141.243 198.686,140.613 198.088 L 139.469 197.000 140.434 198.247 M96.000 200.125 C 96.000 200.194,96.585 200.779,97.300 201.425 L 98.600 202.600 97.425 201.300 C 96.330 200.088,96.000 199.816,96.000 200.125 M205.186 203.900 L 203.000 206.200 205.300 204.014 C 206.565 202.811,207.600 201.776,207.600 201.714 C 207.600 201.417,207.218 201.763,205.186 203.900 M310.028 201.800 C 310.028 202.020,310.286 202.650,310.600 203.200 C 310.914 203.750,311.172 204.020,311.172 203.800 C 311.172 203.580,310.914 202.950,310.600 202.400 C 310.286 201.850,310.028 201.580,310.028 201.800 M50.260 204.500 C 50.363 204.665,51.697 204.800,53.224 204.800 L 56.000 204.800 56.028 219.500 C 56.044 227.585,56.179 234.509,56.328 234.887 C 56.615 235.612,56.504 205.736,56.217 204.932 C 56.116 204.650,54.870 204.413,53.062 204.332 C 51.418 204.260,50.158 204.335,50.260 204.500 M77.200 204.400 L 73.400 204.647 77.076 204.723 C 79.183 204.767,80.858 204.629,81.000 204.400 C 81.136 204.180,81.192 204.034,81.124 204.077 C 81.056 204.119,79.290 204.264,77.200 204.400 M101.600 205.400 C 102.346 206.170,103.047 206.800,103.157 206.800 C 103.267 206.800,102.746 206.170,102.000 205.400 C 101.254 204.630,100.553 204.000,100.443 204.000 C 100.333 204.000,100.854 204.630,101.600 205.400 M157.849 204.615 C 157.712 204.973,157.615 205.566,157.634 205.933 C 157.653 206.300,157.827 206.069,158.021 205.420 C 158.398 204.158,158.265 203.533,157.849 204.615 M114.700 204.682 C 115.195 204.778,116.005 204.778,116.500 204.682 C 116.995 204.587,116.590 204.509,115.600 204.509 C 114.610 204.509,114.205 204.587,114.700 204.682 M119.100 204.682 C 119.595 204.778,120.405 204.778,120.900 204.682 C 121.395 204.587,120.990 204.509,120.000 204.509 C 119.010 204.509,118.605 204.587,119.100 204.682 M247.907 205.490 C 248.626 205.579,249.706 205.577,250.307 205.486 C 250.908 205.395,250.320 205.322,249.000 205.324 C 247.680 205.326,247.188 205.401,247.907 205.490 M284.307 205.490 C 285.026 205.579,286.106 205.577,286.707 205.486 C 287.308 205.395,286.720 205.322,285.400 205.324 C 284.080 205.326,283.588 205.401,284.307 205.490 M255.200 206.925 C 255.200 206.994,255.785 207.579,256.500 208.225 L 257.800 209.400 256.625 208.100 C 255.530 206.888,255.200 206.616,255.200 206.925 M144.311 211.536 C 144.485 218.272,144.660 219.055,144.727 213.400 C 144.760 210.540,144.656 207.991,144.494 207.736 C 144.332 207.482,144.250 209.192,144.311 211.536 M157.606 211.033 C 157.609 211.455,157.795 212.070,158.018 212.400 C 158.315 212.838,158.352 212.676,158.156 211.800 C 157.827 210.329,157.598 210.010,157.606 211.033 M179.633 210.943 C 179.725 211.022,180.520 211.197,181.400 211.332 C 182.490 211.499,182.809 211.455,182.400 211.195 C 181.853 210.846,179.245 210.609,179.633 210.943 M276.622 212.222 C 276.472 213.025,276.428 213.762,276.526 213.860 C 276.624 213.957,276.827 213.381,276.978 212.578 C 277.128 211.775,277.172 211.038,277.074 210.940 C 276.976 210.843,276.773 211.419,276.622 212.222 M240.398 229.600 L 240.200 248.200 231.600 248.412 L 223.000 248.624 231.451 248.712 C 238.185 248.782,239.994 248.689,240.355 248.254 C 240.681 247.861,240.778 242.576,240.702 229.354 L 240.596 211.000 240.398 229.600 M312.520 213.200 C 312.520 214.410,312.595 214.905,312.687 214.300 C 312.778 213.695,312.778 212.705,312.687 212.100 C 312.595 211.495,312.520 211.990,312.520 213.200 M117.900 213.498 C 119.935 213.571,123.265 213.571,125.300 213.498 C 127.335 213.425,125.670 213.366,121.600 213.366 C 117.530 213.366,115.865 213.425,117.900 213.498 M111.300 213.876 C 111.685 213.976,112.315 213.976,112.700 213.876 C 113.085 213.775,112.770 213.693,112.000 213.693 C 111.230 213.693,110.915 213.775,111.300 213.876 M258.584 231.000 C 258.584 240.680,258.636 244.583,258.700 239.673 C 258.763 234.763,258.763 226.843,258.700 222.073 C 258.636 217.303,258.584 221.320,258.584 231.000 M99.100 216.629 C 98.495 216.957,98.000 217.310,98.000 217.413 C 98.000 217.799,98.632 217.557,99.600 216.800 C 100.789 215.870,100.611 215.809,99.100 216.629 M95.608 219.392 C 94.641 220.377,93.929 221.241,94.025 221.313 C 94.121 221.384,94.990 220.578,95.957 219.521 C 98.171 217.100,97.941 217.014,95.608 219.392 M179.300 225.876 C 179.685 225.976,180.315 225.976,180.700 225.876 C 181.085 225.775,180.770 225.693,180.000 225.693 C 179.230 225.693,178.915 225.775,179.300 225.876 M116.300 226.695 C 117.455 226.776,119.345 226.776,120.500 226.695 C 121.655 226.614,120.710 226.548,118.400 226.548 C 116.090 226.548,115.145 226.614,116.300 226.695 M186.500 226.676 C 186.885 226.776,187.515 226.776,187.900 226.676 C 188.285 226.575,187.970 226.493,187.200 226.493 C 186.430 226.493,186.115 226.575,186.500 226.676 M210.937 229.800 C 210.939 231.560,211.009 232.230,211.093 231.289 C 211.178 230.349,211.177 228.909,211.091 228.089 C 211.005 227.270,210.936 228.040,210.937 229.800 M165.269 229.191 C 165.856 229.369,166.576 229.637,166.869 229.787 C 167.161 229.937,167.051 229.776,166.624 229.430 C 166.196 229.083,165.476 228.815,165.024 228.834 C 164.363 228.862,164.411 228.933,165.269 229.191 M159.822 234.375 L 158.244 236.200 160.003 234.514 C 160.970 233.586,161.680 232.765,161.580 232.688 C 161.481 232.612,160.690 233.371,159.822 234.375 M81.365 241.200 C 81.365 245.050,81.425 246.625,81.498 244.700 C 81.571 242.775,81.571 239.625,81.498 237.700 C 81.425 235.775,81.365 237.350,81.365 241.200 M183.100 234.689 C 183.815 234.778,184.985 234.778,185.700 234.689 C 186.415 234.601,185.830 234.528,184.400 234.528 C 182.970 234.528,182.385 234.601,183.100 234.689 M115.905 236.283 C 116.402 236.379,117.122 236.375,117.505 236.275 C 117.887 236.175,117.480 236.096,116.600 236.101 C 115.720 236.105,115.407 236.187,115.905 236.283 M154.880 240.080 C 154.314 240.646,154.246 241.858,154.763 242.177 C 154.962 242.300,155.031 242.040,154.915 241.598 C 154.800 241.157,154.929 240.527,155.202 240.198 C 155.794 239.484,155.561 239.399,154.880 240.080 M95.400 244.000 C 96.259 244.880,97.052 245.600,97.162 245.600 C 97.272 245.600,96.659 244.880,95.800 244.000 C 94.941 243.120,94.148 242.400,94.038 242.400 C 93.928 242.400,94.541 243.120,95.400 244.000 M59.801 244.734 C 60.460 245.468,61.360 246.255,61.800 246.483 C 62.240 246.711,62.420 246.740,62.200 246.548 C 61.980 246.355,61.080 245.568,60.201 244.799 L 58.602 243.400 59.801 244.734 M267.600 248.400 L 259.000 248.624 267.476 248.712 C 272.793 248.767,276.045 248.651,276.200 248.400 C 276.336 248.180,276.392 248.040,276.324 248.088 C 276.256 248.136,272.330 248.277,267.600 248.400 M102.833 248.544 C 102.925 248.623,103.540 248.808,104.200 248.956 C 105.076 249.152,105.238 249.115,104.800 248.818 C 104.260 248.453,102.432 248.198,102.833 248.544 M132.921 248.698 C 135.077 248.771,138.497 248.770,140.521 248.698 C 142.544 248.625,140.780 248.566,136.600 248.567 C 132.420 248.567,130.764 248.626,132.921 248.698 M171.633 248.547 C 171.725 248.628,172.520 248.804,173.400 248.938 C 174.515 249.107,174.758 249.071,174.200 248.819 C 173.432 248.471,171.290 248.244,171.633 248.547 M299.722 248.699 C 302.099 248.770,305.879 248.769,308.122 248.698 C 310.365 248.627,308.420 248.569,303.800 248.569 C 299.180 248.570,297.345 248.628,299.722 248.699 M106.705 249.483 C 107.202 249.579,107.922 249.575,108.305 249.475 C 108.687 249.375,108.280 249.296,107.400 249.301 C 106.520 249.305,106.207 249.387,106.705 249.483 M115.505 249.483 C 116.002 249.579,116.722 249.575,117.105 249.475 C 117.487 249.375,117.080 249.296,116.200 249.301 C 115.320 249.305,115.007 249.387,115.505 249.483 M177.107 249.490 C 177.826 249.579,178.906 249.577,179.507 249.486 C 180.108 249.395,179.520 249.322,178.200 249.324 C 176.880 249.326,176.388 249.401,177.107 249.490 M188.505 249.487 C 189.114 249.579,190.014 249.577,190.505 249.482 C 190.997 249.387,190.500 249.311,189.400 249.314 C 188.300 249.317,187.897 249.395,188.505 249.487 M111.100 249.882 C 111.595 249.978,112.405 249.978,112.900 249.882 C 113.395 249.787,112.990 249.709,112.000 249.709 C 111.010 249.709,110.605 249.787,111.100 249.882 M182.905 249.887 C 183.514 249.979,184.414 249.977,184.905 249.882 C 185.397 249.787,184.900 249.711,183.800 249.714 C 182.700 249.717,182.297 249.795,182.905 249.887 " stroke="none" fill="#2ae47c" fill-rule="evenodd"></path><path id="path7" d="M61.300 173.898 C 63.445 173.970,66.955 173.970,69.100 173.898 C 71.245 173.826,69.490 173.767,65.200 173.767 C 60.910 173.767,59.155 173.826,61.300 173.898 M56.568 182.600 C 56.568 187.000,56.626 188.855,56.698 186.721 C 56.770 184.588,56.770 180.988,56.699 178.721 C 56.627 176.455,56.568 178.200,56.568 182.600 M117.113 189.895 C 118.276 189.976,120.076 189.976,121.113 189.893 C 122.151 189.811,121.200 189.745,119.000 189.746 C 116.800 189.747,115.951 189.814,117.113 189.895 M181.100 189.882 C 181.595 189.978,182.405 189.978,182.900 189.882 C 183.395 189.787,182.990 189.709,182.000 189.709 C 181.010 189.709,180.605 189.787,181.100 189.882 M185.507 189.890 C 186.226 189.979,187.306 189.977,187.907 189.886 C 188.508 189.795,187.920 189.722,186.600 189.724 C 185.280 189.726,184.788 189.801,185.507 189.890 M252.705 189.883 C 253.202 189.979,253.922 189.975,254.305 189.875 C 254.687 189.775,254.280 189.696,253.400 189.701 C 252.520 189.705,252.207 189.787,252.705 189.883 M256.305 189.883 C 256.802 189.979,257.522 189.975,257.905 189.875 C 258.287 189.775,257.880 189.696,257.000 189.701 C 256.120 189.705,255.807 189.787,256.305 189.883 M288.305 189.883 C 288.802 189.979,289.522 189.975,289.905 189.875 C 290.287 189.775,289.880 189.696,289.000 189.701 C 288.120 189.705,287.807 189.787,288.305 189.883 M291.900 189.882 C 292.395 189.978,293.205 189.978,293.700 189.882 C 294.195 189.787,293.790 189.709,292.800 189.709 C 291.810 189.709,291.405 189.787,291.900 189.882 M51.891 190.689 C 52.601 190.777,53.861 190.779,54.691 190.692 C 55.521 190.605,54.940 190.533,53.400 190.531 C 51.860 190.529,51.181 190.600,51.891 190.689 M75.300 190.694 C 76.345 190.776,78.055 190.776,79.100 190.694 C 80.145 190.612,79.290 190.544,77.200 190.544 C 75.110 190.544,74.255 190.612,75.300 190.694 M227.521 190.699 C 229.788 190.770,233.388 190.770,235.521 190.698 C 237.655 190.626,235.800 190.568,231.400 190.568 C 227.000 190.568,225.255 190.627,227.521 190.699 M239.990 192.719 L 240.183 194.600 240.319 193.047 C 240.393 192.193,240.307 191.347,240.126 191.166 C 239.945 190.985,239.884 191.684,239.990 192.719 M80.962 197.400 C 80.962 200.920,81.024 202.306,81.098 200.481 C 81.172 198.656,81.172 195.776,81.097 194.081 C 81.022 192.386,80.961 193.880,80.962 197.400 M222.990 219.600 C 222.990 235.330,223.039 241.765,223.100 233.900 C 223.160 226.035,223.160 213.165,223.100 205.300 C 223.039 197.435,222.990 203.870,222.990 219.600 M241.578 195.500 L 240.200 197.000 241.700 195.622 C 243.096 194.338,243.384 194.000,243.078 194.000 C 243.012 194.000,242.337 194.675,241.578 195.500 M51.491 204.289 C 52.201 204.377,53.461 204.379,54.291 204.292 C 55.121 204.205,54.540 204.133,53.000 204.131 C 51.460 204.129,50.781 204.200,51.491 204.289 M75.300 204.294 C 76.345 204.376,78.055 204.376,79.100 204.294 C 80.145 204.212,79.290 204.144,77.200 204.144 C 75.110 204.144,74.255 204.212,75.300 204.294 M56.579 217.800 C 56.579 225.060,56.633 228.086,56.699 224.525 C 56.765 220.964,56.766 215.024,56.699 211.325 C 56.633 207.626,56.579 210.540,56.579 217.800 M240.000 229.880 C 239.890 240.044,239.937 248.223,240.104 248.056 C 240.271 247.889,240.361 239.573,240.304 229.576 L 240.200 211.400 240.000 229.880 M312.109 214.000 C 312.109 214.990,312.187 215.395,312.282 214.900 C 312.378 214.405,312.378 213.595,312.282 213.100 C 312.187 212.605,312.109 213.010,312.109 214.000 M258.889 230.476 C 258.840 240.088,258.935 248.036,259.100 248.139 C 259.373 248.307,259.367 235.009,259.088 219.200 C 259.027 215.790,258.938 220.864,258.889 230.476 M276.000 230.680 C 275.890 240.404,275.937 248.223,276.104 248.056 C 276.272 247.888,276.362 239.932,276.304 230.376 L 276.200 213.000 276.000 230.680 M108.900 214.276 C 109.285 214.376,109.915 214.376,110.300 214.276 C 110.685 214.175,110.370 214.093,109.600 214.093 C 108.830 214.093,108.515 214.175,108.900 214.276 M162.000 219.325 C 162.000 219.394,162.585 219.979,163.300 220.625 L 164.600 221.800 163.425 220.500 C 162.330 219.288,162.000 219.016,162.000 219.325 M116.313 226.295 C 117.476 226.376,119.276 226.376,120.313 226.293 C 121.351 226.211,120.400 226.145,118.200 226.146 C 116.000 226.147,115.151 226.214,116.313 226.295 M210.520 230.000 C 210.520 231.210,210.595 231.705,210.687 231.100 C 210.778 230.495,210.778 229.505,210.687 228.900 C 210.595 228.295,210.520 228.790,210.520 230.000 M91.714 231.400 C 91.717 232.500,91.795 232.903,91.887 232.295 C 91.979 231.686,91.977 230.786,91.882 230.295 C 91.787 229.803,91.711 230.300,91.714 231.400 M107.293 231.200 C 107.293 231.970,107.375 232.285,107.476 231.900 C 107.576 231.515,107.576 230.885,107.476 230.500 C 107.375 230.115,107.293 230.430,107.293 231.200 M80.965 241.200 C 80.965 245.050,81.025 246.625,81.098 244.700 C 81.171 242.775,81.171 239.625,81.098 237.700 C 81.025 235.775,80.965 237.350,80.965 241.200 M294.877 241.076 C 294.835 244.858,294.935 248.037,295.100 248.139 C 295.265 248.242,295.353 246.228,295.295 243.663 C 295.102 235.060,294.955 234.148,294.877 241.076 M94.800 242.925 C 94.800 242.994,95.385 243.579,96.100 244.225 L 97.400 245.400 96.225 244.100 C 95.130 242.888,94.800 242.616,94.800 242.925 " stroke="none" fill="#4ce494" fill-rule="evenodd"></path><path id="path8" d="M348.000 5.400 C 348.000 5.730,348.270 6.000,348.600 6.000 C 348.930 6.000,349.200 5.730,349.200 5.400 C 349.200 5.070,348.930 4.800,348.600 4.800 C 348.270 4.800,348.000 5.070,348.000 5.400 M360.678 5.056 C 360.358 5.375,360.719 6.000,361.224 6.000 C 361.431 6.000,361.600 5.730,361.600 5.400 C 361.600 4.781,361.128 4.605,360.678 5.056 M316.060 38.780 C 316.232 39.296,316.781 39.388,316.830 38.910 C 316.847 38.751,316.644 38.548,316.380 38.460 C 316.116 38.372,315.972 38.516,316.060 38.780 M393.467 42.267 C 392.825 42.908,393.187 46.001,393.900 45.968 C 394.318 45.950,394.399 45.856,394.100 45.735 C 393.825 45.624,393.600 45.293,393.600 45.000 C 393.600 44.707,393.825 44.376,394.100 44.265 C 394.500 44.104,394.500 44.057,394.100 44.032 C 393.825 44.014,393.600 43.655,393.600 43.233 C 393.600 42.812,393.825 42.376,394.100 42.265 C 394.379 42.152,394.409 42.049,394.167 42.032 C 393.928 42.014,393.613 42.120,393.467 42.267 M168.907 43.721 C 168.958 44.118,169.135 44.433,169.300 44.421 C 169.465 44.410,169.960 44.400,170.400 44.400 C 170.840 44.400,171.200 44.214,171.200 43.987 C 171.200 43.340,169.954 43.027,169.608 43.587 C 169.362 43.984,169.246 43.976,169.055 43.545 C 168.903 43.200,168.848 43.265,168.907 43.721 M189.867 43.467 C 189.360 43.974,189.603 44.400,190.400 44.400 C 190.844 44.400,191.200 44.133,191.200 43.800 C 191.200 43.191,190.354 42.979,189.867 43.467 M161.200 44.600 C 161.200 44.930,161.470 45.200,161.800 45.200 C 162.130 45.200,162.400 44.930,162.400 44.600 C 162.400 44.270,162.130 44.000,161.800 44.000 C 161.470 44.000,161.200 44.270,161.200 44.600 M199.784 44.427 C 199.415 45.022,199.842 45.346,200.608 45.052 C 200.962 44.917,201.139 44.624,201.002 44.403 C 200.678 43.878,200.116 43.889,199.784 44.427 M155.292 45.275 C 155.539 46.017,156.400 46.140,156.400 45.433 C 156.400 45.085,156.115 44.800,155.767 44.800 C 155.418 44.800,155.205 45.014,155.292 45.275 M205.600 45.400 C 205.600 45.730,205.870 46.000,206.200 46.000 C 206.530 46.000,206.800 45.730,206.800 45.400 C 206.800 45.070,206.530 44.800,206.200 44.800 C 205.870 44.800,205.600 45.070,205.600 45.400 M210.278 45.856 C 209.958 46.175,210.319 46.800,210.824 46.800 C 211.031 46.800,211.200 46.530,211.200 46.200 C 211.200 45.581,210.728 45.405,210.278 45.856 M316.000 48.633 C 316.000 49.340,316.861 49.217,317.108 48.475 C 317.195 48.214,316.982 48.000,316.633 48.000 C 316.285 48.000,316.000 48.285,316.000 48.633 M10.077 178.830 C 10.156 179.067,10.391 179.260,10.600 179.260 C 10.809 179.260,11.044 179.067,11.123 178.830 C 11.202 178.594,10.967 178.400,10.600 178.400 C 10.233 178.400,9.998 178.594,10.077 178.830 M8.678 185.856 C 8.358 186.175,8.719 186.800,9.224 186.800 C 9.431 186.800,9.600 186.530,9.600 186.200 C 9.600 185.581,9.128 185.405,8.678 185.856 M7.855 190.600 C 7.982 190.930,8.246 191.200,8.443 191.200 C 8.639 191.200,8.800 190.930,8.800 190.600 C 8.800 190.270,8.536 190.000,8.213 190.000 C 7.855 190.000,7.715 190.235,7.855 190.600 M352.578 190.435 C 352.431 190.674,352.490 191.050,352.710 191.270 C 352.976 191.536,353.199 191.525,353.378 191.235 C 353.526 190.996,353.412 190.797,353.124 190.794 C 352.743 190.789,352.764 190.682,353.200 190.400 C 353.561 190.167,353.610 190.010,353.324 190.006 C 353.062 190.003,352.726 190.196,352.578 190.435 M353.467 196.267 C 353.006 196.727,353.175 197.200,353.800 197.200 C 354.130 197.200,354.400 196.930,354.400 196.600 C 354.400 195.975,353.927 195.806,353.467 196.267 M6.800 201.563 C 7.207 201.851,7.239 201.990,6.900 201.994 C 6.625 201.997,6.400 202.285,6.400 202.633 C 6.400 202.982,6.625 203.192,6.900 203.100 C 7.601 202.866,7.525 201.501,6.800 201.303 C 6.267 201.157,6.267 201.186,6.800 201.563 M354.000 204.400 C 354.000 204.844,354.267 205.200,354.600 205.200 C 354.933 205.200,355.200 204.844,355.200 204.400 C 355.200 203.956,354.933 203.600,354.600 203.600 C 354.267 203.600,354.000 203.956,354.000 204.400 M354.267 231.867 C 353.716 232.418,354.012 233.600,354.700 233.594 C 355.298 233.589,355.313 233.531,354.800 233.200 C 354.400 232.942,354.367 232.810,354.700 232.806 C 354.975 232.803,355.200 232.530,355.200 232.200 C 355.200 231.575,354.727 231.406,354.267 231.867 M6.400 234.200 C 6.400 234.876,6.583 235.206,6.900 235.100 C 7.175 235.008,7.400 234.603,7.400 234.200 C 7.400 233.797,7.175 233.392,6.900 233.300 C 6.583 233.194,6.400 233.524,6.400 234.200 M353.467 239.467 C 352.979 239.954,353.191 240.800,353.800 240.800 C 354.133 240.800,354.400 240.444,354.400 240.000 C 354.400 239.203,353.974 238.960,353.467 239.467 M207.200 391.000 C 207.200 391.330,207.470 391.600,207.800 391.600 C 208.130 391.600,208.400 391.330,208.400 391.000 C 208.400 390.670,208.130 390.400,207.800 390.400 C 207.470 390.400,207.200 390.670,207.200 391.000 M159.277 391.630 C 159.356 391.867,159.591 392.060,159.800 392.060 C 160.009 392.060,160.245 391.867,160.323 391.630 C 160.402 391.394,160.167 391.200,159.800 391.200 C 159.433 391.200,159.198 391.394,159.277 391.630 M201.277 391.630 C 201.356 391.867,201.591 392.060,201.800 392.060 C 202.009 392.060,202.245 391.867,202.323 391.630 C 202.402 391.394,202.167 391.200,201.800 391.200 C 201.433 391.200,201.198 391.394,201.277 391.630 M193.600 392.400 C 193.600 392.620,193.960 392.800,194.400 392.800 C 194.840 392.800,195.200 392.620,195.200 392.400 C 195.200 392.180,194.840 392.000,194.400 392.000 C 193.960 392.000,193.600 392.180,193.600 392.400 " stroke="none" fill="#25d47c" fill-rule="evenodd"></path></g></svg>